<?xml version="1.0" standalone="no"?>
<!DOCTYPE svg PUBLIC "-//W3C//DTD SVG 1.1//EN" "http://www.w3.org/Graphics/SVG/1.1/DTD/svg11.dtd" >
<svg xmlns="http://www.w3.org/2000/svg">
<metadata></metadata>
<defs>
<font id="borg_9regular" horiz-adv-x="2172" >
<font-face units-per-em="2048" ascent="1522" descent="-526" />
<missing-glyph horiz-adv-x="692" />
<glyph horiz-adv-x="2048" />
<glyph horiz-adv-x="2048" />
<glyph unicode="&#xd;" horiz-adv-x="1220" />
<glyph unicode=" "  horiz-adv-x="692" />
<glyph unicode="&#x09;" horiz-adv-x="692" />
<glyph unicode="&#xa0;" horiz-adv-x="692" />
<glyph unicode="!" horiz-adv-x="645" d="M111 0v252h428v-252h-428zM111 416v979h428v-979h-428z" />
<glyph unicode="&#x22;" horiz-adv-x="837" d="M125 807v588h199v-588h-199zM498 807v588h198v-588h-198z" />
<glyph unicode="#" horiz-adv-x="1204" d="M68 338v154h249l72 372h-231v154h266l61 332h121l-63 -332h268l70 332h116l-65 -332h205v-154h-238l-78 -372h228v-154h-254l-74 -338h-115l70 338h-270l-72 -338h-117l68 338h-217zM434 489h271l79 379h-274z" />
<glyph unicode="$" horiz-adv-x="1658" d="M111 291v219h1022q66 0 65 39q0 39 -65 39h-797q-61 0 -102 17.5t-68 47t-39 69.5t-16 83h1208q104 0 164.5 -44t60.5 -120v-205q0 -106 -196 -145h-1237zM111 952v152q0 72 66.5 108.5t158.5 36.5h78v146h315v-146h186v146h314v-146h90q92 0 158.5 -36.5t66.5 -108.5 v-152h-346q-4 74 -68 74h-626q-76 0 -78 -74h-315zM414 0v176h315v-176h-315zM915 0v176h314v-176h-314z" />
<glyph unicode="%" horiz-adv-x="1771" d="M143 1022v379h349v-379h-349zM162 -82l1218 1557h209l-1222 -1557h-205zM1260 -10v379h348v-379h-348z" />
<glyph unicode="&#x26;" horiz-adv-x="1646" d="M213 614v203h502v500h200v-500h504v-203h-504v-503h-200v503h-502z" />
<glyph unicode="'" horiz-adv-x="444" d="M125 807v588h199v-588h-199z" />
<glyph unicode="(" horiz-adv-x="624" d="M80 582q0 510 268 966h193q-295 -410 -295 -966q0 -496 297 -965h-195q-268 457 -268 965z" />
<glyph unicode=")" horiz-adv-x="620" d="M78 -383q80 123 137 236.5t92 229.5t51.5 237.5t16.5 261.5q0 143 -17.5 270t-54.5 243.5t-93 228.5t-132 224h192q137 -229 203 -466.5t66 -499.5t-65.5 -499t-203.5 -466h-192z" />
<glyph unicode="*" horiz-adv-x="716" d="M180 1018q0 74 29 112q-29 39 -29 125q0 29 7.5 62t17.5 60.5t24.5 46t30.5 18.5q8 0 21 -4q16 102 67 102h25q53 0 67 -100q14 8 25 8q14 0 28.5 -19.5t24.5 -49t16.5 -66.5t6.5 -70q0 -78 -29 -113q27 -35 27 -112q0 -33 -6.5 -68t-16.5 -63.5t-24.5 -47t-30.5 -18.5 q-4 0 -21 4q-12 -102 -67 -102h-25q-51 0 -67 102q-10 -6 -21 -6q-16 0 -31.5 21.5t-25.5 52.5t-16.5 65.5t-6.5 59.5z" />
<glyph unicode="+" horiz-adv-x="1646" d="M213 614v203h502v500h200v-500h504v-203h-504v-503h-200v503h-502z" />
<glyph unicode="," horiz-adv-x="645" d="M111 184h428v-600h-428v600z" />
<glyph unicode="-" horiz-adv-x="964" d="M63 428v324h844v-324h-844z" />
<glyph unicode="." horiz-adv-x="645" d="M111 -166h428v-250h-428v250z" />
<glyph unicode="/" horiz-adv-x="1028" d="M39 -115l733 1581h191l-750 -1581h-174z" />
<glyph unicode="0" horiz-adv-x="1988" d="M111 215v537h428v-320q0 -41 19.5 -63.5t57.5 -36.5l29 -10h672q20 0 42.5 10t42 25.5t32 36t12.5 38.5v320h428v-537q0 -156 -270 -211q-14 -2 -23.5 -3t-15.5 -1h-1149q-25 0 -80 14q-225 59 -225 201zM111 963v221q0 49 25.5 88t67.5 66.5t97 42t115 14.5h1149 q63 0 119.5 -14.5t98.5 -42t66.5 -66.5t24.5 -88v-221h-1763z" />
<glyph unicode="1" horiz-adv-x="645" d="M-139 963l250 432h428v-432h-678zM111 0v752h428v-752h-428z" />
<glyph unicode="2" d="M111 0v510q0 113 85 177.5t220 64.5h1650q-6 -61 -23.5 -119t-53 -103t-92 -71.5t-138.5 -26.5h-1091q-27 0 -44.5 -3t-26.5 -14.5t-12 -34t-3 -58.5h1484v-322h-1955zM111 963v221q0 49 25.5 88t67.5 66.5t97 42t115 14.5h1343q63 0 119.5 -15.5t98.5 -43t65.5 -66.5 t23.5 -86v-221h-428q-6 106 -108 106h-858q-82 0 -90 -106h-471z" />
<glyph unicode="3" d="M111 0v322h1398q84 0 84 53q0 57 -84 57h-1398l428 320h1220q68 0 124 -16.5t97 -48.5t63.5 -77t22.5 -100v-295q0 -143 -227 -201q-51 -14 -80 -14h-1648zM111 963v432h1955l-616 -432h-1339z" />
<glyph unicode="4" horiz-adv-x="1933" d="M111 428v324h1714v-752h-428v428h-1286zM111 963v432h428v-432h-428zM1397 963v432h428v-432h-428z" />
<glyph unicode="5" d="M111 0v322h1398q84 0 84 53q0 57 -84 57h-1398v320h1648q68 0 124 -16.5t97 -48.5t63.5 -77t22.5 -100v-295q0 -143 -227 -201q-51 -14 -80 -14h-1648zM111 963v432h1955v-432h-1955z" />
<glyph unicode="6" d="M111 266v486h1648q61 0 116.5 -19.5t98.5 -54.5t67.5 -85t24.5 -114v-213q0 -123 -84 -194.5t-223 -71.5h-1343q-137 0 -221 70.5t-84 195.5zM111 963v221q0 49 25.5 88t67.5 66.5t97 42t115 14.5h1343q63 0 119.5 -15.5t98.5 -43t65.5 -66.5t23.5 -86v-221h-428 q-6 106 -108 106h-858q-82 0 -90 -106h-471zM539 397q0 -76 88 -75h882q90 -1 90 75q0 61 -90 62h-970v-62z" />
<glyph unicode="7" horiz-adv-x="1556" d="M104 0l541 752h492l-527 -752h-506zM104 963v432h1452l-274 -432h-1178z" />
<glyph unicode="8" horiz-adv-x="1933" d="M111 266v213q0 55 19.5 104.5t58 87.5t96 59.5t131.5 21.5h1102q63 0 119.5 -19.5t98.5 -54.5t65.5 -86t23.5 -113v-213q0 -129 -86 -197.5t-221 -68.5h-1102q-137 0 -221 70.5t-84 195.5zM111 963v221q0 49 25.5 88t67.5 66.5t97 42t115 14.5h1102q63 0 119.5 -15.5 t98.5 -43t65.5 -66.5t23.5 -86v-221h-428q-2 106 -107 106h-618q-82 0 -90 -106h-471zM578 397q0 -76 88 -75h604q88 -1 88 75q0 61 -88 62h-604q-88 0 -88 -62z" />
<glyph unicode="9" horiz-adv-x="1933" d="M111 0v322h1159q47 0 83 32.5t44 77.5h-893q-115 0 -189.5 26.5t-121 71.5t-64.5 102.5t-18 119.5h1714v-537q0 -141 -226 -201q-55 -14 -81 -14h-1407zM111 963v221q0 49 25.5 88t67.5 66.5t97 42t115 14.5h1102q63 0 119.5 -15.5t98.5 -43t65.5 -66.5t23.5 -86v-221 h-428q-2 106 -107 106h-618q-82 0 -90 -106h-471z" />
<glyph unicode=":" horiz-adv-x="765" d="M172 219v252h430v-252h-430zM172 872v271h430v-271h-430z" />
<glyph unicode=";" horiz-adv-x="645" d="M111 133h428v-549h-428v549zM111 516v236h428v-236h-428z" />
<glyph unicode="&#x3c;" horiz-adv-x="1394" d="M213 696l776 539l176 -121l-610 -418l610 -409l-176 -123z" />
<glyph unicode="=" horiz-adv-x="1646" d="M213 371v202h1206v-202h-1206zM213 858v203h1206v-203h-1206z" />
<glyph unicode="&#x3e;" horiz-adv-x="1394" d="M213 1116l176 127l776 -536l-776 -539l-174 119l594 420z" />
<glyph unicode="?" horiz-adv-x="1759" d="M72 1069v326h1286q63 0 119.5 -15.5t98.5 -43t65.5 -66.5t23.5 -86v-221h-430q-2 106 -88 106h-1075zM436 -2v250h428v-250h-428zM436 414v63q0 47 34 95.5t92.5 88t136 65.5t165.5 26h801v-109q0 -166 -307 -166h-354q-96 0 -140 -63h-428z" />
<glyph unicode="@" horiz-adv-x="1415" d="M51 727q0 172 54.5 306t144.5 226.5t207.5 140.5t247.5 48q305 0 473 -166t168 -516q0 -49 -10.5 -116.5t-43 -129t-92 -104.5t-160.5 -43q-147 0 -192 110q-76 -57 -168 -57q-47 0 -90 16.5t-77 48t-54.5 78.5t-20.5 109q0 123 63.5 189.5t176.5 66.5q88 0 147 -41 l13 35h110v-322q0 -109 94 -108q59 0 107.5 66.5t48.5 189.5q0 119 -26.5 220t-86 175t-153.5 115t-227 41q-104 0 -196.5 -37t-161 -110t-107.5 -182.5t-39 -252.5q0 -145 31.5 -254t91 -184.5t142.5 -119.5t185 -61l-18 -145q-145 18 -255 85t-182.5 169t-108.5 234.5 t-36 279.5zM559 678q0 -129 133 -129q86 0 133 61v150q-45 51 -123 51q-143 0 -143 -133z" />
<glyph unicode="A" horiz-adv-x="1933" d="M111 0l366 752h983l371 -752h-434l-209 428h-440l-209 -428h-428zM582 963l221 432h330l219 -432h-770z" />
<glyph unicode="B" horiz-adv-x="1933" d="M111 0v752h1407q63 0 119.5 -19.5t98.5 -54.5t65.5 -86t23.5 -113v-213q0 -129 -86 -197.5t-221 -68.5h-1407zM111 963v432h1407q63 0 119.5 -15.5t98.5 -43t65.5 -66.5t23.5 -86v-221h-428q-2 106 -88 106h-770v-106h-428zM539 322h731h2q86 0 86 75q0 61 -88 62h-731 v-137z" />
<glyph unicode="C" d="M111 215v537h428v-320q0 -41 19.5 -63.5t57.5 -36.5l29 -10h1421v-322h-1650q-25 0 -80 14q-225 59 -225 201zM111 963v221q0 49 25.5 88t67.5 66.5t97 42.5t115 14h1343q63 0 118.5 -14.5t97.5 -42t66.5 -66.5t24.5 -88v-221h-1955z" />
<glyph unicode="D" d="M111 0v752h428v-430h970q20 0 43 10t42.5 25.5t31.5 36t12 38.5v320h428v-537q0 -156 -270 -211q-14 -2 -23.5 -3t-13.5 -1h-1648zM111 963v432h1648q63 0 118.5 -14.5t97.5 -42t66.5 -66.5t24.5 -88v-221h-1955z" />
<glyph unicode="E" horiz-adv-x="1503" d="M111 0v752h964v-324h-536v-106h882v-322h-1310zM111 963v432h1286v-326h-858v-106h-428z" />
<glyph unicode="F" horiz-adv-x="1503" d="M111 0v752h964v-324h-536v-428h-428zM111 963v432h1286v-326h-858v-106h-428z" />
<glyph unicode="G" d="M111 215v537h428v-320q0 -41 19.5 -63.5t57.5 -36.5l29 -10h864q47 0 65.5 21.5t18.5 88.5h-780v320h1253v-537q0 -156 -270 -211q-14 -2 -23.5 -3t-13.5 -1h-1343q-25 0 -80 14q-225 59 -225 201zM111 963v221q0 49 25.5 88t67.5 66.5t97 42t115 14.5h1343 q63 0 118.5 -14.5t97.5 -42t66.5 -66.5t24.5 -88v-221h-1955z" />
<glyph unicode="H" horiz-adv-x="1933" d="M111 0v752h1714v-752h-428v428h-858v-428h-428zM111 963v432h428v-432h-428zM1397 963v432h428v-432h-428z" />
<glyph unicode="I" horiz-adv-x="645" d="M111 0v752h428v-752h-428zM111 963v432h428v-432h-428z" />
<glyph unicode="J" horiz-adv-x="1273" d="M111 0v322h499q20 0 43 10t42.5 25.5t31.5 36t12 38.5v320h428v-537q0 -156 -270 -211q-14 -2 -23.5 -3t-15.5 -1h-747zM739 963v432h428v-432h-428z" />
<glyph unicode="K" horiz-adv-x="1933" d="M111 0v752h1079l635 -752h-533l-366 428h-387v-428h-428zM111 963v432h428v-432h-428zM627 963l635 432h563l-635 -432h-563z" />
<glyph unicode="L" horiz-adv-x="1527" d="M111 0v752h428v-430h882v-322h-1310zM111 963v432h428v-432h-428z" />
<glyph unicode="M" horiz-adv-x="2580" d="M111 0v752h428v-752h-428zM111 963v432h616l260 -432h-876zM610 752h502l186 -265l175 265h501l-426 -752h-512zM1595 963l263 432h616v-432h-879zM2044 0v752h430v-752h-430z" />
<glyph unicode="N" horiz-adv-x="1835" d="M111 0v752h428v-752h-428zM111 963v432h616l260 -432h-876zM610 752h502l186 -265v265h431v-752h-693zM1298 963v432h431v-432h-431z" />
<glyph unicode="O" d="M111 215v537h428v-320q0 -41 19.5 -63.5t57.5 -36.5l29 -10h864q20 0 43 10t42.5 25.5t31.5 36t12 38.5v320h428v-537q0 -156 -270 -211q-14 -2 -23.5 -3t-13.5 -1h-1343q-25 0 -80 14q-225 59 -225 201zM111 963v221q0 49 25.5 88t67.5 66.5t97 42.5t115 14h1343 q63 0 118.5 -14.5t97.5 -42t66.5 -66.5t24.5 -88v-221h-1955z" />
<glyph unicode="P" horiz-adv-x="1933" d="M111 0v752h1714v-109q0 -33 -20.5 -70.5t-59.5 -69.5t-96.5 -53.5t-130.5 -21.5h-979v-428h-428zM111 963v432h1407q63 0 119.5 -15.5t98.5 -43t65.5 -66.5t23.5 -86v-221h-428q-2 106 -88 106h-770v-106h-428z" />
<glyph unicode="Q" d="M111 215v537h428v-320q0 -41 19.5 -63.5t57.5 -36.5l29 -10h864q20 0 43 10t42.5 25.5t31.5 36t12 38.5v320h428v-537q0 -156 -270 -211q-14 -2 -23.5 -3t-13.5 -1h-467v-426h-428v426h-448q-25 0 -80 14q-225 59 -225 201zM111 963v221q0 49 25.5 88t67.5 66.5t97 42 t115 14.5h1343q63 0 118.5 -14.5t97.5 -42t66.5 -66.5t24.5 -88v-221h-1955z" />
<glyph unicode="R" horiz-adv-x="1933" d="M111 0v752h1714v-109q0 -156 -269 -209l-38 -6l307 -428h-473l-305 428h-508v-428h-428zM111 963v432h1407q63 0 119.5 -15.5t98.5 -43t65.5 -66.5t23.5 -86v-221h-428q-2 106 -88 106h-770v-106h-428z" />
<glyph unicode="S" horiz-adv-x="1945" d="M111 0v322h1183q86 0 86 53q0 57 -86 57h-878q-141 0 -215 80t-90 240h1433q68 0 124 -16.5t97 -48.5t63.5 -77t22.5 -100v-295q0 -156 -270 -211q-14 -2 -23.5 -3t-13.5 -1h-1433zM111 963v221q0 49 25.5 88t67.5 66.5t97 42.5t115 14h1128q63 0 118.5 -14.5t97.5 -42 t66.5 -66.5t24.5 -88v-221h-471q-6 106 -90 106h-645q-98 0 -106 -106h-428z" />
<glyph unicode="T" horiz-adv-x="1347" d="M23 963v432h1312v-432h-1312zM428 0v752h430v-752h-430z" />
<glyph unicode="U" d="M111 215v537h428v-320q0 -41 19.5 -63.5t57.5 -36.5l29 -10h864q20 0 43 10t42.5 25.5t31.5 36t12 38.5v320h428v-537q0 -156 -270 -211q-14 -2 -23.5 -3t-13.5 -1h-1343q-25 0 -80 14q-225 59 -225 201zM111 963v432h428v-432h-428zM1638 963v432h428v-432h-428z" />
<glyph unicode="V" horiz-adv-x="1548" d="M10 1395h451l157 -432h-428zM266 752h1018l-307 -752h-428zM950 963l156 432h450l-176 -432h-430z" />
<glyph unicode="W" horiz-adv-x="2605" d="M20 1395h451l158 -432h-428zM272 752h1022l-307 -752h-428zM903 963l158 432h495l158 -432h-811zM1335 752h1020l-287 -752h-426zM2001 963l158 432h450l-180 -432h-428z" />
<glyph unicode="X" horiz-adv-x="1462" d="M-8 0l401 752h645l445 -752h-482l-241 440h-66l-233 -440h-469zM129 1395h459l135 -236l135 236h442l-262 -432h-645z" />
<glyph unicode="Y" horiz-adv-x="1538" d="M16 1395h564l219 -236l241 236h525l-451 -432h-647zM559 0v752h426v-752h-426z" />
<glyph unicode="Z" horiz-adv-x="1538" d="M111 0v322l407 430h488l-361 -430h787v-322h-1321zM111 963v432h1321l-279 -432h-1042z" />
<glyph unicode="\" horiz-adv-x="1028" d="M39 1466h190l734 -1581h-172z" />
<glyph unicode="^" horiz-adv-x="1394" d="M158 705l534 778l539 -778l-123 -177l-416 611l-409 -611z" />
<glyph unicode="_" horiz-adv-x="1638" d="M-25 -152h1711v-282h-1711v282z" />
<glyph unicode="`" horiz-adv-x="526" d="M-16 1509h264l125 -411h-39z" />
<glyph unicode="a" horiz-adv-x="1933" d="M111 0l366 752h983l371 -752h-434l-209 428h-440l-209 -428h-428zM582 963l221 432h330l219 -432h-770z" />
<glyph unicode="b" horiz-adv-x="1933" d="M111 0v752h1407q63 0 119.5 -19.5t98.5 -54.5t65.5 -86t23.5 -113v-213q0 -129 -86 -197.5t-221 -68.5h-1407zM111 963v432h1407q63 0 119.5 -15.5t98.5 -43t65.5 -66.5t23.5 -86v-221h-428q-2 106 -88 106h-770v-106h-428zM539 322h731h2q86 0 86 75q0 61 -88 62h-731 v-137z" />
<glyph unicode="c" d="M111 215v537h428v-320q0 -41 19.5 -63.5t57.5 -36.5l29 -10h1421v-322h-1650q-25 0 -80 14q-225 59 -225 201zM111 963v221q0 49 25.5 88t67.5 66.5t97 42.5t115 14h1343q63 0 118.5 -14.5t97.5 -42t66.5 -66.5t24.5 -88v-221h-1955z" />
<glyph unicode="d" d="M111 0v752h428v-430h970q20 0 43 10t42.5 25.5t31.5 36t12 38.5v320h428v-537q0 -156 -270 -211q-14 -2 -23.5 -3t-13.5 -1h-1648zM111 963v432h1648q63 0 118.5 -14.5t97.5 -42t66.5 -66.5t24.5 -88v-221h-1955z" />
<glyph unicode="e" horiz-adv-x="1503" d="M111 0v752h964v-324h-536v-106h882v-322h-1310zM111 963v432h1286v-326h-858v-106h-428z" />
<glyph unicode="f" horiz-adv-x="1503" d="M111 0v752h964v-324h-536v-428h-428zM111 963v432h1286v-326h-858v-106h-428z" />
<glyph unicode="g" d="M111 215v537h428v-320q0 -41 19.5 -63.5t57.5 -36.5l29 -10h864q47 0 65.5 21.5t18.5 88.5h-780v320h1253v-537q0 -156 -270 -211q-14 -2 -23.5 -3t-13.5 -1h-1343q-25 0 -80 14q-225 59 -225 201zM111 963v221q0 49 25.5 88t67.5 66.5t97 42t115 14.5h1343 q63 0 118.5 -14.5t97.5 -42t66.5 -66.5t24.5 -88v-221h-1955z" />
<glyph unicode="h" horiz-adv-x="1933" d="M111 0v752h1714v-752h-428v428h-858v-428h-428zM111 963v432h428v-432h-428zM1397 963v432h428v-432h-428z" />
<glyph unicode="i" horiz-adv-x="645" d="M111 0v752h428v-752h-428zM111 963v432h428v-432h-428z" />
<glyph unicode="j" horiz-adv-x="1273" d="M111 0v322h499q20 0 43 10t42.5 25.5t31.5 36t12 38.5v320h428v-537q0 -156 -270 -211q-14 -2 -23.5 -3t-15.5 -1h-747zM739 963v432h428v-432h-428z" />
<glyph unicode="k" horiz-adv-x="1933" d="M111 0v752h1079l635 -752h-533l-366 428h-387v-428h-428zM111 963v432h428v-432h-428zM627 963l635 432h563l-635 -432h-563z" />
<glyph unicode="l" horiz-adv-x="1527" d="M111 0v752h428v-430h882v-322h-1310zM111 963v432h428v-432h-428z" />
<glyph unicode="m" horiz-adv-x="2580" d="M111 0v752h428v-752h-428zM111 963v432h616l260 -432h-876zM610 752h502l186 -265l175 265h501l-426 -752h-512zM1595 963l263 432h616v-432h-879zM2044 0v752h430v-752h-430z" />
<glyph unicode="n" horiz-adv-x="1835" d="M111 0v752h428v-752h-428zM111 963v432h616l260 -432h-876zM610 752h502l186 -265v265h431v-752h-693zM1298 963v432h431v-432h-431z" />
<glyph unicode="o" d="M111 215v537h428v-320q0 -41 19.5 -63.5t57.5 -36.5l29 -10h864q20 0 43 10t42.5 25.5t31.5 36t12 38.5v320h428v-537q0 -156 -270 -211q-14 -2 -23.5 -3t-13.5 -1h-1343q-25 0 -80 14q-225 59 -225 201zM111 963v221q0 49 25.5 88t67.5 66.5t97 42.5t115 14h1343 q63 0 118.5 -14.5t97.5 -42t66.5 -66.5t24.5 -88v-221h-1955z" />
<glyph unicode="p" horiz-adv-x="1933" d="M111 0v752h1714v-109q0 -33 -20.5 -70.5t-59.5 -69.5t-96.5 -53.5t-130.5 -21.5h-979v-428h-428zM111 963v432h1407q63 0 119.5 -15.5t98.5 -43t65.5 -66.5t23.5 -86v-221h-428q-2 106 -88 106h-770v-106h-428z" />
<glyph unicode="q" d="M111 215v537h428v-320q0 -41 19.5 -63.5t57.5 -36.5l29 -10h864q20 0 43 10t42.5 25.5t31.5 36t12 38.5v320h428v-537q0 -156 -270 -211q-14 -2 -23.5 -3t-13.5 -1h-467v-426h-428v426h-448q-25 0 -80 14q-225 59 -225 201zM111 963v221q0 49 25.5 88t67.5 66.5t97 42 t115 14.5h1343q63 0 118.5 -14.5t97.5 -42t66.5 -66.5t24.5 -88v-221h-1955z" />
<glyph unicode="r" horiz-adv-x="1933" d="M111 0v752h1714v-109q0 -156 -269 -209l-38 -6l307 -428h-473l-305 428h-508v-428h-428zM111 963v432h1407q63 0 119.5 -15.5t98.5 -43t65.5 -66.5t23.5 -86v-221h-428q-2 106 -88 106h-770v-106h-428z" />
<glyph unicode="s" horiz-adv-x="1945" d="M111 0v322h1183q86 0 86 53q0 57 -86 57h-878q-141 0 -215 80t-90 240h1433q68 0 124 -16.5t97 -48.5t63.5 -77t22.5 -100v-295q0 -156 -270 -211q-14 -2 -23.5 -3t-13.5 -1h-1433zM111 963v221q0 49 25.5 88t67.5 66.5t97 42.5t115 14h1128q63 0 118.5 -14.5t97.5 -42 t66.5 -66.5t24.5 -88v-221h-471q-6 106 -90 106h-645q-98 0 -106 -106h-428z" />
<glyph unicode="t" horiz-adv-x="1347" d="M23 963v432h1312v-432h-1312zM428 0v752h430v-752h-430z" />
<glyph unicode="u" d="M111 215v537h428v-320q0 -41 19.5 -63.5t57.5 -36.5l29 -10h864q20 0 43 10t42.5 25.5t31.5 36t12 38.5v320h428v-537q0 -156 -270 -211q-14 -2 -23.5 -3t-13.5 -1h-1343q-25 0 -80 14q-225 59 -225 201zM111 963v432h428v-432h-428zM1638 963v432h428v-432h-428z" />
<glyph unicode="v" horiz-adv-x="1548" d="M10 1395h451l157 -432h-428zM266 752h1018l-307 -752h-428zM950 963l156 432h450l-176 -432h-430z" />
<glyph unicode="w" horiz-adv-x="2605" d="M20 1395h451l158 -432h-428zM272 752h1022l-307 -752h-428zM903 963l158 432h495l158 -432h-811zM1335 752h1020l-287 -752h-426zM2001 963l158 432h450l-180 -432h-428z" />
<glyph unicode="x" horiz-adv-x="1462" d="M-8 0l401 752h645l445 -752h-482l-241 440h-66l-233 -440h-469zM129 1395h459l135 -236l135 236h442l-262 -432h-645z" />
<glyph unicode="y" horiz-adv-x="1538" d="M16 1395h564l219 -236l241 236h525l-451 -432h-647zM559 0v752h426v-752h-426z" />
<glyph unicode="z" horiz-adv-x="1538" d="M111 0v322l407 430h488l-361 -430h787v-322h-1321zM111 963v432h1321l-279 -432h-1042z" />
<glyph unicode="&#xa1;" horiz-adv-x="645" d="M111 0v977h428v-977h-428zM111 1143v252h428v-252h-428z" />
<glyph unicode="&#xa2;" horiz-adv-x="2052" d="M59 215v537h428v-320q0 -76 78 -100l33 -10h1417v-322h-710v-231h-422v231h-516q-29 0 -80 14q-227 57 -228 201zM59 963v221q0 49 26 88t68 66.5t97 42t117 14.5h501v207h437v-207h403q63 0 119.5 -15.5t98.5 -43t65.5 -66.5t23.5 -86v-221h-1956z" />
<glyph unicode="&#xa5;" horiz-adv-x="1681" d="M72 53v256h587v135h-583v256h583v52h431v-52h563v-256h-563v-135h557v-256h-557v-53h-431v53h-587zM123 1395h561l219 -236l240 236h526l-450 -432h-646z" />
<glyph unicode="&#xa8;" horiz-adv-x="825" d="M440 1317q0 53 37 91t92 38t93 -38t38 -91q0 -55 -37.5 -92t-93.5 -37q-53 0 -91 36t-38 93zM860 1317q0 53 38 91t91 38t91 -39t38 -90q0 -55 -38 -92t-91 -37t-91 36t-38 93z" />
<glyph unicode="&#xa9;" horiz-adv-x="1685" d="M100 682q0 152 57.5 286t158 234.5t233.5 158.5t285 58q154 0 286.5 -58t233 -158.5t158 -234.5t57.5 -286q0 -150 -57.5 -283t-158 -233t-233.5 -158.5t-286 -58.5q-152 0 -285 58.5t-233.5 158.5t-158 233t-57.5 283zM188 680q0 -135 51.5 -254t138.5 -206t205.5 -138 t254.5 -51q135 0 253.5 51t206.5 138t139.5 206t51.5 254t-51.5 254t-139.5 208t-206.5 141t-253.5 52t-254 -52t-206 -141t-138.5 -208t-51.5 -254zM397 453v262h178v-156q0 -37 31 -49l12 -6h592v-156h-686q-61 0 -94 36t-33 69zM397 817v107q0 47 39 74.5t88 27.5h557 q53 0 91 -27.5t38 -74.5v-107h-813z" />
<glyph unicode="&#xab;" horiz-adv-x="911" d="M100 659v146l379 196v-151l-248 -115l248 -117v-145zM461 659v146l381 196v-151l-250 -115l250 -117v-145z" />
<glyph unicode="&#xad;" horiz-adv-x="964" d="M63 428v324h844v-324h-844z" />
<glyph unicode="&#xae;" horiz-adv-x="1316" d="M115 860q0 104 41 198.5t113.5 165t172 111.5t217.5 41q121 0 223.5 -40t176.5 -109.5t116 -163.5t42 -203q0 -100 -42 -193.5t-117 -164t-177.5 -113.5t-221.5 -43t-218 43t-171.5 113.5t-113.5 164t-41 193.5zM217 860q0 -78 31 -153.5t88 -135t138 -95.5t183 -36 q96 0 181.5 32t150 89t102 133t37.5 166q0 76 -34.5 151.5t-97 134t-150 95.5t-189.5 37t-183 -37t-138 -95.5t-88 -134t-31 -151.5zM489 573v557h201q78 0 125 -46t47 -132q0 -55 -21.5 -91t-70.5 -66l100 -222h-116l-97 205h-57v-205h-111zM600 893h92q59 0 60 59 q0 66 -60 66h-92v-125z" />
<glyph unicode="&#xaf;" horiz-adv-x="671" d="M63 1741v98h535v-98h-535z" />
<glyph unicode="&#xb0;" horiz-adv-x="952" d="M63 1282q0 78 29 145.5t78 116.5t115.5 78t142.5 29t142.5 -30t116.5 -80t79 -116.5t29 -142.5t-29 -142.5t-79 -116.5t-116.5 -79t-142.5 -29q-78 0 -144.5 29t-115.5 79t-77 116.5t-28 142.5zM164 1284q0 -57 20.5 -105.5t55 -84t84 -56t104.5 -20.5t104.5 21.5 t85 58.5t56 85t20.5 101q0 55 -21.5 103.5t-57 84t-84 57t-103.5 21.5t-103.5 -20.5t-84 -56t-56 -85t-20.5 -104.5z" />
<glyph unicode="&#xb1;" horiz-adv-x="1310" d="M-35 168v96h594v498h-594v98h594v590h94v-590h594v-98h-594v-498h596v-96h-1284z" />
<glyph unicode="&#xb4;" horiz-adv-x="526" d="M20 1073l123 412h269l-351 -412h-41z" />
<glyph unicode="&#xb6;" horiz-adv-x="1128" d="M-47 1167q0 104 38 186.5t107.5 140.5t169 89t221.5 31h590v-66h-157v-2074h-86v2074h-224v-2074h-86v1241q-152 6 -260 36.5t-178 87t-102.5 138.5t-32.5 190z" />
<glyph unicode="&#xb8;" horiz-adv-x="487" d="M12 -406q20 -2 34.5 -3t25.5 -1q27 0 52.5 10.5t45.5 28t32.5 41t12.5 51.5q0 88 -102 89q-14 0 -25 -3l131 213h72l-60 -96q150 -33 150 -172q0 -49 -22.5 -88t-58.5 -67.5t-82 -44t-93 -15.5q-49 0 -113 6v51z" />
<glyph unicode="&#xbb;" horiz-adv-x="940" d="M127 473v152l248 116l-248 115v145l381 -188v-143zM487 473v152l248 116l-248 115v145l381 -188v-143z" />
<glyph unicode="&#xbf;" horiz-adv-x="1759" d="M72 207v221h428q4 -106 88 -106h1077v-324h-1288q-66 0 -121 15.5t-96 43t-64.5 65.5t-23.5 85zM72 641v107q0 166 305 165h354q98 0 139 64h428v-64q0 -47 -33.5 -95t-92 -87t-136.5 -64.5t-166 -25.5h-798zM870 1143v252h428v-252h-428z" />
<glyph unicode="&#xc0;" horiz-adv-x="1933" d="M97 0l366 752h983l371 -752h-434l-209 428h-440l-209 -428h-428zM568 963l221 432h330l219 -432h-770zM643 1878h264l125 -411h-39z" />
<glyph unicode="&#xc1;" horiz-adv-x="1933" d="M97 0l366 752h983l371 -752h-434l-209 428h-440l-209 -428h-428zM568 963l221 432h330l219 -432h-770zM843 1419l123 412h269l-351 -412h-41z" />
<glyph unicode="&#xc2;" horiz-adv-x="1933" d="M97 0l366 752h983l371 -752h-434l-209 428h-440l-209 -428h-428zM568 963l221 432h330l219 -432h-770zM613 1433l223 392h219l227 -392h-37l-323 252l-273 -252h-36z" />
<glyph unicode="&#xc3;" horiz-adv-x="1933" d="M97 0l366 752h983l371 -752h-434l-209 428h-440l-209 -428h-428zM539 1544q8 307 225 307q37 0 94.5 -25.5t115.5 -57t107.5 -57.5t67.5 -26q84 0 113 166h37q0 -139 -60.5 -225t-165.5 -86q-37 0 -96 26.5t-117.5 57.5t-106.5 57.5t-65 26.5q-23 0 -40 -6t-29.5 -23.5 t-22.5 -50.5t-18 -84h-39zM568 963l221 432h330l219 -432h-770z" />
<glyph unicode="&#xc4;" horiz-adv-x="1933" d="M97 0l366 752h983l371 -752h-434l-209 428h-440l-209 -428h-428zM568 963l221 432h330l219 -432h-770zM606 1723q0 53 37 91t92 38t93 -38t38 -91q0 -55 -37.5 -92t-93.5 -37q-53 0 -91 36t-38 93zM1026 1723q0 53 38 91t91 38t91 -39t38 -90q0 -55 -38 -92t-91 -37 t-91 36t-38 93z" />
<glyph unicode="&#xc5;" horiz-adv-x="1933" d="M97 0l366 752h983l371 -752h-434l-209 428h-440l-209 -428h-428zM568 963l221 432h330l219 -432h-770zM715 1670q0 47 17.5 88t48 71.5t72.5 49t91 18.5q47 0 88 -18.5t72 -49t48.5 -71.5t17.5 -88t-17.5 -89.5t-47.5 -73t-71 -49t-90 -18.5q-98 0 -163.5 65.5 t-65.5 164.5zM797 1670q0 -61 43 -104.5t104 -43.5q57 0 100.5 43t43.5 105q0 61 -43.5 103t-100.5 42q-61 0 -104 -42t-43 -103z" />
<glyph unicode="&#xc6;" horiz-adv-x="2119" d="M76 0l364 752h1422v-324h-502v-106h657v-322h-966v428h-336l-211 -428h-428zM549 963l219 432h1229v-326h-637v-106h-811z" />
<glyph unicode="&#xc7;" horiz-adv-x="2113" d="M111 215v537h428v-320q0 -41 19.5 -63.5t57.5 -36.5l29 -10h1421v-322h-1650q-25 0 -80 14q-225 59 -225 201zM111 963v221q0 49 25.5 88t67.5 66.5t97 42t115 14.5h1343q63 0 118.5 -14.5t97.5 -42t66.5 -66.5t24.5 -88v-221h-1955zM872 -381q20 -2 34.5 -3t25.5 -1 q27 0 52.5 10.5t45.5 28t32.5 41t12.5 51.5q0 88 -102 89q-14 0 -25 -3l131 213h72l-60 -96q150 -33 150 -172q0 -49 -22.5 -88t-58.5 -67.5t-82 -44t-93 -15.5q-49 0 -113 6v51z" />
<glyph unicode="&#xc8;" horiz-adv-x="1503" d="M123 0v752h964v-324h-536v-106h882v-322h-1310zM123 963v432h1286v-326h-858v-106h-428zM514 1847h264l125 -411h-39z" />
<glyph unicode="&#xc9;" horiz-adv-x="1503" d="M123 0v752h964v-324h-536v-106h882v-322h-1310zM123 963v432h1286v-326h-858v-106h-428zM589 1427l123 412h269l-351 -412h-41z" />
<glyph unicode="&#xca;" horiz-adv-x="1503" d="M123 0v752h964v-324h-536v-106h882v-322h-1310zM123 963v432h1286v-326h-858v-106h-428zM433 1439l223 392h219l227 -392h-37l-323 252l-273 -252h-36z" />
<glyph unicode="&#xcb;" horiz-adv-x="1503" d="M123 0v752h964v-324h-536v-106h882v-322h-1310zM123 963v432h1286v-326h-858v-106h-428zM442 1733q0 53 37 91t92 38t93 -38t38 -91q0 -55 -37.5 -92t-93.5 -37q-53 0 -91 36t-38 93zM862 1733q0 53 38 91t91 38t91 -39t38 -90q0 -55 -38 -92t-91 -37t-91 36t-38 93z" />
<glyph unicode="&#xcc;" horiz-adv-x="645" d="M-22 1847h264l125 -411h-39zM101 0v752h428v-752h-428zM101 963v432h428v-432h-428z" />
<glyph unicode="&#xcd;" horiz-adv-x="645" d="M93 0v752h428v-752h-428zM93 963v432h428v-432h-428zM94 1427l123 412h269l-351 -412h-41z" />
<glyph unicode="&#xce;" horiz-adv-x="645" d="M0 1445l223 392h219l227 -392h-37l-323 252l-273 -252h-36zM111 0v752h428v-752h-428zM111 963v432h428v-432h-428z" />
<glyph unicode="&#xcf;" horiz-adv-x="645" d="M-2 1737q0 53 37 91t92 38t93 -38t38 -91q0 -55 -37.5 -92t-93.5 -37q-53 0 -91 36t-38 93zM127 0v752h428v-752h-428zM127 963v432h428v-432h-428zM418 1737q0 53 38 91t91 38t91 -39t38 -90q0 -55 -38 -92t-91 -37t-91 36t-38 93z" />
<glyph unicode="&#xd0;" horiz-adv-x="2220" d="M143 963v432h1651q66 0 122 -15.5t97 -44t64.5 -67.5t23.5 -84v-221h-1958zM170 424v309h844v-309h-197v-102h727q20 0 43 10t41.5 25.5t30.5 35t12 39.5v320h430v-537q0 -156 -268 -211q-14 -2 -24.5 -3t-14.5 -1h-1407v424h-217z" />
<glyph unicode="&#xd1;" horiz-adv-x="1818" d="M70 0v752h428v-752h-428zM70 963v432h616l260 -432h-876zM404 1565q8 307 225 307q37 0 94.5 -25.5t115.5 -57t107.5 -57.5t67.5 -26q84 0 113 166h37q0 -139 -60.5 -225t-165.5 -86q-37 0 -96 26.5t-117.5 57.5t-106.5 57.5t-65 26.5q-23 0 -40 -6t-29.5 -23.5 t-22.5 -50.5t-18 -84h-39zM569 752h502l186 -265v265h431v-752h-693zM1257 963v432h431v-432h-431z" />
<glyph unicode="&#xd2;" d="M103 215v537h428v-320q0 -41 19.5 -63.5t57.5 -36.5l29 -10h864q20 0 43 10t42.5 25.5t31.5 36t12 38.5v320h428v-537q0 -156 -270 -211q-14 -2 -23.5 -3t-13.5 -1h-1343q-25 0 -80 14q-225 59 -225 201zM103 963v221q0 49 25.5 88t67.5 66.5t97 42t115 14.5h1343 q63 0 118.5 -14.5t97.5 -42t66.5 -66.5t24.5 -88v-221h-1955zM791 1853h264l125 -411h-39z" />
<glyph unicode="&#xd3;" d="M103 215v537h428v-320q0 -41 19.5 -63.5t57.5 -36.5l29 -10h864q20 0 43 10t42.5 25.5t31.5 36t12 38.5v320h428v-537q0 -156 -270 -211q-14 -2 -23.5 -3t-13.5 -1h-1343q-25 0 -80 14q-225 59 -225 201zM103 963v221q0 49 25.5 88t67.5 66.5t97 42t115 14.5h1343 q63 0 118.5 -14.5t97.5 -42t66.5 -66.5t24.5 -88v-221h-1955zM944 1431l123 412h269l-351 -412h-41z" />
<glyph unicode="&#xd4;" d="M103 215v537h428v-320q0 -41 19.5 -63.5t57.5 -36.5l29 -10h864q20 0 43 10t42.5 25.5t31.5 36t12 38.5v320h428v-537q0 -156 -270 -211q-14 -2 -23.5 -3t-13.5 -1h-1343q-25 0 -80 14q-225 59 -225 201zM103 963v221q0 49 25.5 88t67.5 66.5t97 42t115 14.5h1343 q63 0 118.5 -14.5t97.5 -42t66.5 -66.5t24.5 -88v-221h-1955zM699 1433l223 392h219l227 -392h-37l-323 252l-273 -252h-36z" />
<glyph unicode="&#xd5;" d="M103 215v537h428v-320q0 -41 19.5 -63.5t57.5 -36.5l29 -10h864q20 0 43 10t42.5 25.5t31.5 36t12 38.5v320h428v-537q0 -156 -270 -211q-14 -2 -23.5 -3t-13.5 -1h-1343q-25 0 -80 14q-225 59 -225 201zM103 963v221q0 49 25.5 88t67.5 66.5t97 42t115 14.5h1343 q63 0 118.5 -14.5t97.5 -42t66.5 -66.5t24.5 -88v-221h-1955zM680 1560q8 307 225 307q37 0 94.5 -25.5t115.5 -57t107.5 -57.5t67.5 -26q84 0 113 166h37q0 -139 -60.5 -225t-165.5 -86q-37 0 -96 26.5t-117.5 57.5t-106.5 57.5t-65 26.5q-23 0 -40 -6t-29.5 -23.5 t-22.5 -50.5t-18 -84h-39z" />
<glyph unicode="&#xd6;" d="M103 215v537h428v-320q0 -41 19.5 -63.5t57.5 -36.5l29 -10h864q20 0 43 10t42.5 25.5t31.5 36t12 38.5v320h428v-537q0 -156 -270 -211q-14 -2 -23.5 -3t-13.5 -1h-1343q-25 0 -80 14q-225 59 -225 201zM103 963v221q0 49 25.5 88t67.5 66.5t97 42t115 14.5h1343 q63 0 118.5 -14.5t97.5 -42t66.5 -66.5t24.5 -88v-221h-1955zM739 1737q0 53 37 91t92 38t93 -38t38 -91q0 -55 -37.5 -92t-93.5 -37q-53 0 -91 36t-38 93zM1159 1737q0 53 38 91t91 38t91 -39t38 -90q0 -55 -38 -92t-91 -37t-91 36t-38 93z" />
<glyph unicode="&#xd7;" horiz-adv-x="1646" d="M317 356l359 359l-357 352l144 143l354 -354l352 352l144 -141l-352 -352l356 -357l-146 -143l-354 354l-356 -354z" />
<glyph unicode="&#xd8;" horiz-adv-x="2181" d="M141 215v537h428v-320q0 -74 80 -100l29 -10h541l-564 641h-514v221q0 47 24.5 86t67.5 66.5t98.5 43t117.5 15.5h1343q63 0 118.5 -15.5t97.5 -43t66.5 -66.5t24.5 -86v-221h-928l492 -566q6 14 6 35v320h430v-537q0 -35 -19.5 -72t-57 -69.5t-96 -53t-134.5 -20.5 h-1343q-76 0 -133.5 20.5t-96.5 52t-58.5 69.5t-19.5 73z" />
<glyph unicode="&#xd9;" d="M97 215v537h428v-320q0 -41 19.5 -63.5t57.5 -36.5l29 -10h864q20 0 43 10t42.5 25.5t31.5 36t12 38.5v320h428v-537q0 -156 -270 -211q-14 -2 -23.5 -3t-13.5 -1h-1343q-25 0 -80 14q-225 59 -225 201zM97 963v432h428v-432h-428zM834 1863h264l125 -411h-39zM1624 963 v432h428v-432h-428z" />
<glyph unicode="&#xda;" d="M97 215v537h428v-320q0 -41 19.5 -63.5t57.5 -36.5l29 -10h864q20 0 43 10t42.5 25.5t31.5 36t12 38.5v320h428v-537q0 -156 -270 -211q-14 -2 -23.5 -3t-13.5 -1h-1343q-25 0 -80 14q-225 59 -225 201zM97 963v432h428v-432h-428zM827 1419l123 412h269l-351 -412h-41z M1624 963v432h428v-432h-428z" />
<glyph unicode="&#xdb;" d="M97 215v537h428v-320q0 -41 19.5 -63.5t57.5 -36.5l29 -10h864q20 0 43 10t42.5 25.5t31.5 36t12 38.5v320h428v-537q0 -156 -270 -211q-14 -2 -23.5 -3t-13.5 -1h-1343q-25 0 -80 14q-225 59 -225 201zM97 963v432h428v-432h-428zM699 1433l223 392h219l227 -392h-37 l-323 252l-273 -252h-36zM1624 963v432h428v-432h-428z" />
<glyph unicode="&#xdc;" d="M97 215v537h428v-320q0 -41 19.5 -63.5t57.5 -36.5l29 -10h864q20 0 43 10t42.5 25.5t31.5 36t12 38.5v320h428v-537q0 -156 -270 -211q-14 -2 -23.5 -3t-13.5 -1h-1343q-25 0 -80 14q-225 59 -225 201zM97 963v432h428v-432h-428zM704 1729q0 53 37 91t92 38t93 -38 t38 -91q0 -55 -37.5 -92t-93.5 -37q-53 0 -91 36t-38 93zM1124 1729q0 53 38 91t91 38t91 -39t38 -90q0 -55 -38 -92t-91 -37t-91 36t-38 93zM1624 963v432h428v-432h-428z" />
<glyph unicode="&#xdd;" horiz-adv-x="1490" d="M4 1395h564l219 -236l241 236h525l-451 -432h-647zM547 0v752h426v-752h-426zM618 1429l123 412h269l-351 -412h-41z" />
<glyph unicode="&#xdf;" horiz-adv-x="3889" d="M111 0v322h1183q86 0 86 53q0 57 -86 57h-878q-141 0 -215 80t-90 240h1433q68 0 124 -16.5t97 -48.5t63.5 -77t22.5 -100v-295q0 -156 -270 -211q-14 -2 -23.5 -3t-13.5 -1h-1433zM111 963v221q0 49 25.5 88t67.5 66.5t97 42t115 14.5h1128q63 0 118.5 -14.5t97.5 -42 t66.5 -66.5t24.5 -88v-221h-471q-6 106 -90 106h-645q-98 0 -106 -106h-428zM2057 0v322h1183q86 0 86 53q0 57 -86 57h-878q-141 0 -215 80t-90 240h1433q68 0 124 -16.5t97 -48.5t63.5 -77t22.5 -100v-295q0 -156 -270 -211q-14 -2 -23.5 -3t-13.5 -1h-1433zM2057 963v221 q0 49 25.5 88t67.5 66.5t97 42t115 14.5h1128q63 0 118.5 -14.5t97.5 -42t66.5 -66.5t24.5 -88v-221h-471q-6 106 -90 106h-645q-98 0 -106 -106h-428z" />
<glyph unicode="&#xe0;" horiz-adv-x="1933" d="M97 0l366 752h983l371 -752h-434l-209 428h-440l-209 -428h-428zM568 963l221 432h330l219 -432h-770zM643 1878h264l125 -411h-39z" />
<glyph unicode="&#xe1;" horiz-adv-x="1933" d="M97 0l366 752h983l371 -752h-434l-209 428h-440l-209 -428h-428zM568 963l221 432h330l219 -432h-770zM843 1419l123 412h269l-351 -412h-41z" />
<glyph unicode="&#xe2;" horiz-adv-x="1933" d="M97 0l366 752h983l371 -752h-434l-209 428h-440l-209 -428h-428zM568 963l221 432h330l219 -432h-770zM613 1433l223 392h219l227 -392h-37l-323 252l-273 -252h-36z" />
<glyph unicode="&#xe3;" horiz-adv-x="1933" d="M97 0l366 752h983l371 -752h-434l-209 428h-440l-209 -428h-428zM539 1544q8 307 225 307q37 0 94.5 -25.5t115.5 -57t107.5 -57.5t67.5 -26q84 0 113 166h37q0 -139 -60.5 -225t-165.5 -86q-37 0 -96 26.5t-117.5 57.5t-106.5 57.5t-65 26.5q-23 0 -40 -6t-29.5 -23.5 t-22.5 -50.5t-18 -84h-39zM568 963l221 432h330l219 -432h-770z" />
<glyph unicode="&#xe4;" horiz-adv-x="1933" d="M97 0l366 752h983l371 -752h-434l-209 428h-440l-209 -428h-428zM568 963l221 432h330l219 -432h-770zM606 1723q0 53 37 91t92 38t93 -38t38 -91q0 -55 -37.5 -92t-93.5 -37q-53 0 -91 36t-38 93zM1026 1723q0 53 38 91t91 38t91 -39t38 -90q0 -55 -38 -92t-91 -37 t-91 36t-38 93z" />
<glyph unicode="&#xe5;" horiz-adv-x="1933" d="M97 0l366 752h983l371 -752h-434l-209 428h-440l-209 -428h-428zM568 963l221 432h330l219 -432h-770zM715 1670q0 47 17.5 88t48 71.5t72.5 49t91 18.5q47 0 88 -18.5t72 -49t48.5 -71.5t17.5 -88t-17.5 -89.5t-47.5 -73t-71 -49t-90 -18.5q-98 0 -163.5 65.5 t-65.5 164.5zM797 1670q0 -61 43 -104.5t104 -43.5q57 0 100.5 43t43.5 105q0 61 -43.5 103t-100.5 42q-61 0 -104 -42t-43 -103z" />
<glyph unicode="&#xe6;" horiz-adv-x="2119" d="M76 0l364 752h1422v-324h-502v-106h657v-322h-966v428h-336l-211 -428h-428zM549 963l219 432h1229v-326h-637v-106h-811z" />
<glyph unicode="&#xe7;" horiz-adv-x="2113" d="M111 215v537h428v-320q0 -41 19.5 -63.5t57.5 -36.5l29 -10h1421v-322h-1650q-25 0 -80 14q-225 59 -225 201zM111 963v221q0 49 25.5 88t67.5 66.5t97 42t115 14.5h1343q63 0 118.5 -14.5t97.5 -42t66.5 -66.5t24.5 -88v-221h-1955zM872 -381q20 -2 34.5 -3t25.5 -1 q27 0 52.5 10.5t45.5 28t32.5 41t12.5 51.5q0 88 -102 89q-14 0 -25 -3l131 213h72l-60 -96q150 -33 150 -172q0 -49 -22.5 -88t-58.5 -67.5t-82 -44t-93 -15.5q-49 0 -113 6v51z" />
<glyph unicode="&#xe8;" horiz-adv-x="1503" d="M123 0v752h964v-324h-536v-106h882v-322h-1310zM123 963v432h1286v-326h-858v-106h-428zM514 1847h264l125 -411h-39z" />
<glyph unicode="&#xe9;" horiz-adv-x="1503" d="M123 0v752h964v-324h-536v-106h882v-322h-1310zM123 963v432h1286v-326h-858v-106h-428zM589 1427l123 412h269l-351 -412h-41z" />
<glyph unicode="&#xea;" horiz-adv-x="1503" d="M123 0v752h964v-324h-536v-106h882v-322h-1310zM123 963v432h1286v-326h-858v-106h-428zM433 1439l223 392h219l227 -392h-37l-323 252l-273 -252h-36z" />
<glyph unicode="&#xeb;" horiz-adv-x="1503" d="M123 0v752h964v-324h-536v-106h882v-322h-1310zM123 963v432h1286v-326h-858v-106h-428zM442 1733q0 53 37 91t92 38t93 -38t38 -91q0 -55 -37.5 -92t-93.5 -37q-53 0 -91 36t-38 93zM862 1733q0 53 38 91t91 38t91 -39t38 -90q0 -55 -38 -92t-91 -37t-91 36t-38 93z" />
<glyph unicode="&#xec;" horiz-adv-x="645" d="M-22 1847h264l125 -411h-39zM101 0v752h428v-752h-428zM101 963v432h428v-432h-428z" />
<glyph unicode="&#xed;" horiz-adv-x="645" d="M93 0v752h428v-752h-428zM93 963v432h428v-432h-428zM94 1427l123 412h269l-351 -412h-41z" />
<glyph unicode="&#xee;" horiz-adv-x="645" d="M0 1445l223 392h219l227 -392h-37l-323 252l-273 -252h-36zM111 0v752h428v-752h-428zM111 963v432h428v-432h-428z" />
<glyph unicode="&#xef;" horiz-adv-x="645" d="M-2 1737q0 53 37 91t92 38t93 -38t38 -91q0 -55 -37.5 -92t-93.5 -37q-53 0 -91 36t-38 93zM127 0v752h428v-752h-428zM127 963v432h428v-432h-428zM418 1737q0 53 38 91t91 38t91 -39t38 -90q0 -55 -38 -92t-91 -37t-91 36t-38 93z" />
<glyph unicode="&#xf0;" horiz-adv-x="2220" d="M143 963v432h1651q66 0 122 -15.5t97 -44t64.5 -67.5t23.5 -84v-221h-1958zM170 424v309h844v-309h-197v-102h727q20 0 43 10t41.5 25.5t30.5 35t12 39.5v320h430v-537q0 -156 -268 -211q-14 -2 -24.5 -3t-14.5 -1h-1407v424h-217z" />
<glyph unicode="&#xf1;" horiz-adv-x="1818" d="M70 0v752h428v-752h-428zM70 963v432h616l260 -432h-876zM404 1565q8 307 225 307q37 0 94.5 -25.5t115.5 -57t107.5 -57.5t67.5 -26q84 0 113 166h37q0 -139 -60.5 -225t-165.5 -86q-37 0 -96 26.5t-117.5 57.5t-106.5 57.5t-65 26.5q-23 0 -40 -6t-29.5 -23.5 t-22.5 -50.5t-18 -84h-39zM569 752h502l186 -265v265h431v-752h-693zM1257 963v432h431v-432h-431z" />
<glyph unicode="&#xf2;" d="M103 215v537h428v-320q0 -41 19.5 -63.5t57.5 -36.5l29 -10h864q20 0 43 10t42.5 25.5t31.5 36t12 38.5v320h428v-537q0 -156 -270 -211q-14 -2 -23.5 -3t-13.5 -1h-1343q-25 0 -80 14q-225 59 -225 201zM103 963v221q0 49 25.5 88t67.5 66.5t97 42t115 14.5h1343 q63 0 118.5 -14.5t97.5 -42t66.5 -66.5t24.5 -88v-221h-1955zM791 1853h264l125 -411h-39z" />
<glyph unicode="&#xf3;" d="M103 215v537h428v-320q0 -41 19.5 -63.5t57.5 -36.5l29 -10h864q20 0 43 10t42.5 25.5t31.5 36t12 38.5v320h428v-537q0 -156 -270 -211q-14 -2 -23.5 -3t-13.5 -1h-1343q-25 0 -80 14q-225 59 -225 201zM103 963v221q0 49 25.5 88t67.5 66.5t97 42t115 14.5h1343 q63 0 118.5 -14.5t97.5 -42t66.5 -66.5t24.5 -88v-221h-1955zM944 1431l123 412h269l-351 -412h-41z" />
<glyph unicode="&#xf4;" d="M103 215v537h428v-320q0 -41 19.5 -63.5t57.5 -36.5l29 -10h864q20 0 43 10t42.5 25.5t31.5 36t12 38.5v320h428v-537q0 -156 -270 -211q-14 -2 -23.5 -3t-13.5 -1h-1343q-25 0 -80 14q-225 59 -225 201zM103 963v221q0 49 25.5 88t67.5 66.5t97 42t115 14.5h1343 q63 0 118.5 -14.5t97.5 -42t66.5 -66.5t24.5 -88v-221h-1955zM699 1433l223 392h219l227 -392h-37l-323 252l-273 -252h-36z" />
<glyph unicode="&#xf5;" d="M103 215v537h428v-320q0 -41 19.5 -63.5t57.5 -36.5l29 -10h864q20 0 43 10t42.5 25.5t31.5 36t12 38.5v320h428v-537q0 -156 -270 -211q-14 -2 -23.5 -3t-13.5 -1h-1343q-25 0 -80 14q-225 59 -225 201zM103 963v221q0 49 25.5 88t67.5 66.5t97 42t115 14.5h1343 q63 0 118.5 -14.5t97.5 -42t66.5 -66.5t24.5 -88v-221h-1955zM680 1560q8 307 225 307q37 0 94.5 -25.5t115.5 -57t107.5 -57.5t67.5 -26q84 0 113 166h37q0 -139 -60.5 -225t-165.5 -86q-37 0 -96 26.5t-117.5 57.5t-106.5 57.5t-65 26.5q-23 0 -40 -6t-29.5 -23.5 t-22.5 -50.5t-18 -84h-39z" />
<glyph unicode="&#xf6;" d="M103 215v537h428v-320q0 -41 19.5 -63.5t57.5 -36.5l29 -10h864q20 0 43 10t42.5 25.5t31.5 36t12 38.5v320h428v-537q0 -156 -270 -211q-14 -2 -23.5 -3t-13.5 -1h-1343q-25 0 -80 14q-225 59 -225 201zM103 963v221q0 49 25.5 88t67.5 66.5t97 42t115 14.5h1343 q63 0 118.5 -14.5t97.5 -42t66.5 -66.5t24.5 -88v-221h-1955zM739 1737q0 53 37 91t92 38t93 -38t38 -91q0 -55 -37.5 -92t-93.5 -37q-53 0 -91 36t-38 93zM1159 1737q0 53 38 91t91 38t91 -39t38 -90q0 -55 -38 -92t-91 -37t-91 36t-38 93z" />
<glyph unicode="&#xf8;" horiz-adv-x="2181" d="M141 215v537h428v-320q0 -74 80 -100l29 -10h541l-564 641h-514v221q0 47 24.5 86t67.5 66.5t98.5 43t117.5 15.5h1343q63 0 118.5 -15.5t97.5 -43t66.5 -66.5t24.5 -86v-221h-928l492 -566q6 14 6 35v320h430v-537q0 -35 -19.5 -72t-57 -69.5t-96 -53t-134.5 -20.5 h-1343q-76 0 -133.5 20.5t-96.5 52t-58.5 69.5t-19.5 73z" />
<glyph unicode="&#xf9;" d="M97 215v537h428v-320q0 -41 19.5 -63.5t57.5 -36.5l29 -10h864q20 0 43 10t42.5 25.5t31.5 36t12 38.5v320h428v-537q0 -156 -270 -211q-14 -2 -23.5 -3t-13.5 -1h-1343q-25 0 -80 14q-225 59 -225 201zM97 963v432h428v-432h-428zM834 1863h264l125 -411h-39zM1624 963 v432h428v-432h-428z" />
<glyph unicode="&#xfa;" d="M97 215v537h428v-320q0 -41 19.5 -63.5t57.5 -36.5l29 -10h864q20 0 43 10t42.5 25.5t31.5 36t12 38.5v320h428v-537q0 -156 -270 -211q-14 -2 -23.5 -3t-13.5 -1h-1343q-25 0 -80 14q-225 59 -225 201zM97 963v432h428v-432h-428zM827 1419l123 412h269l-351 -412h-41z M1624 963v432h428v-432h-428z" />
<glyph unicode="&#xfb;" d="M97 215v537h428v-320q0 -41 19.5 -63.5t57.5 -36.5l29 -10h864q20 0 43 10t42.5 25.5t31.5 36t12 38.5v320h428v-537q0 -156 -270 -211q-14 -2 -23.5 -3t-13.5 -1h-1343q-25 0 -80 14q-225 59 -225 201zM97 963v432h428v-432h-428zM699 1433l223 392h219l227 -392h-37 l-323 252l-273 -252h-36zM1624 963v432h428v-432h-428z" />
<glyph unicode="&#xfc;" d="M97 215v537h428v-320q0 -41 19.5 -63.5t57.5 -36.5l29 -10h864q20 0 43 10t42.5 25.5t31.5 36t12 38.5v320h428v-537q0 -156 -270 -211q-14 -2 -23.5 -3t-13.5 -1h-1343q-25 0 -80 14q-225 59 -225 201zM97 963v432h428v-432h-428zM704 1729q0 53 37 91t92 38t93 -38 t38 -91q0 -55 -37.5 -92t-93.5 -37q-53 0 -91 36t-38 93zM1124 1729q0 53 38 91t91 38t91 -39t38 -90q0 -55 -38 -92t-91 -37t-91 36t-38 93zM1624 963v432h428v-432h-428z" />
<glyph unicode="&#xfd;" horiz-adv-x="1490" d="M-4 1395h563l219 -236l240 236h524l-450 -432h-646zM537 0v752h426v-752h-426zM604 1421l125 412h268l-352 -412h-41z" />
<glyph unicode="&#xff;" horiz-adv-x="1538" d="M-4 1395h563l219 -236l240 236h524l-450 -432h-646zM461 1716q0 53 37 91t92 38q53 0 91 -38t38 -91t-38 -91t-91 -38t-91 36t-38 93zM537 0v752h426v-752h-426zM881 1716q0 53 37 91t92 38q53 0 91 -39t38 -90q0 -53 -38 -91t-91 -38q-55 0 -92 36t-37 93z" />
<glyph unicode="&#x152;" horiz-adv-x="2824" d="M100 215v537h428v-320q0 -51 28 -72.5t81 -37.5h735v430h965v-324h-525v-106h871v-322h-2282h-6q-12 0 -28.5 4t-36.5 10q-229 57 -230 201zM100 963v221q0 49 26 88t68 66.5t97 42t117 14.5h2250v-326h-846v-106h-1712z" />
<glyph unicode="&#x153;" horiz-adv-x="2824" d="M100 215v537h428v-320q0 -51 28 -72.5t81 -37.5h735v430h965v-324h-525v-106h871v-322h-2282h-6q-12 0 -28.5 4t-36.5 10q-229 57 -230 201zM100 963v221q0 49 26 88t68 66.5t97 42t117 14.5h2250v-326h-846v-106h-1712z" />
<glyph unicode="&#x178;" horiz-adv-x="1538" d="M-4 1395h563l219 -236l240 236h524l-450 -432h-646zM461 1716q0 53 37 91t92 38q53 0 91 -38t38 -91t-38 -91t-91 -38t-91 36t-38 93zM537 0v752h426v-752h-426zM881 1716q0 53 37 91t92 38q53 0 91 -39t38 -90q0 -53 -38 -91t-91 -38q-55 0 -92 36t-37 93z" />
<glyph unicode="&#x2c6;" horiz-adv-x="808" d="M23 1085l223 392h219l227 -392h-37l-323 252l-273 -252h-36z" />
<glyph unicode="&#x2dc;" horiz-adv-x="831" d="M-12 1159q8 307 225 307q37 0 94.5 -25.5t115.5 -57t107.5 -57.5t67.5 -26q84 0 113 166h37q0 -139 -60.5 -225t-165.5 -86q-37 0 -96 26.5t-117.5 57.5t-106.5 57.5t-65 26.5q-23 0 -40 -6t-29.5 -23.5t-22.5 -50.5t-18 -84h-39z" />
<glyph unicode="&#x2000;" horiz-adv-x="948" />
<glyph unicode="&#x2001;" horiz-adv-x="1897" />
<glyph unicode="&#x2002;" horiz-adv-x="948" />
<glyph unicode="&#x2003;" horiz-adv-x="1897" />
<glyph unicode="&#x2004;" horiz-adv-x="632" />
<glyph unicode="&#x2005;" horiz-adv-x="474" />
<glyph unicode="&#x2006;" horiz-adv-x="316" />
<glyph unicode="&#x2007;" horiz-adv-x="316" />
<glyph unicode="&#x2008;" horiz-adv-x="237" />
<glyph unicode="&#x2009;" horiz-adv-x="379" />
<glyph unicode="&#x200a;" horiz-adv-x="105" />
<glyph unicode="&#x2010;" horiz-adv-x="964" d="M63 428v324h844v-324h-844z" />
<glyph unicode="&#x2011;" horiz-adv-x="964" d="M63 428v324h844v-324h-844z" />
<glyph unicode="&#x2012;" horiz-adv-x="964" d="M63 428v324h844v-324h-844z" />
<glyph unicode="&#x2013;" horiz-adv-x="1460" d="M63 428v324h1348v-324h-1348z" />
<glyph unicode="&#x2014;" horiz-adv-x="2181" d="M63 428v324h2065v-324h-2065z" />
<glyph unicode="&#x2018;" horiz-adv-x="587" d="M125 1395h197l124 -588h-198z" />
<glyph unicode="&#x2019;" horiz-adv-x="589" d="M125 807l123 588h201l-125 -588h-199z" />
<glyph unicode="&#x201a;" horiz-adv-x="589" d="M125 -193l123 588h201l-125 -588h-199z" />
<glyph unicode="&#x201c;" horiz-adv-x="960" d="M125 1395h197l124 -588h-198zM496 1395h198l125 -588h-201z" />
<glyph unicode="&#x201d;" horiz-adv-x="962" d="M125 807l123 588h201l-125 -588h-199zM498 807l123 588h200l-125 -588h-198z" />
<glyph unicode="&#x201e;" horiz-adv-x="962" d="M125 -193l123 588h201l-125 -588h-199zM498 -193l123 588h200l-125 -588h-198z" />
<glyph unicode="&#x2022;" horiz-adv-x="1128" d="M51 1069l373 37l137 348l150 -342l376 -25l-280 -249l92 -363l-324 191l-317 -201l80 366z" />
<glyph unicode="&#x2026;" horiz-adv-x="6821" d="M1332 -166h428v-250h-428v250zM3199 -166h428v-250h-428v250zM5065 -166h428v-250h-428v250z" />
<glyph unicode="&#x202f;" horiz-adv-x="379" />
<glyph unicode="&#x2039;" horiz-adv-x="561" d="M100 659v146l379 196v-151l-248 -115l248 -117v-145z" />
<glyph unicode="&#x203a;" horiz-adv-x="561" d="M100 473v152l248 116l-248 115v145l379 -188v-143z" />
<glyph unicode="&#x205f;" horiz-adv-x="474" />
<glyph unicode="&#x20ac;" d="M111 215v537h1564l-71 -111h-1065v-82h1013l-63 -100h-950v-27q0 -72 77 -100l29 -10h1421v-322h-1650q-74 0 -131.5 20.5t-96 52t-58 69.5t-19.5 73zM111 963v221q0 47 24.5 86t66.5 66.5t97 43t117 15.5h1665l-273 -432h-1697z" />
<glyph unicode="&#x2122;" horiz-adv-x="1368" d="M104 1180v131h486v-131h-168v-543h-143v543h-175zM651 639v674h162l131 -348l125 348h160v-674h-137v371l-146 -377l-162 391v-385h-133z" />
<glyph unicode="&#x25fc;" horiz-adv-x="1392" d="M0 0v1393h1393v-1393h-1393z" />
</font>
</defs>
</svg>
