<?xml version="1.0" encoding="utf-8"?>
<!-- Generator: Adobe Illustrator 16.2.0, SVG Export Plug-In . SVG Version: 6.00 Build 0)  -->
<!DOCTYPE svg PUBLIC "-//W3C//DTD SVG 1.1//EN" "http://www.w3.org/Graphics/SVG/1.1/DTD/svg11.dtd">
<svg version="1.1" id="Layer_1" xmlns="http://www.w3.org/2000/svg" xmlns:xlink="http://www.w3.org/1999/xlink" x="0px" y="0px"
	 width="450px" height="180px" viewBox="0 0 450 180" enable-background="new 0 0 450 180" xml:space="preserve">
<ellipse opacity="0.3" fill="none" stroke="#000000" stroke-width="2.2979" stroke-miterlimit="10" cx="78.76" cy="89.357" rx="22.2" ry="82.607"/>
<path opacity="0.3" fill="none" stroke="#000000" stroke-width="2.2979" stroke-miterlimit="10" d="M89.859,70.13
	c39.511,22.812,66.571,49.911,60.44,60.53c-6.133,10.618-43.13,0.733-82.64-22.076C28.148,85.771,1.09,58.672,7.221,48.053
	C13.351,37.435,50.349,47.32,89.859,70.13z"/>
<ellipse transform="matrix(-0.5 -0.866 0.866 -0.5 40.7493 202.2414)" opacity="0.3" fill="none" stroke="#000000" stroke-width="2.2979" stroke-miterlimit="10" cx="78.759" cy="89.357" rx="22.201" ry="82.608"/>
<circle opacity="0.3" cx="78.33" cy="88.928" r="12.821"/>
<circle fill="#003FDB" cx="19.594" cy="43.801" r="5.859"/>
<rect x="110" y="61" fill="#FFFFFF" width="54" height="90"/>
<g>
	<path stroke="#FFFFFF" stroke-width="4.5957" stroke-miterlimit="10" d="M124.82,35.118l-4.631,2.465
		c-0.731-1.478-1.636-2.216-2.714-2.216c-0.515,0-0.955,0.17-1.32,0.51c-0.366,0.34-0.548,0.775-0.548,1.306
		c0,0.929,1.079,1.849,3.237,2.761c2.971,1.277,4.972,2.454,6.001,3.532c1.029,1.078,1.544,2.529,1.544,4.353
		c0,2.338-0.863,4.295-2.589,5.87c-1.677,1.492-3.703,2.238-6.076,2.238c-4.068,0-6.948-1.983-8.641-5.952l4.781-2.216
		c0.664,1.162,1.17,1.901,1.519,2.216c0.68,0.631,1.494,0.946,2.44,0.946c1.893,0,2.839-0.863,2.839-2.59
		c0-0.996-0.731-1.925-2.191-2.789c-0.565-0.282-1.129-0.556-1.693-0.822c-0.565-0.265-1.138-0.539-1.718-0.822
		c-1.627-0.797-2.773-1.594-3.437-2.391c-0.847-1.012-1.27-2.316-1.27-3.909c0-2.108,0.722-3.852,2.167-5.229
		c1.478-1.378,3.27-2.067,5.379-2.067C121.001,30.312,123.309,31.914,124.82,35.118z"/>
	<path stroke="#FFFFFF" stroke-width="4.5957" stroke-miterlimit="10" d="M166.033,32.03v7.445c-1.278-1.56-2.424-2.631-3.437-3.212
		c-0.996-0.598-2.166-0.896-3.511-0.896c-2.109,0-3.86,0.739-5.254,2.216s-2.092,3.329-2.092,5.553c0,2.275,0.672,4.143,2.017,5.603
		c1.361,1.461,3.096,2.191,5.205,2.191c1.345,0,2.531-0.29,3.561-0.872c0.996-0.564,2.167-1.66,3.511-3.287v7.396
		c-2.274,1.179-4.549,1.768-6.823,1.768c-3.752,0-6.89-1.211-9.413-3.636c-2.524-2.44-3.785-5.47-3.785-9.089
		c0-3.619,1.278-6.673,3.835-9.164c2.556-2.49,5.694-3.735,9.413-3.735C161.65,30.312,163.908,30.884,166.033,32.03z"/>
	<path stroke="#FFFFFF" stroke-width="4.5957" stroke-miterlimit="10" d="M186.353,20.898c0-0.979,0.357-1.826,1.071-2.54
		c0.713-0.713,1.569-1.071,2.565-1.071c1.012,0,1.876,0.357,2.59,1.071c0.713,0.697,1.071,1.553,1.071,2.565
		c0,1.013-0.357,1.876-1.071,2.59c-0.697,0.714-1.553,1.071-2.565,1.071c-1.013,0-1.876-0.357-2.59-1.071
		C186.71,22.799,186.353,21.928,186.353,20.898z M192.803,30.984v24.254H187.2V30.984H192.803z"/>
	<path stroke="#FFFFFF" stroke-width="4.5957" stroke-miterlimit="10" d="M237.726,44.431h-17.382
		c0.149,1.992,0.797,3.578,1.942,4.756c1.146,1.162,2.615,1.743,4.408,1.743c1.395,0,2.548-0.332,3.461-0.996
		c0.896-0.664,1.918-1.893,3.063-3.686l4.731,2.64c-0.731,1.245-1.503,2.312-2.316,3.2s-1.685,1.619-2.614,2.191
		c-0.931,0.573-1.935,0.992-3.014,1.257c-1.079,0.265-2.249,0.398-3.511,0.398c-3.619,0-6.524-1.162-8.716-3.486
		c-2.191-2.341-3.287-5.445-3.287-9.313c0-3.835,1.062-6.939,3.188-9.313c2.142-2.341,4.98-3.511,8.517-3.511
		c3.569,0,6.391,1.137,8.467,3.412c2.058,2.258,3.088,5.387,3.088,9.388L237.726,44.431z M231.974,39.849
		c-0.781-2.988-2.665-4.482-5.653-4.482c-0.681,0-1.319,0.104-1.917,0.311c-0.598,0.208-1.142,0.507-1.631,0.896
		c-0.49,0.39-0.909,0.859-1.258,1.407c-0.349,0.548-0.614,1.17-0.797,1.868H231.974z"/>
	<path stroke="#FFFFFF" stroke-width="4.5957" stroke-miterlimit="10" d="M259.59,30.984h5.628v2.241
		c1.959-1.942,4.167-2.914,6.624-2.914c2.822,0,5.021,0.888,6.599,2.665c1.361,1.511,2.042,3.976,2.042,7.396v14.867h-5.628v-13.53
		c0-2.387-0.332-4.037-0.996-4.949c-0.647-0.928-1.826-1.393-3.536-1.393c-1.859,0-3.179,0.613-3.959,1.84
		c-0.764,1.21-1.146,3.324-1.146,6.342v11.689h-5.628V30.984z"/>
	<path stroke="#FFFFFF" stroke-width="4.5957" stroke-miterlimit="10" d="M322.169,32.03v7.445c-1.279-1.56-2.425-2.631-3.437-3.212
		c-0.996-0.598-2.167-0.896-3.512-0.896c-2.108,0-3.859,0.739-5.254,2.216s-2.092,3.329-2.092,5.553
		c0,2.275,0.672,4.143,2.017,5.603c1.361,1.461,3.097,2.191,5.205,2.191c1.345,0,2.531-0.29,3.561-0.872
		c0.996-0.564,2.167-1.66,3.512-3.287v7.396c-2.275,1.179-4.549,1.768-6.823,1.768c-3.752,0-6.89-1.211-9.413-3.636
		c-2.523-2.44-3.785-5.47-3.785-9.089c0-3.619,1.278-6.673,3.835-9.164s5.694-3.735,9.413-3.735
		C317.786,30.312,320.043,30.884,322.169,32.03z"/>
	<path stroke="#FFFFFF" stroke-width="4.5957" stroke-miterlimit="10" d="M365.424,44.431h-17.382
		c0.149,1.992,0.797,3.578,1.942,4.756c1.146,1.162,2.615,1.743,4.408,1.743c1.395,0,2.548-0.332,3.461-0.996
		c0.896-0.664,1.918-1.893,3.063-3.686l4.731,2.64c-0.731,1.245-1.503,2.312-2.316,3.2s-1.685,1.619-2.614,2.191
		c-0.931,0.573-1.935,0.992-3.014,1.257c-1.079,0.265-2.249,0.398-3.511,0.398c-3.619,0-6.524-1.162-8.716-3.486
		c-2.191-2.341-3.287-5.445-3.287-9.313c0-3.835,1.062-6.939,3.188-9.313c2.142-2.341,4.98-3.511,8.517-3.511
		c3.569,0,6.391,1.137,8.467,3.412c2.058,2.258,3.088,5.387,3.088,9.388L365.424,44.431z M359.672,39.849
		c-0.781-2.988-2.665-4.482-5.653-4.482c-0.681,0-1.319,0.104-1.917,0.311c-0.598,0.208-1.142,0.507-1.631,0.896
		c-0.49,0.39-0.909,0.859-1.258,1.407c-0.349,0.548-0.614,1.17-0.797,1.868H359.672z"/>
	<path stroke="#FFFFFF" stroke-width="4.5957" stroke-miterlimit="10" d="M388.159,33.723c0-0.913,0.341-1.71,1.021-2.391
		s1.494-1.021,2.44-1.021s1.76,0.34,2.44,1.021s1.021,1.494,1.021,2.44c0,0.963-0.34,1.785-1.021,2.465
		c-0.664,0.664-1.478,0.996-2.44,0.996s-1.785-0.34-2.466-1.021C388.491,35.549,388.159,34.719,388.159,33.723z M388.159,52.449
		c0-0.93,0.341-1.734,1.021-2.416c0.681-0.681,1.494-1.021,2.44-1.021s1.76,0.34,2.44,1.021c0.681,0.681,1.021,1.494,1.021,2.44
		c0,0.963-0.34,1.785-1.021,2.465c-0.664,0.664-1.478,0.996-2.44,0.996c-0.979,0-1.802-0.333-2.466-0.996
		S388.159,53.445,388.159,52.449z"/>
</g>
<g>
	<path fill="#003FDB" stroke="#FFFFFF" stroke-width="8.5851" stroke-miterlimit="10" d="M136.876,113.03l0.121-2.899
		c0-1.529-0.042-3.059-0.121-4.59h0.363c0.241,0,0.362,0.081,0.362,0.242c1.045-1.046,4.388-1.57,10.026-1.57l15.582,0.725
		l1.45,0.121c0,0.404,0.079,1.168,0.242,2.295l2.174,0.121c0.725,8.135,1.087,14.193,1.087,18.18c0,3.985-0.323,7.47-0.966,10.448
		c-1.289,12.079-10.792,18.119-28.507,18.119c-7.972,0-14.355-2.859-19.146-8.576c-4.792-5.717-7.188-12.763-7.188-21.139
		c-0.806-6.765-1.208-14.273-1.208-22.528c0-8.253,0.281-14.031,0.845-17.334c2.253-14.655,10.911-21.984,25.971-21.984
		c8.214,0,15.16,2.458,20.837,7.369c5.677,4.913,8.516,11.275,8.516,19.085v2.054c0,1.854-0.202,2.899-0.604,3.141
		c-0.404,0.242-0.766,0.443-1.087,0.604c-0.483,0.323-1.208,0.483-2.174,0.483h-4.59c-4.027,0-7.126-0.16-9.301-0.483
		c-0.081-0.079-0.163-0.381-0.242-0.906c-0.081-0.523-0.262-0.865-0.543-1.027c-0.283-0.161-0.827-0.321-1.631-0.483
		c-1.128-3.703-2.135-5.798-3.02-6.281c-1.612-0.885-2.899-1.329-3.866-1.329h-2.174c-0.404,0-0.685,0.042-0.845,0.121
		c-0.163,0.082-0.344,0.163-0.544,0.242c-0.202,0.081-0.343,0.181-0.422,0.302c-0.082,0.121-0.202,0.283-0.363,0.483
		c-0.162,0.202-0.283,0.423-0.362,0.665c-0.323,0.966-0.564,1.651-0.725,2.053c-1.531,5.073-2.295,12.483-2.295,22.226v7.127
		c0,5.96,0.804,10.268,2.416,12.925l1.329,0.362c0.321,0.081,1.166,0.121,2.537,0.121c1.368,0,2.718-0.303,4.046-0.906
		s2.235-1.329,2.718-2.174c0.483-0.846,0.925-2.477,1.329-4.893h-2.295c-2.014,0-3.584-0.2-4.711-0.604
		c-0.081-0.967-0.283-1.55-0.604-1.752c-0.323-0.2-0.664-0.342-1.027-0.423c-0.362-0.079-0.625-0.16-0.785-0.241
		C137.076,117.701,136.876,115.204,136.876,113.03z M147.385,105.42c-4.752,0-7.852,0.483-9.301,1.45v0.121
		c0.161,0.887,0.242,2.497,0.242,4.832v3.382c0,2.174,0.079,3.666,0.242,4.47c0.242,0.162,1.045,0.241,2.416,0.241l4.832-0.12
		c0.321,0,0.683,0,1.087,0c0.725,0,1.087,0.725,1.087,2.174c0,4.43-0.927,7.329-2.778,8.697c-1.854,1.37-3.926,2.054-6.221,2.054
		c-2.295,0-3.967-0.303-5.013-0.906c-1.047-0.604-1.893-1.55-2.537-2.839c-0.646-1.287-1.168-2.455-1.57-3.503
		c-0.725-2.254-1.087-5.877-1.087-10.871l0.121-6.04c0-5.877,0.321-11.373,0.966-16.488c0.644-5.113,1.489-8.193,2.537-9.241
		c1.046-1.045,2.537-1.57,4.469-1.57l3.02,0.121c3.542,0,6.281,3.342,8.214,10.026c2.495,0.323,5.596,0.483,9.301,0.483
		c3.703,0,5.677-0.2,5.919-0.604c0.241-1.449,0.362-2.978,0.362-4.59c0-7.248-2.416-12.865-7.248-16.851
		c-4.832-3.986-11.013-5.979-18.542-5.979c-7.531,0-13.227,1.612-17.092,4.832c-2.899,2.014-4.952,5.034-6.16,9.06
		c-1.208,4.188-1.893,7.852-2.054,10.992c-0.242,4.349-0.362,7.41-0.362,9.181l0.121,7.006v6.764c0,7.169,0.483,12.967,1.45,17.395
		c0.966,4.43,1.831,7.389,2.597,8.878c0.764,1.491,1.751,3.141,2.959,4.953c1.208,1.812,2.616,3.2,4.228,4.167
		c3.784,2.335,8.012,3.503,12.684,3.503c16.911,0,26.01-5.677,27.299-17.032c0.644-2.978,0.966-6.662,0.966-11.052
		c0-4.389-0.323-9.804-0.966-16.247l-0.362-0.121L147.385,105.42z"/>
	<path fill="#003FDB" stroke="#FFFFFF" stroke-width="8.5851" stroke-miterlimit="10" d="M201.742,64.833l1.812-0.242
		c0,0.242,3.383,14.858,10.146,43.848l9.302,43.606c-3.222,0.562-6.242,0.846-9.06,0.846c-2.82,0-6-0.403-9.543-1.208
		c-0.081-0.322-0.181-0.585-0.302-0.785c-0.121-0.201-0.202-0.383-0.242-0.543c-0.041-0.163-0.12-0.283-0.241-0.362
		c-0.121-0.081-0.202-0.163-0.241-0.242c-0.042-0.081-0.121-0.142-0.242-0.181c-0.12-0.042-0.223-0.103-0.302-0.182
		c-0.241-0.081-0.524-0.121-0.846-0.121c-0.725-2.174-1.47-4.851-2.234-8.032c-0.767-3.181-1.389-5.536-1.873-7.066
		c-0.483-1.529-1.008-2.295-1.57-2.295l-3.382,0.12c-0.404,1.129-1.068,4.168-1.993,9.12c-0.927,4.953-2.074,8.637-3.443,11.053
		l-2.657,0.241c-0.242,0-3.826-0.081-10.75-0.241l-6.402-0.121l0.362-2.415h-2.778l1.691-8.939
		c5.557-31.647,11.354-57.537,17.394-77.67c0.804-0.16,1.973-0.241,3.503-0.241l1.691,0.121c2.334,0,6.2-0.242,11.597-0.725
		C201.459,63.625,201.661,64.513,201.742,64.833z M189.663,128.371l3.503-0.121h1.57c0.161,0,0.966,0.081,2.416,0.241
		c0.804,1.691,1.812,5.014,3.02,9.966s2.093,8.195,2.657,9.724h0.121c3.141,0.725,6.079,1.087,8.817,1.087
		c2.737,0,5.194-0.201,7.369-0.604v-0.121l-9.06-42.277c-0.726-3.06-4.028-17.313-9.905-42.761
		c-3.545,0.323-7.048,0.483-10.509,0.483h-2.537c-0.966,0-1.57,0.042-1.812,0.121c-3.382,11.436-6.522,23.838-9.422,37.204
		c-2.899,13.369-5.115,24.521-6.644,33.459c-1.531,8.939-2.336,13.489-2.416,13.65c0.079,0.081,0.16,0.12,0.241,0.12h2.899
		l12.441,0.242c0.804,0,1.45-0.081,1.933-0.242c1.046-1.852,2.033-5.294,2.959-10.327
		C188.232,133.184,189.017,129.901,189.663,128.371z M197.756,114.117l-6.04,0.121c-0.404,0-0.906-0.019-1.51-0.06
		c-0.604-0.04-1.068-0.061-1.389-0.061c0.321-2.174,0.664-4.79,1.026-7.852c0.362-3.06,0.665-5.436,0.906-7.127
		c0.241-1.691,0.483-3.461,0.725-5.315c0.562-3.301,1.127-4.952,1.691-4.952C194.132,88.872,195.661,97.287,197.756,114.117z
		 M194.736,99.139c-0.081,0.564-0.725,5.155-1.933,13.771h3.503c-0.241-2.174-0.543-4.811-0.906-7.912
		C195.038,101.898,194.815,99.945,194.736,99.139z"/>
	<path fill="#003FDB" stroke="#FFFFFF" stroke-width="8.5851" stroke-miterlimit="10" d="M277.841,76.067l0.241,25.487
		c0,5.798-0.081,9.542-0.241,11.234l-0.363,39.741c-2.255-0.322-4.831-0.483-7.73-0.483l-10.63,0.242
		c-0.081-0.564-0.12-1.41-0.12-2.537l-2.296,0.121c-0.241-4.268-0.383-10.751-0.423-19.448c-0.041-8.696-0.102-14.374-0.181-17.031
		c-0.564,1.37-0.927,2.336-1.087,2.899c-0.163,0.564-0.362,1.128-0.604,1.691c-0.241,0.564-0.443,1.027-0.604,1.39
		c-0.162,0.362-0.344,0.745-0.544,1.147c-0.202,0.403-0.383,0.745-0.543,1.026c-0.163,0.283-0.363,0.544-0.604,0.785
		c-0.404,0.404-0.806,0.604-1.208,0.604c-0.646,0-1.449-0.805-2.416-2.416c-1.208-0.079-2.657-2.133-4.349-6.161
		c-0.081,1.933-0.12,5.598-0.12,10.992c0,5.396,0.401,14.214,1.208,26.454c-3.141,0.483-6.483,0.725-10.026,0.725l-3.624,0.121
		c-4.269,0-6.401-0.927-6.401-2.778h-0.604c-0.646,0-1.147-0.404-1.51-1.208s-0.544-9.784-0.544-26.937
		c0-17.153,0.121-36.076,0.363-56.773c2.174-0.725,4.629-1.087,7.368-1.087l7.368,0.242c1.449,0,2.616-0.04,3.503-0.121
		c0.562,0.806,1.127,1.652,1.691,2.537l0.725-0.121c1.208,1.37,2.193,3.041,2.959,5.013c0.765,1.974,1.429,3.805,1.993,5.496
		c0.562,1.691,0.967,2.819,1.208,3.382c1.771-7.81,3.865-13.366,6.281-16.669c1.127,0.163,2.094,0.242,2.899,0.242l16.669-0.604
		l-0.12,2.416h2.536C277.88,67.693,277.841,71.156,277.841,76.067z M257.909,148.664l7.61-0.121h4.349
		c0.885,0,2.214,0.081,3.986,0.242l0.362-38.533c0.16-1.771,0.241-5.717,0.241-11.838l-0.241-24.763c0-4.107,0.039-7.167,0.12-9.18
		l-15.944,0.604c-1.129,0-1.772-0.04-1.933-0.121c-1.208,1.612-2.639,5.175-4.288,10.69c-1.651,5.517-2.597,8.235-2.839,8.154
		c-0.564,0-1.389-1.329-2.477-3.986c-1.087-2.658-2.234-5.557-3.442-8.697s-2.135-5.113-2.778-5.919h-0.12
		c-0.888,0.082-2.296,0.121-4.229,0.121l-4.349-0.121h-1.933c-2.657,0-4.631,0.202-5.919,0.604
		c-0.241,20.616-0.362,39.581-0.362,56.894c0,17.315,0.281,25.971,0.846,25.971l9.06,0.121c3.06,0,5.678-0.161,7.852-0.483
		c-0.725-11.032-1.087-19.931-1.087-26.695s0.241-13.125,0.725-19.085l0.362,1.208c0.16,0.404,0.502,1.37,1.027,2.899
		c0.522,1.531,1.026,2.92,1.51,4.167c0.482,1.25,1.006,2.597,1.57,4.046c1.368,2.98,2.374,4.47,3.02,4.47
		c0.562,0,1.852-2.718,3.865-8.154c2.012-5.436,3.262-8.595,3.745-9.482c0.644,5.315,1.066,14.114,1.268,26.393
		C257.687,140.35,257.828,147.215,257.909,148.664z"/>
	<path fill="#003FDB" stroke="#FFFFFF" stroke-width="8.5851" stroke-miterlimit="10" d="M336.424,132.357l0.121,1.087
		c0.967,0,1.73-0.04,2.295-0.121v1.449c0.161,2.416,0.242,4.913,0.242,7.489c0,2.578-0.483,5.799-1.45,9.664l-31.647,0.362
		c-7.168,0-13.852-0.242-20.052-0.725v-2.296l-2.416-0.12l-0.725-53.512c0-10.146,0.321-20.614,0.967-31.406
		c15.058-0.725,29.15-1.087,42.277-1.087c6.36,0,9.703,0.483,10.025,1.449c0,0.806,0.402,1.389,1.208,1.751
		c0.805,0.363,1.208,0.585,1.208,0.665c0.321,1.854,0.483,3.947,0.483,6.281l-0.483,12.08c-4.106,0.966-9.301,1.449-15.582,1.449
		h-4.349l-4.711-0.121c-2.416,0-4.913,0.121-7.489,0.362l-0.362,8.697v1.087l2.174,0.121l4.711-0.121
		c0.402,0,2.416,0.121,6.04,0.362c0,1.531,0.362,2.295,1.087,2.295l1.329,0.121c0.402,2.095,0.604,4.55,0.604,7.368l-0.241,11.476
		c-2.256,0.646-5.175,0.987-8.758,1.026c-3.584,0.042-5.577,0.103-5.979,0.182c-0.242,1.208-0.363,3.04-0.363,5.496
		c0,2.457,0.04,4.209,0.121,5.254c9.664,0.483,16.387,0.726,20.173,0.726c3.784,0,6.964-0.08,9.542-0.242V132.357z M302.24,148.664
		l32.01-0.362c0.804-3.141,1.208-5.959,1.208-8.456c0-2.495-0.081-4.952-0.241-7.368v-0.241c-1.208,0.081-2.941,0.121-5.194,0.121
		l-26.454-0.726l-0.121-0.12c-0.322-2.013-0.482-4.609-0.482-7.791c0-3.181,0.16-5.617,0.482-7.309
		c0.483-0.402,2.637-0.604,6.463-0.604c3.824,0,6.542-0.241,8.153-0.725l0.121-10.509c0-2.818-0.121-4.911-0.362-6.281v-0.121
		c-5.557,0-10.509-0.121-14.857-0.362l-0.121-0.121c-0.323-1.208-0.483-2.737-0.483-4.59l0.362-9.542
		c0.967-0.242,3.824-0.362,8.576-0.362h9.543c5.878,0,10.549-0.402,14.012-1.208v-0.121l0.363-11.475
		c0-1.852-0.121-3.745-0.363-5.677c0-0.242-4.61-0.362-13.83-0.362c-9.222,0-21.28,0.362-36.178,1.087
		c-0.483,7.812-0.725,17.476-0.725,28.99l0.604,53.633C289.476,148.464,295.313,148.664,302.24,148.664z"/>
	<path fill="#003FDB" stroke="#FFFFFF" stroke-width="8.5851" stroke-miterlimit="10" d="M345.119,149.631l-2.053,0.12
		c-1.45-10.549-2.175-24.038-2.175-40.465l0.241-31.89c0-5.234-0.021-8.535-0.06-9.905c-0.042-1.369-0.021-2.154,0.06-2.355
		c0.08-0.2,0.363-0.544,0.846-1.027c3.462-0.966,8.094-1.45,13.892-1.45l11.233,0.242c2.094,0,3.664-0.04,4.711-0.121
		c3.22,0.966,6.402,2.718,9.543,5.254s5.476,5.175,7.006,7.912h-0.121c3.462,5.235,5.959,11.275,7.489,18.119l-0.12-0.121
		c0.644,1.933,1.045,4.631,1.208,8.093c-0.082,1.449-0.163,3.826-0.242,7.126c-0.322,6.846-0.806,11.958-1.449,15.341
		c-2.98,8.455-8.335,17.515-16.065,27.178c-2.657,0.079-13.852,0.242-33.581,0.483L345.119,149.631z M371.694,63.988l-3.503,0.121
		l-11.959-0.242c-5.557,0-10.107,0.443-13.649,1.329c-0.242,0.242-0.362,0.404-0.362,0.483c0.079,2.578,0.12,6.443,0.12,11.596
		l-0.241,32.493c0,16.67,0.684,29.595,2.054,38.774l0.12-0.12c14.092,0,24.682-0.121,31.77-0.362
		c7.73-9.743,12.843-18.28,15.34-25.608l0.121-0.242c0.725-3.784,1.167-8.213,1.329-13.287c0.16-5.073,0.281-8.214,0.362-9.421
		c-0.483-9.018-3.262-17.474-8.335-25.367c-1.449-2.416-3.363-4.549-5.737-6.402C376.746,65.881,374.271,64.633,371.694,63.988z
		 M359.373,113.271l0.241-15.34c0-1.852-0.081-4.307-0.241-7.369V90.08h0.362c1.449-0.242,2.979-0.363,4.59-0.363
		c3.302,0,5.979,1.008,8.033,3.02c2.054,2.014,3.361,4.209,3.926,6.583c0.562,2.376,0.846,5.194,0.846,8.456
		c0,3.262-1.129,6.665-3.383,10.207c-2.095,3.062-3.985,4.59-5.677,4.59h-0.242c-1.37,0.242-2.88,0.363-4.529,0.363
		c-1.651,0-2.88-0.363-3.685-1.088C359.452,118.145,359.373,115.286,359.373,113.271z M362.876,119.795l0.121,1.933h0.604
		c0.242,0,1.046-0.061,2.416-0.182c1.368-0.121,2.054-0.16,2.054-0.121c0,0.042,0.079,0.061,0.241,0.061
		c0.16,0,0.562-0.241,1.208-0.725h-0.121c1.208-0.725,2.335-1.891,3.383-3.503v0.121c2.093-3.141,3.141-6.744,3.141-10.811
		c0-4.066-1.208-8.193-3.624-12.381l-1.208-0.604c-1.933-0.161-3.321-0.242-4.167-0.242s-2.155,0.081-3.926,0.242
		c0.16,3.061,0.241,5.598,0.241,7.61L362.876,119.795z"/>
</g>
<g>
	<path d="M124.82,35.118l-4.631,2.465c-0.731-1.478-1.636-2.216-2.714-2.216c-0.515,0-0.955,0.17-1.32,0.51
		c-0.366,0.34-0.548,0.775-0.548,1.306c0,0.929,1.079,1.849,3.237,2.761c2.971,1.277,4.972,2.454,6.001,3.532
		c1.029,1.078,1.544,2.529,1.544,4.353c0,2.338-0.863,4.295-2.589,5.87c-1.677,1.492-3.703,2.238-6.076,2.238
		c-4.068,0-6.948-1.983-8.641-5.952l4.781-2.216c0.664,1.162,1.17,1.901,1.519,2.216c0.68,0.631,1.494,0.946,2.44,0.946
		c1.893,0,2.839-0.863,2.839-2.59c0-0.996-0.731-1.925-2.191-2.789c-0.565-0.282-1.129-0.556-1.693-0.822
		c-0.565-0.265-1.138-0.539-1.718-0.822c-1.627-0.797-2.773-1.594-3.437-2.391c-0.847-1.012-1.27-2.316-1.27-3.909
		c0-2.108,0.722-3.852,2.167-5.229c1.478-1.378,3.27-2.067,5.379-2.067C121.001,30.312,123.309,31.914,124.82,35.118z"/>
	<path d="M166.033,32.03v7.445c-1.278-1.56-2.424-2.631-3.437-3.212c-0.996-0.598-2.166-0.896-3.511-0.896
		c-2.109,0-3.86,0.739-5.254,2.216s-2.092,3.329-2.092,5.553c0,2.275,0.672,4.143,2.017,5.603c1.361,1.461,3.096,2.191,5.205,2.191
		c1.345,0,2.531-0.29,3.561-0.872c0.996-0.564,2.167-1.66,3.511-3.287v7.396c-2.274,1.179-4.549,1.768-6.823,1.768
		c-3.752,0-6.89-1.211-9.413-3.636c-2.524-2.44-3.785-5.47-3.785-9.089c0-3.619,1.278-6.673,3.835-9.164
		c2.556-2.49,5.694-3.735,9.413-3.735C161.65,30.312,163.908,30.884,166.033,32.03z"/>
	<path d="M186.353,20.898c0-0.979,0.357-1.826,1.071-2.54c0.713-0.713,1.569-1.071,2.565-1.071c1.012,0,1.876,0.357,2.59,1.071
		c0.713,0.697,1.071,1.553,1.071,2.565c0,1.013-0.357,1.876-1.071,2.59c-0.697,0.714-1.553,1.071-2.565,1.071
		c-1.013,0-1.876-0.357-2.59-1.071C186.71,22.799,186.353,21.928,186.353,20.898z M192.803,30.984v24.254H187.2V30.984H192.803z"/>
	<path d="M237.726,44.431h-17.382c0.149,1.992,0.797,3.578,1.942,4.756c1.146,1.162,2.615,1.743,4.408,1.743
		c1.395,0,2.548-0.332,3.461-0.996c0.896-0.664,1.918-1.893,3.063-3.686l4.731,2.64c-0.731,1.245-1.503,2.312-2.316,3.2
		s-1.685,1.619-2.614,2.191c-0.931,0.573-1.935,0.992-3.014,1.257c-1.079,0.265-2.249,0.398-3.511,0.398
		c-3.619,0-6.524-1.162-8.716-3.486c-2.191-2.341-3.287-5.445-3.287-9.313c0-3.835,1.062-6.939,3.188-9.313
		c2.142-2.341,4.98-3.511,8.517-3.511c3.569,0,6.391,1.137,8.467,3.412c2.058,2.258,3.088,5.387,3.088,9.388L237.726,44.431z
		 M231.974,39.849c-0.781-2.988-2.665-4.482-5.653-4.482c-0.681,0-1.319,0.104-1.917,0.311c-0.598,0.208-1.142,0.507-1.631,0.896
		c-0.49,0.39-0.909,0.859-1.258,1.407c-0.349,0.548-0.614,1.17-0.797,1.868H231.974z"/>
	<path d="M259.59,30.984h5.628v2.241c1.959-1.942,4.167-2.914,6.624-2.914c2.822,0,5.021,0.888,6.599,2.665
		c1.361,1.511,2.042,3.976,2.042,7.396v14.867h-5.628v-13.53c0-2.387-0.332-4.037-0.996-4.949c-0.647-0.928-1.826-1.393-3.536-1.393
		c-1.859,0-3.179,0.613-3.959,1.84c-0.764,1.21-1.146,3.324-1.146,6.342v11.689h-5.628V30.984z"/>
	<path d="M322.169,32.03v7.445c-1.279-1.56-2.425-2.631-3.437-3.212c-0.996-0.598-2.167-0.896-3.512-0.896
		c-2.108,0-3.859,0.739-5.254,2.216s-2.092,3.329-2.092,5.553c0,2.275,0.672,4.143,2.017,5.603c1.361,1.461,3.097,2.191,5.205,2.191
		c1.345,0,2.531-0.29,3.561-0.872c0.996-0.564,2.167-1.66,3.512-3.287v7.396c-2.275,1.179-4.549,1.768-6.823,1.768
		c-3.752,0-6.89-1.211-9.413-3.636c-2.523-2.44-3.785-5.47-3.785-9.089c0-3.619,1.278-6.673,3.835-9.164s5.694-3.735,9.413-3.735
		C317.786,30.312,320.043,30.884,322.169,32.03z"/>
	<path d="M365.424,44.431h-17.382c0.149,1.992,0.797,3.578,1.942,4.756c1.146,1.162,2.615,1.743,4.408,1.743
		c1.395,0,2.548-0.332,3.461-0.996c0.896-0.664,1.918-1.893,3.063-3.686l4.731,2.64c-0.731,1.245-1.503,2.312-2.316,3.2
		s-1.685,1.619-2.614,2.191c-0.931,0.573-1.935,0.992-3.014,1.257c-1.079,0.265-2.249,0.398-3.511,0.398
		c-3.619,0-6.524-1.162-8.716-3.486c-2.191-2.341-3.287-5.445-3.287-9.313c0-3.835,1.062-6.939,3.188-9.313
		c2.142-2.341,4.98-3.511,8.517-3.511c3.569,0,6.391,1.137,8.467,3.412c2.058,2.258,3.088,5.387,3.088,9.388L365.424,44.431z
		 M359.672,39.849c-0.781-2.988-2.665-4.482-5.653-4.482c-0.681,0-1.319,0.104-1.917,0.311c-0.598,0.208-1.142,0.507-1.631,0.896
		c-0.49,0.39-0.909,0.859-1.258,1.407c-0.349,0.548-0.614,1.17-0.797,1.868H359.672z"/>
	<path d="M388.159,33.723c0-0.913,0.341-1.71,1.021-2.391s1.494-1.021,2.44-1.021s1.76,0.34,2.44,1.021s1.021,1.494,1.021,2.44
		c0,0.963-0.34,1.785-1.021,2.465c-0.664,0.664-1.478,0.996-2.44,0.996s-1.785-0.34-2.466-1.021
		C388.491,35.549,388.159,34.719,388.159,33.723z M388.159,52.449c0-0.93,0.341-1.734,1.021-2.416
		c0.681-0.681,1.494-1.021,2.44-1.021s1.76,0.34,2.44,1.021c0.681,0.681,1.021,1.494,1.021,2.44c0,0.963-0.34,1.785-1.021,2.465
		c-0.664,0.664-1.478,0.996-2.44,0.996c-0.979,0-1.802-0.333-2.466-0.996S388.159,53.445,388.159,52.449z"/>
</g>
<g>
	<path fill="#003FDB" d="M136.876,113.03l0.121-2.899c0-1.529-0.042-3.059-0.121-4.59h0.363c0.241,0,0.362,0.081,0.362,0.242
		c1.045-1.046,4.388-1.57,10.026-1.57l15.582,0.725l1.45,0.121c0,0.404,0.079,1.168,0.242,2.295l2.174,0.121
		c0.725,8.135,1.087,14.193,1.087,18.18c0,3.985-0.323,7.47-0.966,10.448c-1.289,12.079-10.792,18.119-28.507,18.119
		c-7.972,0-14.355-2.859-19.146-8.576c-4.792-5.717-7.188-12.763-7.188-21.139c-0.806-6.765-1.208-14.273-1.208-22.528
		c0-8.253,0.281-14.031,0.845-17.334c2.253-14.655,10.911-21.984,25.971-21.984c8.214,0,15.16,2.458,20.837,7.369
		c5.677,4.913,8.516,11.275,8.516,19.085v2.054c0,1.854-0.202,2.899-0.604,3.141c-0.404,0.242-0.766,0.443-1.087,0.604
		c-0.483,0.323-1.208,0.483-2.174,0.483h-4.59c-4.027,0-7.126-0.16-9.301-0.483c-0.081-0.079-0.163-0.381-0.242-0.906
		c-0.081-0.523-0.262-0.865-0.543-1.027c-0.283-0.161-0.827-0.321-1.631-0.483c-1.128-3.703-2.135-5.798-3.02-6.281
		c-1.612-0.885-2.899-1.329-3.866-1.329h-2.174c-0.404,0-0.685,0.042-0.845,0.121c-0.163,0.082-0.344,0.163-0.544,0.242
		c-0.202,0.081-0.343,0.181-0.422,0.302c-0.082,0.121-0.202,0.283-0.363,0.483c-0.162,0.202-0.283,0.423-0.362,0.665
		c-0.323,0.966-0.564,1.651-0.725,2.053c-1.531,5.073-2.295,12.483-2.295,22.226v7.127c0,5.96,0.804,10.268,2.416,12.925
		l1.329,0.362c0.321,0.081,1.166,0.121,2.537,0.121c1.368,0,2.718-0.303,4.046-0.906s2.235-1.329,2.718-2.174
		c0.483-0.846,0.925-2.477,1.329-4.893h-2.295c-2.014,0-3.584-0.2-4.711-0.604c-0.081-0.967-0.283-1.55-0.604-1.752
		c-0.323-0.2-0.664-0.342-1.027-0.423c-0.362-0.079-0.625-0.16-0.785-0.241C137.076,117.701,136.876,115.204,136.876,113.03z
		 M147.385,105.42c-4.752,0-7.852,0.483-9.301,1.45v0.121c0.161,0.887,0.242,2.497,0.242,4.832v3.382
		c0,2.174,0.079,3.666,0.242,4.47c0.242,0.162,1.045,0.241,2.416,0.241l4.832-0.12c0.321,0,0.683,0,1.087,0
		c0.725,0,1.087,0.725,1.087,2.174c0,4.43-0.927,7.329-2.778,8.697c-1.854,1.37-3.926,2.054-6.221,2.054
		c-2.295,0-3.967-0.303-5.013-0.906c-1.047-0.604-1.893-1.55-2.537-2.839c-0.646-1.287-1.168-2.455-1.57-3.503
		c-0.725-2.254-1.087-5.877-1.087-10.871l0.121-6.04c0-5.877,0.321-11.373,0.966-16.488c0.644-5.113,1.489-8.193,2.537-9.241
		c1.046-1.045,2.537-1.57,4.469-1.57l3.02,0.121c3.542,0,6.281,3.342,8.214,10.026c2.495,0.323,5.596,0.483,9.301,0.483
		c3.703,0,5.677-0.2,5.919-0.604c0.241-1.449,0.362-2.978,0.362-4.59c0-7.248-2.416-12.865-7.248-16.851
		c-4.832-3.986-11.013-5.979-18.542-5.979c-7.531,0-13.227,1.612-17.092,4.832c-2.899,2.014-4.952,5.034-6.16,9.06
		c-1.208,4.188-1.893,7.852-2.054,10.992c-0.242,4.349-0.362,7.41-0.362,9.181l0.121,7.006v6.764c0,7.169,0.483,12.967,1.45,17.395
		c0.966,4.43,1.831,7.389,2.597,8.878c0.764,1.491,1.751,3.141,2.959,4.953c1.208,1.812,2.616,3.2,4.228,4.167
		c3.784,2.335,8.012,3.503,12.684,3.503c16.911,0,26.01-5.677,27.299-17.032c0.644-2.978,0.966-6.662,0.966-11.052
		c0-4.389-0.323-9.804-0.966-16.247l-0.362-0.121L147.385,105.42z"/>
	<path fill="#003FDB" d="M201.742,64.833l1.812-0.242c0,0.242,3.383,14.858,10.146,43.848l9.302,43.606
		c-3.222,0.562-6.242,0.846-9.06,0.846c-2.82,0-6-0.403-9.543-1.208c-0.081-0.322-0.181-0.585-0.302-0.785
		c-0.121-0.201-0.202-0.383-0.242-0.543c-0.041-0.163-0.12-0.283-0.241-0.362c-0.121-0.081-0.202-0.163-0.241-0.242
		c-0.042-0.081-0.121-0.142-0.242-0.181c-0.12-0.042-0.223-0.103-0.302-0.182c-0.241-0.081-0.524-0.121-0.846-0.121
		c-0.725-2.174-1.47-4.851-2.234-8.032c-0.767-3.181-1.389-5.536-1.873-7.066c-0.483-1.529-1.008-2.295-1.57-2.295l-3.382,0.12
		c-0.404,1.129-1.068,4.168-1.993,9.12c-0.927,4.953-2.074,8.637-3.443,11.053l-2.657,0.241c-0.242,0-3.826-0.081-10.75-0.241
		l-6.402-0.121l0.362-2.415h-2.778l1.691-8.939c5.557-31.647,11.354-57.537,17.394-77.67c0.804-0.16,1.973-0.241,3.503-0.241
		l1.691,0.121c2.334,0,6.2-0.242,11.597-0.725C201.459,63.625,201.661,64.513,201.742,64.833z M189.663,128.371l3.503-0.121h1.57
		c0.161,0,0.966,0.081,2.416,0.241c0.804,1.691,1.812,5.014,3.02,9.966s2.093,8.195,2.657,9.724h0.121
		c3.141,0.725,6.079,1.087,8.817,1.087c2.737,0,5.194-0.201,7.369-0.604v-0.121l-9.06-42.277c-0.726-3.06-4.028-17.313-9.905-42.761
		c-3.545,0.323-7.048,0.483-10.509,0.483h-2.537c-0.966,0-1.57,0.042-1.812,0.121c-3.382,11.436-6.522,23.838-9.422,37.204
		c-2.899,13.369-5.115,24.521-6.644,33.459c-1.531,8.939-2.336,13.489-2.416,13.65c0.079,0.081,0.16,0.12,0.241,0.12h2.899
		l12.441,0.242c0.804,0,1.45-0.081,1.933-0.242c1.046-1.852,2.033-5.294,2.959-10.327
		C188.232,133.184,189.017,129.901,189.663,128.371z M197.756,114.117l-6.04,0.121c-0.404,0-0.906-0.019-1.51-0.06
		c-0.604-0.04-1.068-0.061-1.389-0.061c0.321-2.174,0.664-4.79,1.026-7.852c0.362-3.06,0.665-5.436,0.906-7.127
		c0.241-1.691,0.483-3.461,0.725-5.315c0.562-3.301,1.127-4.952,1.691-4.952C194.132,88.872,195.661,97.287,197.756,114.117z
		 M194.736,99.139c-0.081,0.564-0.725,5.155-1.933,13.771h3.503c-0.241-2.174-0.543-4.811-0.906-7.912
		C195.038,101.898,194.815,99.945,194.736,99.139z"/>
	<path fill="#003FDB" d="M277.841,76.067l0.241,25.487c0,5.798-0.081,9.542-0.241,11.234l-0.363,39.741
		c-2.255-0.322-4.831-0.483-7.73-0.483l-10.63,0.242c-0.081-0.564-0.12-1.41-0.12-2.537l-2.296,0.121
		c-0.241-4.268-0.383-10.751-0.423-19.448c-0.041-8.696-0.102-14.374-0.181-17.031c-0.564,1.37-0.927,2.336-1.087,2.899
		c-0.163,0.564-0.362,1.128-0.604,1.691c-0.241,0.564-0.443,1.027-0.604,1.39c-0.162,0.362-0.344,0.745-0.544,1.147
		c-0.202,0.403-0.383,0.745-0.543,1.026c-0.163,0.283-0.363,0.544-0.604,0.785c-0.404,0.404-0.806,0.604-1.208,0.604
		c-0.646,0-1.449-0.805-2.416-2.416c-1.208-0.079-2.657-2.133-4.349-6.161c-0.081,1.933-0.12,5.598-0.12,10.992
		c0,5.396,0.401,14.214,1.208,26.454c-3.141,0.483-6.483,0.725-10.026,0.725l-3.624,0.121c-4.269,0-6.401-0.927-6.401-2.778h-0.604
		c-0.646,0-1.147-0.404-1.51-1.208s-0.544-9.784-0.544-26.937c0-17.153,0.121-36.076,0.363-56.773
		c2.174-0.725,4.629-1.087,7.368-1.087l7.368,0.242c1.449,0,2.616-0.04,3.503-0.121c0.562,0.806,1.127,1.652,1.691,2.537
		l0.725-0.121c1.208,1.37,2.193,3.041,2.959,5.013c0.765,1.974,1.429,3.805,1.993,5.496c0.562,1.691,0.967,2.819,1.208,3.382
		c1.771-7.81,3.865-13.366,6.281-16.669c1.127,0.163,2.094,0.242,2.899,0.242l16.669-0.604l-0.12,2.416h2.536
		C277.88,67.693,277.841,71.156,277.841,76.067z M257.909,148.664l7.61-0.121h4.349c0.885,0,2.214,0.081,3.986,0.242l0.362-38.533
		c0.16-1.771,0.241-5.717,0.241-11.838l-0.241-24.763c0-4.107,0.039-7.167,0.12-9.18l-15.944,0.604c-1.129,0-1.772-0.04-1.933-0.121
		c-1.208,1.612-2.639,5.175-4.288,10.69c-1.651,5.517-2.597,8.235-2.839,8.154c-0.564,0-1.389-1.329-2.477-3.986
		c-1.087-2.658-2.234-5.557-3.442-8.697s-2.135-5.113-2.778-5.919h-0.12c-0.888,0.082-2.296,0.121-4.229,0.121l-4.349-0.121h-1.933
		c-2.657,0-4.631,0.202-5.919,0.604c-0.241,20.616-0.362,39.581-0.362,56.894c0,17.315,0.281,25.971,0.846,25.971l9.06,0.121
		c3.06,0,5.678-0.161,7.852-0.483c-0.725-11.032-1.087-19.931-1.087-26.695s0.241-13.125,0.725-19.085l0.362,1.208
		c0.16,0.404,0.502,1.37,1.027,2.899c0.522,1.531,1.026,2.92,1.51,4.167c0.482,1.25,1.006,2.597,1.57,4.046
		c1.368,2.98,2.374,4.47,3.02,4.47c0.562,0,1.852-2.718,3.865-8.154c2.012-5.436,3.262-8.595,3.745-9.482
		c0.644,5.315,1.066,14.114,1.268,26.393C257.687,140.35,257.828,147.215,257.909,148.664z"/>
	<path fill="#003FDB" d="M336.424,132.357l0.121,1.087c0.967,0,1.73-0.04,2.295-0.121v1.449c0.161,2.416,0.242,4.913,0.242,7.489
		c0,2.578-0.483,5.799-1.45,9.664l-31.647,0.362c-7.168,0-13.852-0.242-20.052-0.725v-2.296l-2.416-0.12l-0.725-53.512
		c0-10.146,0.321-20.614,0.967-31.406c15.058-0.725,29.15-1.087,42.277-1.087c6.36,0,9.703,0.483,10.025,1.449
		c0,0.806,0.402,1.389,1.208,1.751c0.805,0.363,1.208,0.585,1.208,0.665c0.321,1.854,0.483,3.947,0.483,6.281l-0.483,12.08
		c-4.106,0.966-9.301,1.449-15.582,1.449h-4.349l-4.711-0.121c-2.416,0-4.913,0.121-7.489,0.362l-0.362,8.697v1.087l2.174,0.121
		l4.711-0.121c0.402,0,2.416,0.121,6.04,0.362c0,1.531,0.362,2.295,1.087,2.295l1.329,0.121c0.402,2.095,0.604,4.55,0.604,7.368
		l-0.241,11.476c-2.256,0.646-5.175,0.987-8.758,1.026c-3.584,0.042-5.577,0.103-5.979,0.182c-0.242,1.208-0.363,3.04-0.363,5.496
		c0,2.457,0.04,4.209,0.121,5.254c9.664,0.483,16.387,0.726,20.173,0.726c3.784,0,6.964-0.08,9.542-0.242V132.357z M302.24,148.664
		l32.01-0.362c0.804-3.141,1.208-5.959,1.208-8.456c0-2.495-0.081-4.952-0.241-7.368v-0.241c-1.208,0.081-2.941,0.121-5.194,0.121
		l-26.454-0.726l-0.121-0.12c-0.322-2.013-0.482-4.609-0.482-7.791c0-3.181,0.16-5.617,0.482-7.309
		c0.483-0.402,2.637-0.604,6.463-0.604c3.824,0,6.542-0.241,8.153-0.725l0.121-10.509c0-2.818-0.121-4.911-0.362-6.281v-0.121
		c-5.557,0-10.509-0.121-14.857-0.362l-0.121-0.121c-0.323-1.208-0.483-2.737-0.483-4.59l0.362-9.542
		c0.967-0.242,3.824-0.362,8.576-0.362h9.543c5.878,0,10.549-0.402,14.012-1.208v-0.121l0.363-11.475
		c0-1.852-0.121-3.745-0.363-5.677c0-0.242-4.61-0.362-13.83-0.362c-9.222,0-21.28,0.362-36.178,1.087
		c-0.483,7.812-0.725,17.476-0.725,28.99l0.604,53.633C289.476,148.464,295.313,148.664,302.24,148.664z"/>
	<path fill="#003FDB" d="M345.119,149.631l-2.053,0.12c-1.45-10.549-2.175-24.038-2.175-40.465l0.241-31.89
		c0-5.234-0.021-8.535-0.06-9.905c-0.042-1.369-0.021-2.154,0.06-2.355c0.08-0.2,0.363-0.544,0.846-1.027
		c3.462-0.966,8.094-1.45,13.892-1.45l11.233,0.242c2.094,0,3.664-0.04,4.711-0.121c3.22,0.966,6.402,2.718,9.543,5.254
		s5.476,5.175,7.006,7.912h-0.121c3.462,5.235,5.959,11.275,7.489,18.119l-0.12-0.121c0.644,1.933,1.045,4.631,1.208,8.093
		c-0.082,1.449-0.163,3.826-0.242,7.126c-0.322,6.846-0.806,11.958-1.449,15.341c-2.98,8.455-8.335,17.515-16.065,27.178
		c-2.657,0.079-13.852,0.242-33.581,0.483L345.119,149.631z M371.694,63.988l-3.503,0.121l-11.959-0.242
		c-5.557,0-10.107,0.443-13.649,1.329c-0.242,0.242-0.362,0.404-0.362,0.483c0.079,2.578,0.12,6.443,0.12,11.596l-0.241,32.493
		c0,16.67,0.684,29.595,2.054,38.774l0.12-0.12c14.092,0,24.682-0.121,31.77-0.362c7.73-9.743,12.843-18.28,15.34-25.608
		l0.121-0.242c0.725-3.784,1.167-8.213,1.329-13.287c0.16-5.073,0.281-8.214,0.362-9.421c-0.483-9.018-3.262-17.474-8.335-25.367
		c-1.449-2.416-3.363-4.549-5.737-6.402C376.746,65.881,374.271,64.633,371.694,63.988z M359.373,113.271l0.241-15.34
		c0-1.852-0.081-4.307-0.241-7.369V90.08h0.362c1.449-0.242,2.979-0.363,4.59-0.363c3.302,0,5.979,1.008,8.033,3.02
		c2.054,2.014,3.361,4.209,3.926,6.583c0.562,2.376,0.846,5.194,0.846,8.456c0,3.262-1.129,6.665-3.383,10.207
		c-2.095,3.062-3.985,4.59-5.677,4.59h-0.242c-1.37,0.242-2.88,0.363-4.529,0.363c-1.651,0-2.88-0.363-3.685-1.088
		C359.452,118.145,359.373,115.286,359.373,113.271z M362.876,119.795l0.121,1.933h0.604c0.242,0,1.046-0.061,2.416-0.182
		c1.368-0.121,2.054-0.16,2.054-0.121c0,0.042,0.079,0.061,0.241,0.061c0.16,0,0.562-0.241,1.208-0.725h-0.121
		c1.208-0.725,2.335-1.891,3.383-3.503v0.121c2.093-3.141,3.141-6.744,3.141-10.811c0-4.066-1.208-8.193-3.624-12.381l-1.208-0.604
		c-1.933-0.161-3.321-0.242-4.167-0.242s-2.155,0.081-3.926,0.242c0.16,3.061,0.241,5.598,0.241,7.61L362.876,119.795z"/>
</g>
</svg>
