<?xml version="1.0" encoding="utf-8"?>
<!-- Generator: Adobe Illustrator 16.2.0, SVG Export Plug-In . SVG Version: 6.00 Build 0)  -->
<!DOCTYPE svg PUBLIC "-//W3C//DTD SVG 1.1//EN" "http://www.w3.org/Graphics/SVG/1.1/DTD/svg11.dtd">
<svg version="1.1" id="Layer_1" xmlns="http://www.w3.org/2000/svg" xmlns:xlink="http://www.w3.org/1999/xlink" x="0px" y="0px"
	 width="450px" height="180px" viewBox="0 0 450 180" enable-background="new 0 0 450 180" xml:space="preserve">
<ellipse opacity="0.3" fill="none" stroke="#000000" stroke-width="2.2979" stroke-miterlimit="10" cx="78.76" cy="89.357" rx="22.2" ry="82.607"/>
<path opacity="0.3" fill="none" stroke="#000000" stroke-width="2.2979" stroke-miterlimit="10" d="M89.859,70.13
	c39.511,22.812,66.571,49.911,60.44,60.53c-6.133,10.618-43.13,0.733-82.64-22.076C28.148,85.771,1.09,58.672,7.221,48.053
	C13.351,37.435,50.349,47.32,89.859,70.13z"/>
<ellipse transform="matrix(-0.5 -0.866 0.866 -0.5 40.7493 202.2414)" opacity="0.3" fill="none" stroke="#000000" stroke-width="2.2979" stroke-miterlimit="10" cx="78.759" cy="89.357" rx="22.201" ry="82.608"/>
<circle opacity="0.3" cx="78.33" cy="88.928" r="12.821"/>
<circle fill="#003FDB" cx="19.594" cy="43.801" r="5.859"/>
<rect x="110" y="61" fill="#FFFFFF" width="54" height="90"/>
<g>
	<path stroke="#FFFFFF" stroke-width="4.5957" stroke-miterlimit="10" d="M114.014,47.079l4.284,0.102
		c0.034,0.987,0.594,1.769,1.683,2.346c0.68,0.34,1.275,0.51,1.785,0.51c1.972,0,2.94-0.849,2.907-2.55
		c0.033-0.135,0.051-0.382,0.051-0.739s-0.229-0.748-0.688-1.173c-0.459-0.424-1.029-0.705-1.708-0.841
		c-2.788-0.543-4.675-1.037-5.661-1.479c-1.836-0.612-3.196-1.598-4.08-2.958c-0.885-1.359-1.326-2.72-1.326-4.08
		c0-1.53,0.485-2.966,1.454-4.309c0.969-1.343,2.159-2.21,3.57-2.601c1.411-0.391,3.188-0.586,5.33-0.586
		c2.414,0,4.539,0.221,6.375,0.663c2.958,1.258,4.437,3.995,4.437,8.21c-1.36,0.204-2.644,0.306-3.851,0.306
		c-1.207,0-2.355-0.102-3.442-0.306c0.033-0.169,0.051-0.339,0.051-0.51c0-0.646-0.349-1.25-1.045-1.811
		c-0.697-0.561-1.454-0.841-2.27-0.841c-0.068,0-0.153,0-0.255,0c-0.986,0.17-1.666,0.612-2.04,1.326
		c-0.204,0.34-0.306,0.697-0.306,1.071c0,0.375,0.102,0.765,0.306,1.173c0.374,0.748,1.071,1.309,2.091,1.683
		c4.862,0.714,7.871,1.819,9.027,3.315c0.883,1.462,1.326,2.916,1.326,4.36c0,1.445-0.222,2.814-0.663,4.105
		c-1.462,3.06-4.403,4.59-8.823,4.59c-0.102,0-0.247,0-0.434,0c-0.187,0-0.417,0-0.688,0c-3.06,0-5.602-0.748-7.625-2.244
		c-2.023-1.496-3.034-3.603-3.034-6.324v-0.255C111.668,47.129,112.756,47.079,114.014,47.079z"/>
	<path stroke="#FFFFFF" stroke-width="4.5957" stroke-miterlimit="10" d="M169.093,45.344l4.029-0.102
		c1.02,0,1.649,0.069,1.887,0.204c-0.34,4.727-0.816,7.395-1.428,8.007c-0.544,0.783-1.351,1.36-2.422,1.734
		c-1.071,0.374-1.879,0.578-2.422,0.612c-0.544,0.033-1.071,0.051-1.581,0.051l-5.406-0.153c-1.734-0.306-3.196-1.053-4.386-2.244
		c-0.85-0.747-1.479-1.759-1.887-3.034s-0.612-2.558-0.612-3.851c0-3.604-0.051-6.204-0.153-7.803c0-1.224,0.059-2.219,0.179-2.983
		c0.119-0.765,0.434-1.997,0.943-3.698c0.441-0.985,1.385-1.725,2.831-2.218c1.445-0.493,2.686-0.731,3.723-0.714
		s1.793,0.025,2.27,0.025l1.581-0.051c3.094,0,5.389,0.732,6.885,2.193c0.816,0.544,1.343,1.513,1.581,2.907
		c0.136,0.85,0.221,1.573,0.255,2.167c0.033,0.595,0.067,1.029,0.102,1.3c0.034,0.749,0.051,1.683,0.051,2.805
		c-0.477,0.102-1.199,0.153-2.167,0.153c-0.969,0-2.406-0.135-4.31-0.408c-0.17-1.258-0.604-2.142-1.3-2.652
		c-0.697-0.51-1.335-0.765-1.913-0.765c-1.462,0-2.533,0.425-3.213,1.275c-0.204,0.17-0.357,0.579-0.459,1.224
		c-0.102,0.646-0.17,1.734-0.204,3.264l-0.102,3.417c0,0.85,0.357,1.504,1.071,1.963c0.714,0.459,1.496,0.688,2.346,0.688
		c1.02,0,1.802-0.186,2.346-0.561c0.543-0.374,0.985-1.292,1.326-2.754C168.634,45.344,168.821,45.344,169.093,45.344z"/>
	<path stroke="#FFFFFF" stroke-width="4.5957" stroke-miterlimit="10" d="M198.467,29.433l1.428,0.051
		c1.257,0.069,2.261,0.102,3.009,0.102s1.292,0,1.633,0h0.866v0.153l-0.255,16.83c0,1.734,0.068,4.522,0.204,8.364
		c-0.034,0.238-0.815,0.357-2.347,0.357l-4.334-0.051c-0.272,0-0.442,0-0.51,0c0.135-1.666,0.204-3.893,0.204-6.681l-0.153-11.832
		c0-3.195,0.084-5.61,0.255-7.242V29.433z M205.353,25.149c-0.204,0.306-0.918,0.459-2.142,0.459l-4.029-0.102
		c-0.272,0-0.51,0-0.714,0l-0.204-6.018c0-0.339,0-0.68,0-1.02l6.936,0.153L205.353,25.149z"/>
	<path stroke="#FFFFFF" stroke-width="4.5957" stroke-miterlimit="10" d="M240.439,55.901l-4.641-0.153
		c-0.952-0.136-1.836-0.442-2.652-0.918c-1.7-1.189-2.907-2.983-3.621-5.38s-1.071-4.853-1.071-7.369
		c0-0.441,0.018-0.884,0.052-1.326c0.271-3.434,0.646-5.796,1.122-7.089c0.849-1.938,2.532-3.297,5.049-4.08
		c1.359-0.441,2.668-0.663,3.927-0.663c1.258,0,2.465,0.153,3.621,0.459c4.623,0.782,6.936,4.301,6.936,10.557
		c0,0.681-0.034,1.377-0.102,2.091c-0.749,0.204-2.39,0.357-4.922,0.459c-2.533,0.102-4.454,0.153-5.763,0.153
		c-1.31,0-2.304-0.068-2.983-0.204v1.581l0.051,1.122c0,0.238,0.008,0.4,0.025,0.484c0.017,0.085,0.042,0.229,0.077,0.434
		c0.033,0.204,0.067,0.357,0.102,0.459c0.578,1.768,1.547,2.874,2.907,3.315c0.306,0.068,0.705,0.102,1.198,0.102
		c0.492,0,1.079-0.306,1.76-0.918c0.68-0.612,1.02-1.683,1.02-3.213c0-0.102,0-0.221,0-0.357c0.103,0,0.288,0,0.562,0l3.978-0.102
		c0.985,0,1.614,0.069,1.887,0.204c-0.34,4.794-0.815,7.446-1.428,7.956c-0.918,1.258-2.278,1.989-4.08,2.193
		C242.326,55.833,241.323,55.901,240.439,55.901z M240.337,38.459l2.755,0.102c0.169,0,0.288-0.017,0.356-0.051
		c0.067-0.034,0.103-0.136,0.103-0.306v-0.357c0-1.53-0.663-2.635-1.989-3.315c-0.544-0.34-1.344-0.51-2.397-0.51
		c-2.142,0-3.349,1.105-3.62,3.315c-0.035,0.204-0.052,0.417-0.052,0.638c0,0.222,0.077,0.357,0.229,0.408
		c0.153,0.051,0.935,0.077,2.347,0.077C239.479,38.459,240.235,38.459,240.337,38.459z"/>
	<path stroke="#FFFFFF" stroke-width="4.5957" stroke-miterlimit="10" d="M275.934,29.841l2.396-0.255
		c0.307,0,0.527,0.069,0.663,0.204c0.068,0.442,0.103,0.969,0.103,1.581v1.122c0.68-0.374,1.104-0.629,1.274-0.765
		c1.598-1.189,3.366-1.785,5.305-1.785c1.938,0,3.586,0.544,4.946,1.632c0.646,0.579,1.021,2.244,1.122,4.998
		c0.033,1.258,0.051,2.669,0.051,4.233l-0.152,11.322c0,1.258,0.017,2.261,0.051,3.009c-0.918,0.136-3.043,0.204-6.375,0.204
		c-0.068-1.02-0.102-2.915-0.102-5.687c0-2.771-0.018-4.521-0.052-5.253c-0.034-0.73-0.068-1.275-0.102-1.632
		c-0.034-0.357-0.06-0.638-0.076-0.842c-0.018-0.204-0.052-0.476-0.103-0.816c-0.051-0.339-0.102-0.612-0.153-0.816
		c-0.051-0.204-0.11-0.425-0.178-0.663c-0.375-1.053-1.275-1.581-2.703-1.581c-0.646,0-1.301,0.247-1.964,0.739
		c-0.663,0.493-1.028,1.3-1.097,2.422c-0.034,0.442-0.051,0.987-0.051,1.632l0.204,8.466c0,1.632-0.068,2.822-0.204,3.57v0.204
		c-0.306,0.204-0.969,0.306-1.989,0.306l-2.805-0.051c-0.611,0-1.122,0.017-1.53,0.051l-0.152-19.89
		c0-3.162,0.033-5.049,0.102-5.661c0.578,0.068,1.173,0.102,1.785,0.102L275.934,29.841z"/>
	<path stroke="#FFFFFF" stroke-width="4.5957" stroke-miterlimit="10" d="M329.38,45.344l4.029-0.102
		c1.02,0,1.648,0.069,1.887,0.204c-0.34,4.727-0.816,7.395-1.428,8.007c-0.545,0.783-1.352,1.36-2.423,1.734
		c-1.071,0.374-1.879,0.578-2.422,0.612c-0.545,0.033-1.071,0.051-1.581,0.051l-5.406-0.153c-1.734-0.306-3.196-1.053-4.386-2.244
		c-0.851-0.747-1.479-1.759-1.888-3.034c-0.407-1.275-0.611-2.558-0.611-3.851c0-3.604-0.051-6.204-0.153-7.803
		c0-1.224,0.06-2.219,0.179-2.983c0.118-0.765,0.434-1.997,0.943-3.698c0.441-0.985,1.385-1.725,2.83-2.218
		c1.445-0.493,2.686-0.731,3.724-0.714c1.036,0.017,1.793,0.025,2.27,0.025l1.581-0.051c3.093,0,5.388,0.732,6.885,2.193
		c0.815,0.544,1.343,1.513,1.581,2.907c0.135,0.85,0.221,1.573,0.255,2.167c0.033,0.595,0.067,1.029,0.102,1.3
		c0.033,0.749,0.051,1.683,0.051,2.805c-0.477,0.102-1.198,0.153-2.167,0.153s-2.406-0.135-4.31-0.408
		c-0.171-1.258-0.604-2.142-1.301-2.652c-0.697-0.51-1.334-0.765-1.912-0.765c-1.462,0-2.533,0.425-3.213,1.275
		c-0.204,0.17-0.357,0.579-0.459,1.224c-0.102,0.646-0.171,1.734-0.204,3.264l-0.102,3.417c0,0.85,0.356,1.504,1.07,1.963
		s1.496,0.688,2.347,0.688c1.02,0,1.802-0.186,2.346-0.561c0.543-0.374,0.985-1.292,1.326-2.754
		C328.921,45.344,329.107,45.344,329.38,45.344z"/>
	<path stroke="#FFFFFF" stroke-width="4.5957" stroke-miterlimit="10" d="M369.771,55.901l-4.641-0.153
		c-0.952-0.136-1.836-0.442-2.652-0.918c-1.7-1.189-2.907-2.983-3.621-5.38s-1.071-4.853-1.071-7.369
		c0-0.441,0.018-0.884,0.052-1.326c0.271-3.434,0.646-5.796,1.122-7.089c0.849-1.938,2.532-3.297,5.049-4.08
		c1.359-0.441,2.668-0.663,3.927-0.663c1.258,0,2.465,0.153,3.621,0.459c4.623,0.782,6.936,4.301,6.936,10.557
		c0,0.681-0.034,1.377-0.102,2.091c-0.749,0.204-2.39,0.357-4.922,0.459c-2.533,0.102-4.454,0.153-5.763,0.153
		c-1.31,0-2.304-0.068-2.983-0.204v1.581l0.051,1.122c0,0.238,0.008,0.4,0.025,0.484c0.017,0.085,0.042,0.229,0.077,0.434
		c0.033,0.204,0.067,0.357,0.102,0.459c0.578,1.768,1.547,2.874,2.907,3.315c0.306,0.068,0.705,0.102,1.198,0.102
		c0.492,0,1.079-0.306,1.76-0.918c0.68-0.612,1.02-1.683,1.02-3.213c0-0.102,0-0.221,0-0.357c0.103,0,0.288,0,0.562,0l3.978-0.102
		c0.985,0,1.614,0.069,1.887,0.204c-0.34,4.794-0.815,7.446-1.428,7.956c-0.918,1.258-2.278,1.989-4.08,2.193
		C371.657,55.833,370.654,55.901,369.771,55.901z M369.668,38.459l2.755,0.102c0.169,0,0.288-0.017,0.356-0.051
		c0.067-0.034,0.103-0.136,0.103-0.306v-0.357c0-1.53-0.663-2.635-1.989-3.315c-0.544-0.34-1.344-0.51-2.397-0.51
		c-2.142,0-3.349,1.105-3.62,3.315c-0.035,0.204-0.052,0.417-0.052,0.638c0,0.222,0.077,0.357,0.229,0.408
		c0.153,0.051,0.935,0.077,2.347,0.077C368.81,38.459,369.566,38.459,369.668,38.459z"/>
	<path stroke="#FFFFFF" stroke-width="4.5957" stroke-miterlimit="10" d="M391.75,38.052c-0.102-0.578-0.152-1.479-0.152-2.703
		l0.102-3.213c0.646-0.272,1.76-0.408,3.341-0.408s2.592,0.102,3.034,0.306l-0.102,1.275c-0.137,2.619-0.204,4.182-0.204,4.692
		v0.102h-0.103l-5.763-0.051H391.75z M391.75,55.188c-0.102-0.578-0.152-1.479-0.152-2.703l0.102-3.213
		c0.646-0.272,1.76-0.408,3.341-0.408s2.592,0.102,3.034,0.306l-0.102,1.275c-0.137,2.619-0.204,4.182-0.204,4.692v0.102h-0.103
		l-5.763-0.051H391.75z"/>
</g>
<g>
	<path fill="#003FDB" stroke="#FFFFFF" stroke-width="8.5851" stroke-miterlimit="10" d="M136.876,113.03l0.121-2.899
		c0-1.529-0.042-3.059-0.121-4.59h0.363c0.241,0,0.362,0.081,0.362,0.241c1.045-1.045,4.388-1.57,10.026-1.57l15.582,0.725
		l1.45,0.121c0,0.404,0.079,1.168,0.242,2.295l2.174,0.121c0.725,8.135,1.087,14.193,1.087,18.18c0,3.985-0.323,7.47-0.966,10.448
		c-1.289,12.079-10.792,18.119-28.507,18.119c-7.972,0-14.355-2.859-19.146-8.576c-4.792-5.717-7.188-12.763-7.188-21.139
		c-0.806-6.765-1.208-14.273-1.208-22.528c0-8.253,0.281-14.031,0.845-17.334c2.253-14.655,10.911-21.984,25.971-21.984
		c8.214,0,15.16,2.458,20.837,7.369c5.677,4.913,8.516,11.275,8.516,19.085v2.054c0,1.854-0.202,2.899-0.604,3.141
		c-0.404,0.242-0.766,0.443-1.087,0.604c-0.483,0.323-1.208,0.483-2.174,0.483h-4.59c-4.027,0-7.126-0.16-9.301-0.483
		c-0.081-0.079-0.163-0.381-0.242-0.906c-0.081-0.523-0.262-0.865-0.543-1.027c-0.283-0.161-0.827-0.321-1.631-0.483
		c-1.128-3.703-2.135-5.798-3.02-6.281c-1.612-0.885-2.899-1.329-3.866-1.329h-2.174c-0.404,0-0.685,0.042-0.845,0.121
		c-0.163,0.082-0.344,0.163-0.544,0.242c-0.202,0.081-0.343,0.181-0.422,0.302c-0.082,0.121-0.202,0.283-0.363,0.483
		c-0.162,0.202-0.283,0.423-0.362,0.665c-0.323,0.966-0.564,1.651-0.725,2.053c-1.531,5.073-2.295,12.483-2.295,22.226v7.127
		c0,5.96,0.804,10.268,2.416,12.925l1.329,0.362c0.321,0.081,1.166,0.121,2.537,0.121c1.368,0,2.718-0.303,4.046-0.906
		s2.235-1.329,2.718-2.174c0.483-0.846,0.925-2.477,1.329-4.893h-2.295c-2.014,0-3.584-0.2-4.711-0.604
		c-0.081-0.967-0.283-1.55-0.604-1.752c-0.323-0.2-0.664-0.342-1.027-0.423c-0.362-0.079-0.625-0.16-0.785-0.241
		C137.076,117.701,136.876,115.204,136.876,113.03z M147.385,105.42c-4.752,0-7.852,0.483-9.301,1.45v0.121
		c0.161,0.887,0.242,2.497,0.242,4.832v3.382c0,2.174,0.079,3.666,0.242,4.47c0.242,0.162,1.045,0.241,2.416,0.241l4.832-0.12
		c0.321,0,0.683,0,1.087,0c0.725,0,1.087,0.725,1.087,2.174c0,4.43-0.927,7.329-2.778,8.697c-1.854,1.37-3.926,2.054-6.221,2.054
		c-2.295,0-3.967-0.303-5.013-0.906c-1.047-0.604-1.893-1.55-2.537-2.839c-0.646-1.287-1.168-2.455-1.57-3.503
		c-0.725-2.254-1.087-5.877-1.087-10.871l0.121-6.04c0-5.877,0.321-11.373,0.966-16.488c0.644-5.113,1.489-8.193,2.537-9.241
		c1.046-1.045,2.537-1.57,4.469-1.57l3.02,0.121c3.542,0,6.281,3.342,8.214,10.026c2.495,0.323,5.596,0.483,9.301,0.483
		c3.703,0,5.677-0.2,5.919-0.604c0.241-1.449,0.362-2.978,0.362-4.59c0-7.248-2.416-12.865-7.248-16.851
		c-4.832-3.986-11.013-5.979-18.542-5.979c-7.531,0-13.227,1.612-17.092,4.832c-2.899,2.014-4.952,5.034-6.16,9.06
		c-1.208,4.188-1.893,7.852-2.054,10.992c-0.242,4.349-0.362,7.41-0.362,9.181l0.121,7.006v6.764c0,7.169,0.483,12.967,1.45,17.395
		c0.966,4.43,1.831,7.389,2.597,8.878c0.764,1.491,1.751,3.141,2.959,4.953c1.208,1.812,2.616,3.2,4.228,4.167
		c3.784,2.335,8.012,3.503,12.684,3.503c16.911,0,26.01-5.677,27.299-17.032c0.644-2.978,0.966-6.662,0.966-11.052
		c0-4.389-0.322-9.804-0.966-16.247l-0.362-0.121L147.385,105.42z"/>
	<path fill="#003FDB" stroke="#FFFFFF" stroke-width="8.5851" stroke-miterlimit="10" d="M201.742,64.833l1.812-0.242
		c0,0.242,3.383,14.858,10.146,43.848l9.302,43.606c-3.222,0.562-6.242,0.846-9.06,0.846c-2.82,0-6-0.403-9.543-1.208
		c-0.081-0.322-0.181-0.585-0.302-0.785c-0.121-0.201-0.202-0.383-0.242-0.543c-0.041-0.163-0.12-0.283-0.241-0.362
		c-0.121-0.081-0.202-0.163-0.241-0.242c-0.042-0.081-0.121-0.142-0.242-0.181c-0.12-0.042-0.223-0.103-0.302-0.182
		c-0.241-0.081-0.524-0.121-0.846-0.121c-0.725-2.174-1.47-4.851-2.234-8.032c-0.767-3.181-1.389-5.536-1.873-7.066
		c-0.483-1.529-1.008-2.295-1.57-2.295l-3.382,0.12c-0.404,1.129-1.068,4.168-1.993,9.12c-0.927,4.953-2.074,8.637-3.443,11.053
		l-2.657,0.241c-0.242,0-3.826-0.081-10.75-0.241l-6.402-0.121l0.362-2.415h-2.778l1.691-8.939
		c5.557-31.647,11.354-57.537,17.394-77.67c0.804-0.16,1.973-0.241,3.503-0.241l1.691,0.121c2.334,0,6.2-0.242,11.597-0.725
		C201.459,63.625,201.661,64.513,201.742,64.833z M189.663,128.371l3.503-0.121h1.57c0.161,0,0.966,0.081,2.416,0.241
		c0.804,1.691,1.812,5.014,3.02,9.966s2.093,8.195,2.657,9.724h0.121c3.141,0.725,6.079,1.087,8.817,1.087
		c2.737,0,5.194-0.201,7.369-0.604v-0.121l-9.06-42.277c-0.726-3.06-4.028-17.313-9.905-42.761
		c-3.545,0.323-7.048,0.483-10.509,0.483h-2.537c-0.966,0-1.57,0.042-1.812,0.121c-3.382,11.436-6.522,23.838-9.422,37.204
		c-2.899,13.369-5.115,24.521-6.644,33.459c-1.531,8.939-2.336,13.489-2.416,13.65c0.079,0.081,0.16,0.12,0.241,0.12h2.899
		l12.441,0.242c0.804,0,1.45-0.081,1.933-0.242c1.046-1.852,2.033-5.294,2.959-10.327
		C188.232,133.184,189.017,129.901,189.663,128.371z M197.756,114.117l-6.04,0.121c-0.404,0-0.906-0.019-1.51-0.06
		c-0.604-0.04-1.068-0.061-1.389-0.061c0.321-2.174,0.664-4.79,1.026-7.852c0.362-3.06,0.665-5.436,0.906-7.127
		c0.241-1.691,0.483-3.461,0.725-5.315c0.562-3.301,1.127-4.952,1.691-4.952C194.132,88.872,195.661,97.287,197.756,114.117z
		 M194.736,99.139c-0.081,0.564-0.725,5.155-1.933,13.771h3.503c-0.241-2.174-0.543-4.811-0.906-7.912
		C195.038,101.898,194.815,99.945,194.736,99.139z"/>
	<path fill="#003FDB" stroke="#FFFFFF" stroke-width="8.5851" stroke-miterlimit="10" d="M277.842,76.067l0.241,25.487
		c0,5.798-0.081,9.542-0.241,11.234l-0.363,39.741c-2.255-0.322-4.831-0.483-7.73-0.483l-10.63,0.242
		c-0.081-0.564-0.12-1.41-0.12-2.537l-2.296,0.121c-0.241-4.268-0.383-10.751-0.423-19.448c-0.041-8.696-0.102-14.374-0.181-17.031
		c-0.564,1.37-0.927,2.336-1.087,2.899c-0.163,0.564-0.362,1.128-0.604,1.691c-0.241,0.564-0.443,1.027-0.604,1.39
		c-0.162,0.362-0.344,0.745-0.544,1.147c-0.202,0.403-0.383,0.745-0.543,1.026c-0.163,0.283-0.363,0.544-0.604,0.785
		c-0.404,0.404-0.806,0.604-1.208,0.604c-0.646,0-1.449-0.805-2.416-2.416c-1.208-0.079-2.657-2.133-4.349-6.161
		c-0.081,1.933-0.12,5.598-0.12,10.992c0,5.396,0.401,14.214,1.208,26.454c-3.141,0.483-6.483,0.725-10.026,0.725l-3.624,0.121
		c-4.269,0-6.401-0.927-6.401-2.778h-0.604c-0.646,0-1.147-0.404-1.51-1.208s-0.544-9.784-0.544-26.937
		c0-17.153,0.121-36.076,0.363-56.773c2.174-0.725,4.629-1.087,7.368-1.087l7.368,0.242c1.449,0,2.616-0.04,3.503-0.121
		c0.562,0.806,1.127,1.652,1.691,2.537l0.725-0.121c1.208,1.37,2.193,3.041,2.959,5.013c0.765,1.974,1.429,3.805,1.993,5.496
		c0.562,1.691,0.967,2.819,1.208,3.382c1.771-7.81,3.865-13.366,6.281-16.669c1.127,0.163,2.094,0.242,2.899,0.242l16.669-0.604
		l-0.12,2.416h2.536C277.881,67.693,277.842,71.156,277.842,76.067z M257.91,148.664l7.61-0.121h4.349
		c0.885,0,2.214,0.081,3.986,0.242l0.362-38.533c0.16-1.771,0.241-5.717,0.241-11.838l-0.241-24.763c0-4.107,0.039-7.167,0.12-9.18
		l-15.944,0.604c-1.129,0-1.772-0.04-1.933-0.121c-1.208,1.612-2.639,5.175-4.288,10.69c-1.651,5.517-2.597,8.235-2.839,8.154
		c-0.564,0-1.389-1.329-2.477-3.986c-1.087-2.658-2.234-5.557-3.442-8.697s-2.135-5.113-2.778-5.919h-0.12
		c-0.888,0.082-2.296,0.121-4.229,0.121l-4.349-0.121h-1.933c-2.657,0-4.631,0.202-5.919,0.604
		c-0.241,20.616-0.362,39.581-0.362,56.894c0,17.315,0.281,25.971,0.846,25.971l9.06,0.121c3.06,0,5.678-0.161,7.852-0.483
		c-0.725-11.032-1.087-19.931-1.087-26.695s0.241-13.125,0.725-19.085l0.362,1.208c0.16,0.404,0.502,1.37,1.027,2.899
		c0.522,1.531,1.026,2.92,1.51,4.167c0.482,1.25,1.006,2.597,1.57,4.046c1.368,2.98,2.374,4.47,3.02,4.47
		c0.562,0,1.852-2.718,3.865-8.154c2.012-5.436,3.262-8.595,3.745-9.482c0.644,5.315,1.066,14.114,1.268,26.393
		C257.688,140.35,257.829,147.215,257.91,148.664z"/>
	<path fill="#003FDB" stroke="#FFFFFF" stroke-width="8.5851" stroke-miterlimit="10" d="M336.425,132.357l0.121,1.087
		c0.967,0,1.73-0.04,2.295-0.121v1.449c0.161,2.416,0.242,4.913,0.242,7.489c0,2.578-0.483,5.799-1.45,9.664l-31.647,0.362
		c-7.168,0-13.852-0.242-20.052-0.725v-2.296l-2.416-0.12l-0.725-53.512c0-10.146,0.321-20.614,0.967-31.406
		c15.058-0.725,29.15-1.087,42.277-1.087c6.36,0,9.703,0.483,10.025,1.449c0,0.806,0.402,1.389,1.208,1.751
		c0.805,0.363,1.208,0.585,1.208,0.665c0.321,1.854,0.483,3.947,0.483,6.281l-0.483,12.08c-4.106,0.966-9.301,1.449-15.582,1.449
		h-4.349l-4.711-0.121c-2.416,0-4.913,0.121-7.489,0.362l-0.362,8.697v1.087l2.174,0.121l4.711-0.121
		c0.402,0,2.416,0.121,6.04,0.362c0,1.531,0.362,2.295,1.087,2.295l1.329,0.121c0.402,2.095,0.604,4.55,0.604,7.368l-0.241,11.476
		c-2.256,0.646-5.175,0.987-8.758,1.026c-3.584,0.042-5.577,0.103-5.979,0.182c-0.242,1.208-0.363,3.04-0.363,5.496
		c0,2.457,0.04,4.209,0.121,5.254c9.664,0.483,16.387,0.726,20.173,0.726c3.784,0,6.964-0.08,9.542-0.242V132.357z M302.241,148.664
		l32.01-0.362c0.804-3.141,1.208-5.959,1.208-8.456c0-2.495-0.081-4.952-0.241-7.368v-0.241c-1.208,0.081-2.941,0.121-5.194,0.121
		l-26.454-0.726l-0.121-0.12c-0.322-2.013-0.482-4.609-0.482-7.791c0-3.181,0.16-5.617,0.482-7.309
		c0.483-0.402,2.637-0.604,6.463-0.604c3.824,0,6.542-0.241,8.153-0.725l0.121-10.509c0-2.818-0.121-4.911-0.362-6.281v-0.121
		c-5.557,0-10.509-0.121-14.857-0.362l-0.121-0.121c-0.322-1.208-0.483-2.737-0.483-4.59l0.362-9.542
		c0.967-0.242,3.824-0.362,8.576-0.362h9.543c5.878,0,10.549-0.402,14.012-1.208v-0.121l0.363-11.475
		c0-1.852-0.121-3.745-0.363-5.677c0-0.242-4.61-0.362-13.83-0.362c-9.222,0-21.28,0.362-36.178,1.087
		c-0.483,7.812-0.725,17.476-0.725,28.99l0.604,53.633C289.477,148.464,295.314,148.664,302.241,148.664z"/>
	<path fill="#003FDB" stroke="#FFFFFF" stroke-width="8.5851" stroke-miterlimit="10" d="M345.12,149.631l-2.053,0.12
		c-1.45-10.549-2.175-24.038-2.175-40.465l0.241-31.89c0-5.234-0.021-8.535-0.06-9.905c-0.042-1.369-0.021-2.154,0.06-2.355
		c0.08-0.2,0.363-0.544,0.846-1.027c3.462-0.966,8.094-1.45,13.892-1.45l11.233,0.242c2.094,0,3.664-0.04,4.711-0.121
		c3.22,0.966,6.402,2.718,9.543,5.254s5.476,5.175,7.006,7.912h-0.121c3.462,5.235,5.959,11.275,7.489,18.119l-0.12-0.121
		c0.644,1.933,1.045,4.631,1.208,8.093c-0.082,1.449-0.163,3.826-0.242,7.126c-0.322,6.846-0.806,11.958-1.449,15.341
		c-2.98,8.455-8.335,17.515-16.065,27.178c-2.657,0.079-13.852,0.242-33.581,0.483L345.12,149.631z M371.695,63.988l-3.503,0.121
		l-11.959-0.242c-5.557,0-10.107,0.443-13.649,1.329c-0.242,0.242-0.362,0.404-0.362,0.483c0.079,2.578,0.12,6.443,0.12,11.596
		l-0.241,32.493c0,16.67,0.684,29.595,2.054,38.774l0.12-0.12c14.092,0,24.682-0.121,31.77-0.362
		c7.73-9.743,12.843-18.28,15.34-25.608l0.121-0.242c0.725-3.784,1.167-8.213,1.329-13.287c0.16-5.073,0.281-8.214,0.362-9.421
		c-0.483-9.018-3.262-17.474-8.335-25.367c-1.449-2.416-3.363-4.549-5.737-6.402C376.747,65.881,374.271,64.633,371.695,63.988z
		 M359.374,113.271l0.241-15.34c0-1.852-0.081-4.307-0.241-7.369V90.08h0.362c1.449-0.242,2.979-0.363,4.59-0.363
		c3.302,0,5.979,1.008,8.033,3.02c2.054,2.014,3.361,4.209,3.926,6.583c0.562,2.376,0.846,5.194,0.846,8.456
		c0,3.262-1.129,6.665-3.383,10.207c-2.095,3.062-3.985,4.59-5.677,4.59h-0.242c-1.37,0.242-2.88,0.363-4.529,0.363
		c-1.651,0-2.88-0.363-3.685-1.088C359.453,118.145,359.374,115.286,359.374,113.271z M362.877,119.795l0.121,1.933h0.604
		c0.242,0,1.046-0.061,2.416-0.182c1.368-0.121,2.054-0.16,2.054-0.121c0,0.042,0.079,0.061,0.241,0.061
		c0.16,0,0.562-0.241,1.208-0.725h-0.121c1.208-0.725,2.335-1.891,3.383-3.503v0.121c2.093-3.141,3.141-6.744,3.141-10.811
		c0-4.065-1.208-8.193-3.624-12.381l-1.208-0.604c-1.933-0.161-3.321-0.242-4.167-0.242s-2.155,0.081-3.926,0.242
		c0.16,3.061,0.241,5.598,0.241,7.61L362.877,119.795z"/>
</g>
<g>
	<path fill="#333333" d="M114.014,47.079l4.284,0.102c0.034,0.987,0.594,1.769,1.683,2.346c0.68,0.34,1.275,0.51,1.785,0.51
		c1.972,0,2.94-0.849,2.907-2.55c0.033-0.135,0.051-0.382,0.051-0.739s-0.229-0.748-0.688-1.173
		c-0.459-0.424-1.029-0.705-1.708-0.841c-2.788-0.543-4.675-1.037-5.661-1.479c-1.836-0.612-3.196-1.598-4.08-2.958
		c-0.885-1.359-1.326-2.72-1.326-4.08c0-1.53,0.485-2.966,1.454-4.309c0.969-1.343,2.159-2.21,3.57-2.601
		c1.411-0.391,3.188-0.586,5.33-0.586c2.414,0,4.539,0.221,6.375,0.663c2.958,1.258,4.437,3.995,4.437,8.21
		c-1.36,0.204-2.644,0.306-3.851,0.306c-1.207,0-2.355-0.102-3.442-0.306c0.033-0.169,0.051-0.339,0.051-0.51
		c0-0.646-0.349-1.25-1.045-1.811c-0.697-0.561-1.454-0.841-2.27-0.841c-0.068,0-0.153,0-0.255,0
		c-0.986,0.17-1.666,0.612-2.04,1.326c-0.204,0.34-0.306,0.697-0.306,1.071c0,0.375,0.102,0.765,0.306,1.173
		c0.374,0.748,1.071,1.309,2.091,1.683c4.862,0.714,7.871,1.819,9.027,3.315c0.883,1.462,1.326,2.916,1.326,4.36
		c0,1.445-0.222,2.814-0.663,4.105c-1.462,3.06-4.403,4.59-8.823,4.59c-0.102,0-0.247,0-0.434,0c-0.187,0-0.417,0-0.688,0
		c-3.06,0-5.602-0.748-7.625-2.244c-2.023-1.496-3.034-3.603-3.034-6.324v-0.255C111.668,47.129,112.756,47.079,114.014,47.079z"/>
	<path fill="#333333" d="M169.093,45.344l4.029-0.102c1.02,0,1.649,0.069,1.887,0.204c-0.34,4.727-0.816,7.395-1.428,8.007
		c-0.544,0.783-1.351,1.36-2.422,1.734c-1.071,0.374-1.879,0.578-2.422,0.612c-0.544,0.033-1.071,0.051-1.581,0.051l-5.406-0.153
		c-1.734-0.306-3.196-1.053-4.386-2.244c-0.85-0.747-1.479-1.759-1.887-3.034s-0.612-2.558-0.612-3.851
		c0-3.604-0.051-6.204-0.153-7.803c0-1.224,0.059-2.219,0.179-2.983c0.119-0.765,0.434-1.997,0.943-3.698
		c0.441-0.985,1.385-1.725,2.831-2.218c1.445-0.493,2.686-0.731,3.723-0.714s1.793,0.025,2.27,0.025l1.581-0.051
		c3.094,0,5.389,0.732,6.885,2.193c0.816,0.544,1.343,1.513,1.581,2.907c0.136,0.85,0.221,1.573,0.255,2.167
		c0.033,0.595,0.067,1.029,0.102,1.3c0.034,0.749,0.051,1.683,0.051,2.805c-0.477,0.102-1.199,0.153-2.167,0.153
		c-0.969,0-2.406-0.135-4.31-0.408c-0.17-1.258-0.604-2.142-1.3-2.652c-0.697-0.51-1.335-0.765-1.913-0.765
		c-1.462,0-2.533,0.425-3.213,1.275c-0.204,0.17-0.357,0.579-0.459,1.224c-0.102,0.646-0.17,1.734-0.204,3.264l-0.102,3.417
		c0,0.85,0.357,1.504,1.071,1.963c0.714,0.459,1.496,0.688,2.346,0.688c1.02,0,1.802-0.186,2.346-0.561
		c0.543-0.374,0.985-1.292,1.326-2.754C168.634,45.344,168.821,45.344,169.093,45.344z"/>
	<path fill="#333333" d="M198.467,29.433l1.428,0.051c1.257,0.069,2.261,0.102,3.009,0.102s1.292,0,1.633,0h0.866v0.153
		l-0.255,16.83c0,1.734,0.068,4.522,0.204,8.364c-0.034,0.238-0.815,0.357-2.347,0.357l-4.334-0.051c-0.272,0-0.442,0-0.51,0
		c0.135-1.666,0.204-3.893,0.204-6.681l-0.153-11.832c0-3.195,0.084-5.61,0.255-7.242V29.433z M205.353,25.149
		c-0.204,0.306-0.918,0.459-2.142,0.459l-4.029-0.102c-0.272,0-0.51,0-0.714,0l-0.204-6.018c0-0.339,0-0.68,0-1.02l6.936,0.153
		L205.353,25.149z"/>
	<path fill="#333333" d="M240.439,55.901l-4.641-0.153c-0.952-0.136-1.836-0.442-2.652-0.918c-1.7-1.189-2.907-2.983-3.621-5.38
		s-1.071-4.853-1.071-7.369c0-0.441,0.018-0.884,0.052-1.326c0.271-3.434,0.646-5.796,1.122-7.089
		c0.849-1.938,2.532-3.297,5.049-4.08c1.359-0.441,2.668-0.663,3.927-0.663c1.258,0,2.465,0.153,3.621,0.459
		c4.623,0.782,6.936,4.301,6.936,10.557c0,0.681-0.034,1.377-0.102,2.091c-0.749,0.204-2.39,0.357-4.922,0.459
		c-2.533,0.102-4.454,0.153-5.763,0.153c-1.31,0-2.304-0.068-2.983-0.204v1.581l0.051,1.122c0,0.238,0.008,0.4,0.025,0.484
		c0.017,0.085,0.042,0.229,0.077,0.434c0.033,0.204,0.067,0.357,0.102,0.459c0.578,1.768,1.547,2.874,2.907,3.315
		c0.306,0.068,0.705,0.102,1.198,0.102c0.492,0,1.079-0.306,1.76-0.918c0.68-0.612,1.02-1.683,1.02-3.213c0-0.102,0-0.221,0-0.357
		c0.103,0,0.288,0,0.562,0l3.978-0.102c0.985,0,1.614,0.069,1.887,0.204c-0.34,4.794-0.815,7.446-1.428,7.956
		c-0.918,1.258-2.278,1.989-4.08,2.193C242.326,55.833,241.323,55.901,240.439,55.901z M240.337,38.459l2.755,0.102
		c0.169,0,0.288-0.017,0.356-0.051c0.067-0.034,0.103-0.136,0.103-0.306v-0.357c0-1.53-0.663-2.635-1.989-3.315
		c-0.544-0.34-1.344-0.51-2.397-0.51c-2.142,0-3.349,1.105-3.62,3.315c-0.035,0.204-0.052,0.417-0.052,0.638
		c0,0.222,0.077,0.357,0.229,0.408c0.153,0.051,0.935,0.077,2.347,0.077C239.479,38.459,240.235,38.459,240.337,38.459z"/>
	<path fill="#333333" d="M275.934,29.841l2.396-0.255c0.307,0,0.527,0.069,0.663,0.204c0.068,0.442,0.103,0.969,0.103,1.581v1.122
		c0.68-0.374,1.104-0.629,1.274-0.765c1.598-1.189,3.366-1.785,5.305-1.785c1.938,0,3.586,0.544,4.946,1.632
		c0.646,0.579,1.021,2.244,1.122,4.998c0.033,1.258,0.051,2.669,0.051,4.233l-0.152,11.322c0,1.258,0.017,2.261,0.051,3.009
		c-0.918,0.136-3.043,0.204-6.375,0.204c-0.068-1.02-0.102-2.915-0.102-5.687c0-2.771-0.018-4.521-0.052-5.253
		c-0.034-0.73-0.068-1.275-0.102-1.632c-0.034-0.357-0.06-0.638-0.076-0.842c-0.018-0.204-0.052-0.476-0.103-0.816
		c-0.051-0.339-0.102-0.612-0.153-0.816c-0.051-0.204-0.11-0.425-0.178-0.663c-0.375-1.053-1.275-1.581-2.703-1.581
		c-0.646,0-1.301,0.247-1.964,0.739c-0.663,0.493-1.028,1.3-1.097,2.422c-0.034,0.442-0.051,0.987-0.051,1.632l0.204,8.466
		c0,1.632-0.068,2.822-0.204,3.57v0.204c-0.306,0.204-0.969,0.306-1.989,0.306l-2.805-0.051c-0.611,0-1.122,0.017-1.53,0.051
		l-0.152-19.89c0-3.162,0.033-5.049,0.102-5.661c0.578,0.068,1.173,0.102,1.785,0.102L275.934,29.841z"/>
	<path fill="#333333" d="M329.38,45.344l4.029-0.102c1.02,0,1.648,0.069,1.887,0.204c-0.34,4.727-0.816,7.395-1.428,8.007
		c-0.545,0.783-1.352,1.36-2.423,1.734c-1.071,0.374-1.879,0.578-2.422,0.612c-0.545,0.033-1.071,0.051-1.581,0.051l-5.406-0.153
		c-1.734-0.306-3.196-1.053-4.386-2.244c-0.851-0.747-1.479-1.759-1.888-3.034c-0.407-1.275-0.611-2.558-0.611-3.851
		c0-3.604-0.051-6.204-0.153-7.803c0-1.224,0.06-2.219,0.179-2.983c0.118-0.765,0.434-1.997,0.943-3.698
		c0.441-0.985,1.385-1.725,2.83-2.218c1.445-0.493,2.686-0.731,3.724-0.714c1.036,0.017,1.793,0.025,2.27,0.025l1.581-0.051
		c3.093,0,5.388,0.732,6.885,2.193c0.815,0.544,1.343,1.513,1.581,2.907c0.135,0.85,0.221,1.573,0.255,2.167
		c0.033,0.595,0.067,1.029,0.102,1.3c0.033,0.749,0.051,1.683,0.051,2.805c-0.477,0.102-1.198,0.153-2.167,0.153
		s-2.406-0.135-4.31-0.408c-0.171-1.258-0.604-2.142-1.301-2.652c-0.697-0.51-1.334-0.765-1.912-0.765
		c-1.462,0-2.533,0.425-3.213,1.275c-0.204,0.17-0.357,0.579-0.459,1.224c-0.102,0.646-0.171,1.734-0.204,3.264l-0.102,3.417
		c0,0.85,0.356,1.504,1.07,1.963s1.496,0.688,2.347,0.688c1.02,0,1.802-0.186,2.346-0.561c0.543-0.374,0.985-1.292,1.326-2.754
		C328.921,45.344,329.107,45.344,329.38,45.344z"/>
	<path fill="#333333" d="M369.771,55.901l-4.641-0.153c-0.952-0.136-1.836-0.442-2.652-0.918c-1.7-1.189-2.907-2.983-3.621-5.38
		s-1.071-4.853-1.071-7.369c0-0.441,0.018-0.884,0.052-1.326c0.271-3.434,0.646-5.796,1.122-7.089
		c0.849-1.938,2.532-3.297,5.049-4.08c1.359-0.441,2.668-0.663,3.927-0.663c1.258,0,2.465,0.153,3.621,0.459
		c4.623,0.782,6.936,4.301,6.936,10.557c0,0.681-0.034,1.377-0.102,2.091c-0.749,0.204-2.39,0.357-4.922,0.459
		c-2.533,0.102-4.454,0.153-5.763,0.153c-1.31,0-2.304-0.068-2.983-0.204v1.581l0.051,1.122c0,0.238,0.008,0.4,0.025,0.484
		c0.017,0.085,0.042,0.229,0.077,0.434c0.033,0.204,0.067,0.357,0.102,0.459c0.578,1.768,1.547,2.874,2.907,3.315
		c0.306,0.068,0.705,0.102,1.198,0.102c0.492,0,1.079-0.306,1.76-0.918c0.68-0.612,1.02-1.683,1.02-3.213c0-0.102,0-0.221,0-0.357
		c0.103,0,0.288,0,0.562,0l3.978-0.102c0.985,0,1.614,0.069,1.887,0.204c-0.34,4.794-0.815,7.446-1.428,7.956
		c-0.918,1.258-2.278,1.989-4.08,2.193C371.657,55.833,370.654,55.901,369.771,55.901z M369.668,38.459l2.755,0.102
		c0.169,0,0.288-0.017,0.356-0.051c0.067-0.034,0.103-0.136,0.103-0.306v-0.357c0-1.53-0.663-2.635-1.989-3.315
		c-0.544-0.34-1.344-0.51-2.397-0.51c-2.142,0-3.349,1.105-3.62,3.315c-0.035,0.204-0.052,0.417-0.052,0.638
		c0,0.222,0.077,0.357,0.229,0.408c0.153,0.051,0.935,0.077,2.347,0.077C368.81,38.459,369.566,38.459,369.668,38.459z"/>
	<path fill="#333333" d="M391.75,38.052c-0.102-0.578-0.152-1.479-0.152-2.703l0.102-3.213c0.646-0.272,1.76-0.408,3.341-0.408
		s2.592,0.102,3.034,0.306l-0.102,1.275c-0.137,2.619-0.204,4.182-0.204,4.692v0.102h-0.103l-5.763-0.051H391.75z M391.75,55.188
		c-0.102-0.578-0.152-1.479-0.152-2.703l0.102-3.213c0.646-0.272,1.76-0.408,3.341-0.408s2.592,0.102,3.034,0.306l-0.102,1.275
		c-0.137,2.619-0.204,4.182-0.204,4.692v0.102h-0.103l-5.763-0.051H391.75z"/>
</g>
<g>
	<path fill="#003FDB" d="M136.876,113.03l0.121-2.899c0-1.529-0.042-3.059-0.121-4.59h0.363c0.241,0,0.362,0.081,0.362,0.241
		c1.045-1.045,4.388-1.57,10.026-1.57l15.582,0.725l1.45,0.121c0,0.404,0.079,1.168,0.242,2.295l2.174,0.121
		c0.725,8.135,1.087,14.193,1.087,18.18c0,3.985-0.323,7.47-0.966,10.448c-1.289,12.079-10.792,18.119-28.507,18.119
		c-7.972,0-14.355-2.859-19.146-8.576c-4.792-5.717-7.188-12.763-7.188-21.139c-0.806-6.765-1.208-14.273-1.208-22.528
		c0-8.253,0.281-14.031,0.845-17.334c2.253-14.655,10.911-21.984,25.971-21.984c8.214,0,15.16,2.458,20.837,7.369
		c5.677,4.913,8.516,11.275,8.516,19.085v2.054c0,1.854-0.202,2.899-0.604,3.141c-0.404,0.242-0.766,0.443-1.087,0.604
		c-0.483,0.323-1.208,0.483-2.174,0.483h-4.59c-4.027,0-7.126-0.16-9.301-0.483c-0.081-0.079-0.163-0.381-0.242-0.906
		c-0.081-0.523-0.262-0.865-0.543-1.027c-0.283-0.161-0.827-0.321-1.631-0.483c-1.128-3.703-2.135-5.798-3.02-6.281
		c-1.612-0.885-2.899-1.329-3.866-1.329h-2.174c-0.404,0-0.685,0.042-0.845,0.121c-0.163,0.082-0.344,0.163-0.544,0.242
		c-0.202,0.081-0.343,0.181-0.422,0.302c-0.082,0.121-0.202,0.283-0.363,0.483c-0.162,0.202-0.283,0.423-0.362,0.665
		c-0.323,0.966-0.564,1.651-0.725,2.053c-1.531,5.073-2.295,12.483-2.295,22.226v7.127c0,5.96,0.804,10.268,2.416,12.925
		l1.329,0.362c0.321,0.081,1.166,0.121,2.537,0.121c1.368,0,2.718-0.303,4.046-0.906s2.235-1.329,2.718-2.174
		c0.483-0.846,0.925-2.477,1.329-4.893h-2.295c-2.014,0-3.584-0.2-4.711-0.604c-0.081-0.967-0.283-1.55-0.604-1.752
		c-0.323-0.2-0.664-0.342-1.027-0.423c-0.362-0.079-0.625-0.16-0.785-0.241C137.076,117.701,136.876,115.204,136.876,113.03z
		 M147.385,105.42c-4.752,0-7.852,0.483-9.301,1.45v0.121c0.161,0.887,0.242,2.497,0.242,4.832v3.382
		c0,2.174,0.079,3.666,0.242,4.47c0.242,0.162,1.045,0.241,2.416,0.241l4.832-0.12c0.321,0,0.683,0,1.087,0
		c0.725,0,1.087,0.725,1.087,2.174c0,4.43-0.927,7.329-2.778,8.697c-1.854,1.37-3.926,2.054-6.221,2.054
		c-2.295,0-3.967-0.303-5.013-0.906c-1.047-0.604-1.893-1.55-2.537-2.839c-0.646-1.287-1.168-2.455-1.57-3.503
		c-0.725-2.254-1.087-5.877-1.087-10.871l0.121-6.04c0-5.877,0.321-11.373,0.966-16.488c0.644-5.113,1.489-8.193,2.537-9.241
		c1.046-1.045,2.537-1.57,4.469-1.57l3.02,0.121c3.542,0,6.281,3.342,8.214,10.026c2.495,0.323,5.596,0.483,9.301,0.483
		c3.703,0,5.677-0.2,5.919-0.604c0.241-1.449,0.362-2.978,0.362-4.59c0-7.248-2.416-12.865-7.248-16.851
		c-4.832-3.986-11.013-5.979-18.542-5.979c-7.531,0-13.227,1.612-17.092,4.832c-2.899,2.014-4.952,5.034-6.16,9.06
		c-1.208,4.188-1.893,7.852-2.054,10.992c-0.242,4.349-0.362,7.41-0.362,9.181l0.121,7.006v6.764c0,7.169,0.483,12.967,1.45,17.395
		c0.966,4.43,1.831,7.389,2.597,8.878c0.764,1.491,1.751,3.141,2.959,4.953c1.208,1.812,2.616,3.2,4.228,4.167
		c3.784,2.335,8.012,3.503,12.684,3.503c16.911,0,26.01-5.677,27.299-17.032c0.644-2.978,0.966-6.662,0.966-11.052
		c0-4.389-0.322-9.804-0.966-16.247l-0.362-0.121L147.385,105.42z"/>
	<path fill="#003FDB" d="M201.742,64.833l1.812-0.242c0,0.242,3.383,14.858,10.146,43.848l9.302,43.606
		c-3.222,0.562-6.242,0.846-9.06,0.846c-2.82,0-6-0.403-9.543-1.208c-0.081-0.322-0.181-0.585-0.302-0.785
		c-0.121-0.201-0.202-0.383-0.242-0.543c-0.041-0.163-0.12-0.283-0.241-0.362c-0.121-0.081-0.202-0.163-0.241-0.242
		c-0.042-0.081-0.121-0.142-0.242-0.181c-0.12-0.042-0.223-0.103-0.302-0.182c-0.241-0.081-0.524-0.121-0.846-0.121
		c-0.725-2.174-1.47-4.851-2.234-8.032c-0.767-3.181-1.389-5.536-1.873-7.066c-0.483-1.529-1.008-2.295-1.57-2.295l-3.382,0.12
		c-0.404,1.129-1.068,4.168-1.993,9.12c-0.927,4.953-2.074,8.637-3.443,11.053l-2.657,0.241c-0.242,0-3.826-0.081-10.75-0.241
		l-6.402-0.121l0.362-2.415h-2.778l1.691-8.939c5.557-31.647,11.354-57.537,17.394-77.67c0.804-0.16,1.973-0.241,3.503-0.241
		l1.691,0.121c2.334,0,6.2-0.242,11.597-0.725C201.459,63.625,201.661,64.513,201.742,64.833z M189.663,128.371l3.503-0.121h1.57
		c0.161,0,0.966,0.081,2.416,0.241c0.804,1.691,1.812,5.014,3.02,9.966s2.093,8.195,2.657,9.724h0.121
		c3.141,0.725,6.079,1.087,8.817,1.087c2.737,0,5.194-0.201,7.369-0.604v-0.121l-9.06-42.277c-0.726-3.06-4.028-17.313-9.905-42.761
		c-3.545,0.323-7.048,0.483-10.509,0.483h-2.537c-0.966,0-1.57,0.042-1.812,0.121c-3.382,11.436-6.522,23.838-9.422,37.204
		c-2.899,13.369-5.115,24.521-6.644,33.459c-1.531,8.939-2.336,13.489-2.416,13.65c0.079,0.081,0.16,0.12,0.241,0.12h2.899
		l12.441,0.242c0.804,0,1.45-0.081,1.933-0.242c1.046-1.852,2.033-5.294,2.959-10.327
		C188.232,133.184,189.017,129.901,189.663,128.371z M197.756,114.117l-6.04,0.121c-0.404,0-0.906-0.019-1.51-0.06
		c-0.604-0.04-1.068-0.061-1.389-0.061c0.321-2.174,0.664-4.79,1.026-7.852c0.362-3.06,0.665-5.436,0.906-7.127
		c0.241-1.691,0.483-3.461,0.725-5.315c0.562-3.301,1.127-4.952,1.691-4.952C194.132,88.872,195.661,97.287,197.756,114.117z
		 M194.736,99.139c-0.081,0.564-0.725,5.155-1.933,13.771h3.503c-0.241-2.174-0.543-4.811-0.906-7.912
		C195.038,101.898,194.815,99.945,194.736,99.139z"/>
	<path fill="#003FDB" d="M277.842,76.067l0.241,25.487c0,5.798-0.081,9.542-0.241,11.234l-0.363,39.741
		c-2.255-0.322-4.831-0.483-7.73-0.483l-10.63,0.242c-0.081-0.564-0.12-1.41-0.12-2.537l-2.296,0.121
		c-0.241-4.268-0.383-10.751-0.423-19.448c-0.041-8.696-0.102-14.374-0.181-17.031c-0.564,1.37-0.927,2.336-1.087,2.899
		c-0.163,0.564-0.362,1.128-0.604,1.691c-0.241,0.564-0.443,1.027-0.604,1.39c-0.162,0.362-0.344,0.745-0.544,1.147
		c-0.202,0.403-0.383,0.745-0.543,1.026c-0.163,0.283-0.363,0.544-0.604,0.785c-0.404,0.404-0.806,0.604-1.208,0.604
		c-0.646,0-1.449-0.805-2.416-2.416c-1.208-0.079-2.657-2.133-4.349-6.161c-0.081,1.933-0.12,5.598-0.12,10.992
		c0,5.396,0.401,14.214,1.208,26.454c-3.141,0.483-6.483,0.725-10.026,0.725l-3.624,0.121c-4.269,0-6.401-0.927-6.401-2.778h-0.604
		c-0.646,0-1.147-0.404-1.51-1.208s-0.544-9.784-0.544-26.937c0-17.153,0.121-36.076,0.363-56.773
		c2.174-0.725,4.629-1.087,7.368-1.087l7.368,0.242c1.449,0,2.616-0.04,3.503-0.121c0.562,0.806,1.127,1.652,1.691,2.537
		l0.725-0.121c1.208,1.37,2.193,3.041,2.959,5.013c0.765,1.974,1.429,3.805,1.993,5.496c0.562,1.691,0.967,2.819,1.208,3.382
		c1.771-7.81,3.865-13.366,6.281-16.669c1.127,0.163,2.094,0.242,2.899,0.242l16.669-0.604l-0.12,2.416h2.536
		C277.881,67.693,277.842,71.156,277.842,76.067z M257.91,148.664l7.61-0.121h4.349c0.885,0,2.214,0.081,3.986,0.242l0.362-38.533
		c0.16-1.771,0.241-5.717,0.241-11.838l-0.241-24.763c0-4.107,0.039-7.167,0.12-9.18l-15.944,0.604c-1.129,0-1.772-0.04-1.933-0.121
		c-1.208,1.612-2.639,5.175-4.288,10.69c-1.651,5.517-2.597,8.235-2.839,8.154c-0.564,0-1.389-1.329-2.477-3.986
		c-1.087-2.658-2.234-5.557-3.442-8.697s-2.135-5.113-2.778-5.919h-0.12c-0.888,0.082-2.296,0.121-4.229,0.121l-4.349-0.121h-1.933
		c-2.657,0-4.631,0.202-5.919,0.604c-0.241,20.616-0.362,39.581-0.362,56.894c0,17.315,0.281,25.971,0.846,25.971l9.06,0.121
		c3.06,0,5.678-0.161,7.852-0.483c-0.725-11.032-1.087-19.931-1.087-26.695s0.241-13.125,0.725-19.085l0.362,1.208
		c0.16,0.404,0.502,1.37,1.027,2.899c0.522,1.531,1.026,2.92,1.51,4.167c0.482,1.25,1.006,2.597,1.57,4.046
		c1.368,2.98,2.374,4.47,3.02,4.47c0.562,0,1.852-2.718,3.865-8.154c2.012-5.436,3.262-8.595,3.745-9.482
		c0.644,5.315,1.066,14.114,1.268,26.393C257.688,140.35,257.829,147.215,257.91,148.664z"/>
	<path fill="#003FDB" d="M336.425,132.357l0.121,1.087c0.967,0,1.73-0.04,2.295-0.121v1.449c0.161,2.416,0.242,4.913,0.242,7.489
		c0,2.578-0.483,5.799-1.45,9.664l-31.647,0.362c-7.168,0-13.852-0.242-20.052-0.725v-2.296l-2.416-0.12l-0.725-53.512
		c0-10.146,0.321-20.614,0.967-31.406c15.058-0.725,29.15-1.087,42.277-1.087c6.36,0,9.703,0.483,10.025,1.449
		c0,0.806,0.402,1.389,1.208,1.751c0.805,0.363,1.208,0.585,1.208,0.665c0.321,1.854,0.483,3.947,0.483,6.281l-0.483,12.08
		c-4.106,0.966-9.301,1.449-15.582,1.449h-4.349l-4.711-0.121c-2.416,0-4.913,0.121-7.489,0.362l-0.362,8.697v1.087l2.174,0.121
		l4.711-0.121c0.402,0,2.416,0.121,6.04,0.362c0,1.531,0.362,2.295,1.087,2.295l1.329,0.121c0.402,2.095,0.604,4.55,0.604,7.368
		l-0.241,11.476c-2.256,0.646-5.175,0.987-8.758,1.026c-3.584,0.042-5.577,0.103-5.979,0.182c-0.242,1.208-0.363,3.04-0.363,5.496
		c0,2.457,0.04,4.209,0.121,5.254c9.664,0.483,16.387,0.726,20.173,0.726c3.784,0,6.964-0.08,9.542-0.242V132.357z M302.241,148.664
		l32.01-0.362c0.804-3.141,1.208-5.959,1.208-8.456c0-2.495-0.081-4.952-0.241-7.368v-0.241c-1.208,0.081-2.941,0.121-5.194,0.121
		l-26.454-0.726l-0.121-0.12c-0.322-2.013-0.482-4.609-0.482-7.791c0-3.181,0.16-5.617,0.482-7.309
		c0.483-0.402,2.637-0.604,6.463-0.604c3.824,0,6.542-0.241,8.153-0.725l0.121-10.509c0-2.818-0.121-4.911-0.362-6.281v-0.121
		c-5.557,0-10.509-0.121-14.857-0.362l-0.121-0.121c-0.322-1.208-0.483-2.737-0.483-4.59l0.362-9.542
		c0.967-0.242,3.824-0.362,8.576-0.362h9.543c5.878,0,10.549-0.402,14.012-1.208v-0.121l0.363-11.475
		c0-1.852-0.121-3.745-0.363-5.677c0-0.242-4.61-0.362-13.83-0.362c-9.222,0-21.28,0.362-36.178,1.087
		c-0.483,7.812-0.725,17.476-0.725,28.99l0.604,53.633C289.477,148.464,295.314,148.664,302.241,148.664z"/>
	<path fill="#003FDB" d="M345.12,149.631l-2.053,0.12c-1.45-10.549-2.175-24.038-2.175-40.465l0.241-31.89
		c0-5.234-0.021-8.535-0.06-9.905c-0.042-1.369-0.021-2.154,0.06-2.355c0.08-0.2,0.363-0.544,0.846-1.027
		c3.462-0.966,8.094-1.45,13.892-1.45l11.233,0.242c2.094,0,3.664-0.04,4.711-0.121c3.22,0.966,6.402,2.718,9.543,5.254
		s5.476,5.175,7.006,7.912h-0.121c3.462,5.235,5.959,11.275,7.489,18.119l-0.12-0.121c0.644,1.933,1.045,4.631,1.208,8.093
		c-0.082,1.449-0.163,3.826-0.242,7.126c-0.322,6.846-0.806,11.958-1.449,15.341c-2.98,8.455-8.335,17.515-16.065,27.178
		c-2.657,0.079-13.852,0.242-33.581,0.483L345.12,149.631z M371.695,63.988l-3.503,0.121l-11.959-0.242
		c-5.557,0-10.107,0.443-13.649,1.329c-0.242,0.242-0.362,0.404-0.362,0.483c0.079,2.578,0.12,6.443,0.12,11.596l-0.241,32.493
		c0,16.67,0.684,29.595,2.054,38.774l0.12-0.12c14.092,0,24.682-0.121,31.77-0.362c7.73-9.743,12.843-18.28,15.34-25.608
		l0.121-0.242c0.725-3.784,1.167-8.213,1.329-13.287c0.16-5.073,0.281-8.214,0.362-9.421c-0.483-9.018-3.262-17.474-8.335-25.367
		c-1.449-2.416-3.363-4.549-5.737-6.402C376.747,65.881,374.271,64.633,371.695,63.988z M359.374,113.271l0.241-15.34
		c0-1.852-0.081-4.307-0.241-7.369V90.08h0.362c1.449-0.242,2.979-0.363,4.59-0.363c3.302,0,5.979,1.008,8.033,3.02
		c2.054,2.014,3.361,4.209,3.926,6.583c0.562,2.376,0.846,5.194,0.846,8.456c0,3.262-1.129,6.665-3.383,10.207
		c-2.095,3.062-3.985,4.59-5.677,4.59h-0.242c-1.37,0.242-2.88,0.363-4.529,0.363c-1.651,0-2.88-0.363-3.685-1.088
		C359.453,118.145,359.374,115.286,359.374,113.271z M362.877,119.795l0.121,1.933h0.604c0.242,0,1.046-0.061,2.416-0.182
		c1.368-0.121,2.054-0.16,2.054-0.121c0,0.042,0.079,0.061,0.241,0.061c0.16,0,0.562-0.241,1.208-0.725h-0.121
		c1.208-0.725,2.335-1.891,3.383-3.503v0.121c2.093-3.141,3.141-6.744,3.141-10.811c0-4.065-1.208-8.193-3.624-12.381l-1.208-0.604
		c-1.933-0.161-3.321-0.242-4.167-0.242s-2.155,0.081-3.926,0.242c0.16,3.061,0.241,5.598,0.241,7.61L362.877,119.795z"/>
</g>
<g opacity="0.15">
	<path fill="#003FDB" d="M145.936,119.915h-4.711c-1.449,0-2.336-0.079-2.657-0.241c-0.163-1.691-0.242-3.745-0.242-6.161
		s-0.081-4.59-0.242-6.523v-0.121c0-0.079,0.04-0.121,0.121-0.121c0.079,0,0.16-0.04,0.241-0.121
		c1.208-0.725,2.878-1.106,5.013-1.147c2.133-0.04,4.086-0.061,5.858-0.061c1.771,0,4.488,0.121,8.153,0.362
		c3.664,0.242,5.576,0.363,5.738,0.363h0.242l0.121,0.121c0.644,5.557,0.966,10.63,0.966,15.22c0,4.591-0.322,8.618-0.966,12.079
		c-0.725,7.007-4.55,11.799-11.475,14.375c-6.04,1.691-11.134,2.536-15.28,2.536c-4.148,0-7.67-0.624-10.569-1.872
		c-2.899-1.247-5.236-2.999-7.006-5.254c-2.82-3.703-4.671-9.462-5.556-17.273c-0.887-8.939-1.329-15.42-1.329-19.448
		c0-10.709,0.483-19.064,1.45-25.064c0.966-5.998,3.301-10.286,7.006-12.865c3.784-3.22,9.38-4.832,16.791-4.832
		c7.408,0,13.608,1.914,18.602,5.738c4.992,3.826,7.489,9.403,7.489,16.73c0,1.772-0.121,3.423-0.362,4.952
		c-0.163,0.242-2.255,0.383-6.281,0.423c-4.028,0.042-7.006-0.06-8.939-0.302c-2.014-6.684-4.752-10.026-8.214-10.026
		c-0.725-0.08-1.431-0.121-2.114-0.121c-0.685,0-1.531,0.042-2.537,0.121c-1.008,0.081-1.812,0.423-2.416,1.027
		s-1.31,2.276-2.114,5.013c-1.208,4.27-1.812,9.965-1.812,17.092s0.221,12.985,0.665,17.576c0.441,4.59,1.71,7.73,3.805,9.422
		c1.208,0.806,2.676,1.208,4.409,1.208c1.73,0,3.684-0.402,5.858-1.208c2.012-0.886,3.261-2.335,3.745-4.349
		c0.242-0.967,0.423-2.295,0.543-3.986c0.121-1.691-0.021-2.778-0.423-3.262C147.183,119.915,146.661,119.915,145.936,119.915z"/>
	<path fill="#003FDB" d="M185.314,64.109c1.127-0.161,1.891-0.2,2.295-0.121c0.402,0.082,1.449,0.121,3.141,0.121
		c1.691,0,4.832-0.2,9.422-0.604l9.905,42.761l9.06,42.277v0.121c-2.015,0.402-4.349,0.604-7.007,0.604
		c-2.657,0-5.719-0.362-9.18-1.087h-0.121c-0.564-1.528-1.449-4.771-2.657-9.724s-2.216-8.274-3.02-9.966
		c-0.323-0.241-1.087-0.362-2.295-0.362l-5.194,0.242c-0.646,1.53-1.449,4.792-2.416,9.784c-0.967,4.994-1.933,8.455-2.899,10.388
		c-0.725,0.161-1.449,0.242-2.174,0.242l-15.099-0.242c-0.081,0-0.162-0.039-0.241-0.12c0.079-0.242,0.885-4.791,2.416-13.65
		c1.529-8.857,3.745-19.991,6.644-33.399C178.792,87.965,181.932,75.544,185.314,64.109z M188.817,114.117c2.978,0,5.958,0,8.938,0
		c-1.933-16.83-3.463-25.246-4.59-25.246c-0.323,0-0.646,0.604-0.966,1.812C191.876,91.891,190.75,99.703,188.817,114.117z"/>
	<path fill="#003FDB" d="M273.854,148.785c-1.933-0.242-4.31-0.362-7.127-0.362l-8.818,0.241c-0.081-1.449-0.223-8.314-0.423-20.596
		c-0.201-12.279-0.624-21.078-1.268-26.393c-0.564,0.887-1.371,2.859-2.416,5.919c-2.899,7.812-4.632,11.717-5.194,11.717
		c-0.564,0-1.249-0.825-2.054-2.477c-0.806-1.649-1.431-3.08-1.872-4.288c-0.443-1.208-0.887-2.395-1.329-3.563
		c-0.443-1.167-0.826-2.253-1.147-3.261c-0.322-1.006-0.685-2.072-1.087-3.201c-0.404,5.073-0.604,11.315-0.604,18.723
		c0,7.41,0.32,16.428,0.966,27.058c-2.255,0.402-4.994,0.604-8.214,0.604l-8.697-0.241c-0.162,0-0.322-0.281-0.483-0.846
		c-0.162-0.562-0.241-8.313-0.241-23.253c0-14.937,0.079-34.526,0.241-58.766c0.321-0.483,2.175-0.725,5.557-0.725l8.818,0.121
		c1.046,0,1.73,0,2.054,0h0.12c1.127,1.208,2.556,4.27,4.288,9.181c1.731,4.913,2.96,7.933,3.685,9.059
		c0.241,0.242,0.462,0.383,0.664,0.423c0.2,0.042,0.483-0.462,0.846-1.51c0.362-1.046,0.785-2.375,1.269-3.986
		c0.483-1.61,1.006-3.301,1.57-5.073c1.449-4.428,2.616-7.206,3.503-8.334c0.644,0.081,1.329,0.121,2.054,0.121l15.823-0.604
		c-0.081,2.174-0.12,4.873-0.12,8.093l0.241,25.608c0,5.073-0.081,9.101-0.241,12.08L273.854,148.785z"/>
	<path fill="#003FDB" d="M303.568,131.632l26.574,0.726c1.852,0,3.543-0.04,5.074-0.121v0.241c0.16,1.933,0.241,4.349,0.241,7.248
		c0,2.898-0.404,5.758-1.208,8.576l-34.306,0.362c-5.556,0-10.63-0.2-15.22-0.604l-0.604-56.652c0-9.099,0.241-17.757,0.725-25.971
		c13.608-0.725,25.325-1.087,35.15-1.087c9.824,0,14.776,0.121,14.857,0.362c0.242,1.691,0.363,3.503,0.363,5.436l-0.363,11.717
		v0.121c-3.544,0.806-8.214,1.208-14.012,1.208h-6.281c-4.511,0-8.295,0.081-11.354,0.241h-0.362l-0.121,0.121l-0.362,10.509
		c0,2.095,0.2,3.343,0.604,3.745c4.349,0.242,9.301,0.362,14.857,0.362v0.121c0.32,0.241,0.483,1.933,0.483,5.073l-0.242,11.717
		c-1.69,0.483-4.409,0.725-8.153,0.725s-5.9,0.202-6.463,0.604c-0.322,1.691-0.482,3.805-0.482,6.342s0.16,5.456,0.482,8.758
		L303.568,131.632z"/>
	<path fill="#003FDB" d="M357.562,63.867l11.233,0.121c1.127,0,2.093,0,2.899,0c2.576,0.646,5.052,1.893,7.429,3.745
		c2.374,1.854,4.288,3.986,5.737,6.402c3.301,5.154,5.717,11.073,7.248,17.756c0.562,1.691,0.925,4.228,1.087,7.61
		c-0.081,1.208-0.162,3.08-0.242,5.617c-0.081,2.537-0.162,4.53-0.241,5.979c-0.241,4.511-0.504,7.51-0.785,9
		c-0.283,1.491-0.443,2.234-0.483,2.234c-0.041,0-0.061,0.042-0.061,0.121c-2.657,7.651-7.771,16.187-15.34,25.608
		c-7.088,0.241-17.678,0.362-31.77,0.362l-0.12,0.12c-1.37-9.823-2.054-23.594-2.054-41.311l0.241-30.319
		c0-4.428-0.041-8.173-0.12-11.234l0.362-0.483C346.367,64.311,351.359,63.867,357.562,63.867z M359.494,99.139v12.804
		c0,3.947,0.039,7.248,0.12,9.905c0.805,0.646,2.013,0.967,3.624,0.967c2.818,0,5.073-0.321,6.765-0.967
		c1.287-0.804,2.536-2.093,3.744-3.865c2.254-3.461,3.383-7.045,3.383-10.75c0-2.657-0.404-5.273-1.208-7.852
		c-1.612-5.234-3.986-8.375-7.127-9.422c-1.612-0.242-3.183-0.362-4.711-0.362c-1.53,0-2.98,0.162-4.349,0.483h-0.362v0.483
		C359.452,92.495,359.494,95.354,359.494,99.139z"/>
</g>
</svg>
