<?xml version="1.0" encoding="utf-8"?>
<!-- Generator: Adobe Illustrator 16.2.0, SVG Export Plug-In . SVG Version: 6.00 Build 0)  -->
<!DOCTYPE svg PUBLIC "-//W3C//DTD SVG 1.1//EN" "http://www.w3.org/Graphics/SVG/1.1/DTD/svg11.dtd">
<svg version="1.1" id="Layer_1" xmlns="http://www.w3.org/2000/svg" xmlns:xlink="http://www.w3.org/1999/xlink" x="0px" y="0px"
	 width="450px" height="180px" viewBox="0 0 450 180" enable-background="new 0 0 450 180" xml:space="preserve">
<ellipse opacity="0.3" fill="none" stroke="#000000" stroke-width="2.2979" stroke-miterlimit="10" cx="92.76" cy="90.357" rx="22.2" ry="82.606"/>
<path opacity="0.3" fill="none" stroke="#000000" stroke-width="2.2979" stroke-miterlimit="10" d="M103.859,71.13
	c39.511,22.812,66.571,49.911,60.44,60.53c-6.133,10.618-43.13,0.733-82.64-22.076C42.148,86.771,15.09,59.672,21.221,49.053
	C27.351,38.435,64.349,48.32,103.859,71.13z"/>
<ellipse transform="matrix(-0.5 -0.866 0.866 -0.5 60.8828 215.866)" opacity="0.3" fill="none" stroke="#000000" stroke-width="2.2979" stroke-miterlimit="10" cx="92.759" cy="90.357" rx="22.201" ry="82.608"/>
<circle opacity="0.3" cx="92.33" cy="89.928" r="12.821"/>
<circle opacity="0.8" fill="#003FDB" cx="33.594" cy="44.801" r="5.859"/>
<rect x="138.5" y="90.5" fill="#FFFFFF" stroke="#FFFFFF" stroke-miterlimit="10" width="20" height="50"/>
<rect x="124.5" y="45.5" fill="#FFFFFF" stroke="#FFFFFF" stroke-miterlimit="10" width="19" height="6"/>
<g>
	<path fill="#333333" stroke="#FFFFFF" stroke-width="7" stroke-miterlimit="10" d="M140.984,55.239
		c0,3.751-2.264,5.625-6.791,5.625c-4.527,0-6.791-1.874-6.791-5.625v-3.415h2.812v3.575c0,0.965,0.335,1.715,1.005,2.251
		c0.669,0.536,1.661,0.803,2.973,0.803c1.312,0,2.304-0.267,2.974-0.803c0.669-0.536,1.004-1.266,1.004-2.19
		c0-0.924-0.101-1.66-0.301-2.21c-0.201-0.549-0.61-1.131-1.226-1.748l-7.072-6.911c-0.831-0.829-1.4-1.64-1.708-2.431
		c-0.309-0.79-0.462-1.788-0.462-2.993c0-1.794,0.556-3.181,1.667-4.159c1.111-0.978,2.792-1.466,5.043-1.466
		c4.312,0,6.469,1.875,6.469,5.625v3.415h-2.812v-3.576c0-0.964-0.315-1.714-0.944-2.25c-0.629-0.535-1.574-0.804-2.833-0.804
		c-1.26,0-2.204,0.269-2.833,0.804c-0.629,0.536-0.944,1.272-0.944,2.21c0,0.938,0.094,1.675,0.281,2.21
		c0.188,0.536,0.603,1.099,1.246,1.688l7.192,6.911c0.777,0.857,1.312,1.682,1.607,2.472
		C140.836,53.036,140.984,54.034,140.984,55.239z"/>
	<path fill="#333333" stroke="#FFFFFF" stroke-width="7" stroke-miterlimit="10" d="M176.542,55.239v-2.21h2.812v2.21
		c0,1.795-0.549,3.181-1.647,4.158c-1.099,0.978-2.746,1.467-4.942,1.467c-2.197,0-3.857-0.489-4.982-1.467
		s-1.688-2.363-1.688-4.158V39.167c0-1.794,0.548-3.181,1.647-4.159c1.098-0.978,2.745-1.466,4.942-1.466
		c2.196,0,3.857,0.488,4.982,1.466c1.125,0.979,1.688,2.365,1.688,4.159v3.817h-2.812v-3.817c0-2.143-1.272-3.215-3.817-3.215
		s-3.817,1.072-3.817,3.215v16.072c0,2.144,1.272,3.214,3.817,3.214S176.542,57.383,176.542,55.239z"/>
	<path fill="#333333" stroke="#FFFFFF" stroke-width="7" stroke-miterlimit="10" d="M207.681,60.262h-2.812V34.145h2.812V60.262z"/>
	<path fill="#333333" stroke="#FFFFFF" stroke-width="7" stroke-miterlimit="10" d="M244.044,55.239v-2.21h2.812v2.21
		c0,1.795-0.549,3.181-1.647,4.158s-2.746,1.467-4.942,1.467s-3.857-0.489-4.982-1.467s-1.688-2.363-1.688-4.158V39.167
		c0-1.794,0.549-3.181,1.647-4.159c1.099-0.978,2.746-1.466,4.942-1.466s3.857,0.488,4.982,1.466
		c1.125,0.979,1.688,2.365,1.688,4.159v8.84h-10.447v7.232c0,2.144,1.272,3.214,3.817,3.214S244.044,57.383,244.044,55.239z
		 M236.409,39.167v6.429h7.635v-6.429c0-2.143-1.272-3.215-3.817-3.215S236.409,37.024,236.409,39.167z"/>
	<path fill="#333333" stroke="#FFFFFF" stroke-width="7" stroke-miterlimit="10" d="M275.585,60.262h-2.813V34.145h1.206
		l1.004,2.611c1.286-2.143,3.067-3.214,5.345-3.214c3.938,0,5.906,1.875,5.906,5.625v21.095h-2.812V39.167
		c0-1.018-0.221-1.809-0.663-2.371s-1.253-0.844-2.431-0.844c-1.18,0-2.265,0.456-3.255,1.366c-0.991,0.911-1.486,1.795-1.486,2.652
		V60.262z"/>
	<path fill="#333333" stroke="#FFFFFF" stroke-width="7" stroke-miterlimit="10" d="M322.193,55.239v-2.21h2.812v2.21
		c0,1.795-0.549,3.181-1.647,4.158s-2.746,1.467-4.942,1.467s-3.857-0.489-4.982-1.467s-1.688-2.363-1.688-4.158V39.167
		c0-1.794,0.549-3.181,1.647-4.159c1.099-0.978,2.746-1.466,4.942-1.466s3.857,0.488,4.982,1.466
		c1.125,0.979,1.688,2.365,1.688,4.159v3.817h-2.812v-3.817c0-2.143-1.272-3.215-3.817-3.215s-3.817,1.072-3.817,3.215v16.072
		c0,2.144,1.272,3.214,3.817,3.214S322.193,57.383,322.193,55.239z"/>
	<path fill="#333333" stroke="#FFFFFF" stroke-width="7" stroke-miterlimit="10" d="M360.364,55.239v-2.21h2.812v2.21
		c0,1.795-0.549,3.181-1.647,4.158s-2.746,1.467-4.942,1.467s-3.857-0.489-4.982-1.467s-1.688-2.363-1.688-4.158V39.167
		c0-1.794,0.549-3.181,1.647-4.159c1.099-0.978,2.746-1.466,4.942-1.466s3.857,0.488,4.982,1.466
		c1.125,0.979,1.688,2.365,1.688,4.159v8.84h-10.447v7.232c0,2.144,1.272,3.214,3.817,3.214S360.364,57.383,360.364,55.239z
		 M352.729,39.167v6.429h7.635v-6.429c0-2.143-1.272-3.215-3.817-3.215S352.729,37.024,352.729,39.167z"/>
	<path fill="#333333" stroke="#FFFFFF" stroke-width="7" stroke-miterlimit="10" d="M382.864,44.189h-3.616v-4.42h3.616V44.189z
		 M382.864,60.262h-3.616v-4.42h3.616V60.262z"/>
</g>
<g opacity="0.8">
	<path fill="#333333" d="M142.949,53.405c0,4.189-2.529,6.284-7.585,6.284c-5.057,0-7.585-2.094-7.585-6.284V49.59h3.142v3.995
		c0,1.077,0.374,1.915,1.122,2.513c0.748,0.599,1.855,0.898,3.321,0.898c1.465,0,2.573-0.299,3.321-0.898
		c0.748-0.598,1.122-1.414,1.122-2.446s-0.112-1.855-0.337-2.469c-0.224-0.613-0.681-1.264-1.369-1.952l-7.899-7.72
		c-0.928-0.927-1.564-1.833-1.907-2.715c-0.345-0.882-0.517-1.998-0.517-3.344c0-2.004,0.621-3.553,1.863-4.646
		c1.241-1.092,3.119-1.638,5.633-1.638c4.817,0,7.226,2.095,7.226,6.284v3.815h-3.142v-3.995c0-1.077-0.352-1.915-1.055-2.513
		c-0.703-0.598-1.758-0.898-3.164-0.898c-1.407,0-2.461,0.3-3.164,0.898c-0.704,0.599-1.055,1.421-1.055,2.468
		c0,1.048,0.104,1.871,0.314,2.469c0.209,0.599,0.673,1.227,1.392,1.885l8.034,7.72c0.868,0.958,1.466,1.878,1.795,2.76
		C142.784,50.944,142.949,52.059,142.949,53.405z"/>
	<path fill="#333333" d="M182.669,53.405v-2.468h3.142v2.468c0,2.005-0.614,3.554-1.84,4.646c-1.227,1.092-3.067,1.638-5.52,1.638
		c-2.454,0-4.309-0.546-5.565-1.638C171.628,56.959,171,55.41,171,53.405V35.453c0-2.004,0.613-3.553,1.84-4.646
		c1.227-1.092,3.066-1.638,5.521-1.638c2.453,0,4.309,0.546,5.565,1.638c1.256,1.093,1.885,2.641,1.885,4.646v4.264h-3.142v-4.264
		c0-2.394-1.421-3.591-4.264-3.591c-2.843,0-4.264,1.197-4.264,3.591v17.953c0,2.394,1.421,3.591,4.264,3.591
		C181.248,56.996,182.669,55.799,182.669,53.405z"/>
	<path fill="#333333" d="M217.452,59.016h-3.142V29.842h3.142V59.016z"/>
	<path fill="#333333" d="M258.068,53.405v-2.468h3.142v2.468c0,2.005-0.613,3.554-1.84,4.646c-1.228,1.092-3.067,1.638-5.521,1.638
		c-2.454,0-4.309-0.546-5.565-1.638s-1.885-2.641-1.885-4.646V35.453c0-2.004,0.612-3.553,1.84-4.646
		c1.227-1.092,3.066-1.638,5.521-1.638c2.453,0,4.309,0.546,5.565,1.638c1.257,1.093,1.885,2.641,1.885,4.646v9.874h-11.669v8.079
		c0,2.394,1.421,3.591,4.264,3.591C256.646,56.996,258.068,55.799,258.068,53.405z M249.541,35.453v7.181h8.527v-7.181
		c0-2.394-1.422-3.591-4.264-3.591C250.962,31.862,249.541,33.059,249.541,35.453z"/>
	<path fill="#333333" d="M293.3,59.016h-3.142V29.842h1.347l1.122,2.917c1.436-2.394,3.426-3.591,5.969-3.591
		c4.398,0,6.598,2.095,6.598,6.284v23.563h-3.142V35.453c0-1.137-0.247-2.02-0.74-2.648c-0.494-0.628-1.399-0.943-2.716-0.943
		s-2.528,0.509-3.635,1.526c-1.107,1.018-1.661,2.005-1.661,2.962V59.016z"/>
	<path fill="#333333" d="M345.361,53.405v-2.468h3.142v2.468c0,2.005-0.613,3.554-1.84,4.646c-1.228,1.092-3.067,1.638-5.521,1.638
		c-2.454,0-4.309-0.546-5.565-1.638s-1.885-2.641-1.885-4.646V35.453c0-2.004,0.612-3.553,1.84-4.646
		c1.227-1.092,3.066-1.638,5.521-1.638c2.453,0,4.309,0.546,5.565,1.638c1.257,1.093,1.885,2.641,1.885,4.646v4.264h-3.142v-4.264
		c0-2.394-1.422-3.591-4.264-3.591c-2.843,0-4.264,1.197-4.264,3.591v17.953c0,2.394,1.421,3.591,4.264,3.591
		C343.939,56.996,345.361,55.799,345.361,53.405z"/>
	<path fill="#333333" d="M387.998,53.405v-2.468h3.142v2.468c0,2.005-0.613,3.554-1.84,4.646c-1.228,1.092-3.067,1.638-5.521,1.638
		c-2.454,0-4.309-0.546-5.565-1.638s-1.885-2.641-1.885-4.646V35.453c0-2.004,0.612-3.553,1.84-4.646
		c1.227-1.092,3.066-1.638,5.521-1.638c2.453,0,4.309,0.546,5.565,1.638c1.257,1.093,1.885,2.641,1.885,4.646v9.874h-11.669v8.079
		c0,2.394,1.421,3.591,4.264,3.591C386.576,56.996,387.998,55.799,387.998,53.405z M379.471,35.453v7.181h8.527v-7.181
		c0-2.394-1.422-3.591-4.264-3.591C380.892,31.862,379.471,33.059,379.471,35.453z"/>
	<path fill="#333333" d="M413.132,41.063h-4.039v-4.937h4.039V41.063z M413.132,59.016h-4.039v-4.937h4.039V59.016z"/>
</g>
<g>
	<g>
		<path fill="#003FDB" stroke="#FFFFFF" stroke-width="14.0666" stroke-miterlimit="10" d="M148.385,126.695v-7.285h22.097v40.066
			h-3.643l-3.157-7.771c-1.7,2.914-3.927,5.241-6.678,6.981c-2.752,1.739-5.748,2.61-8.984,2.61
			c-11.737,0-17.605-5.665-17.605-16.998V95.734c0-5.422,1.658-9.611,4.978-12.566c3.318-2.954,8.296-4.432,14.934-4.432
			c6.636,0,11.656,1.478,15.055,4.432c3.4,2.956,5.1,7.145,5.1,12.566v6.678h-8.499v-6.678c0-6.475-3.845-9.713-11.534-9.713
			c-7.691,0-11.534,3.238-11.534,9.713V144.3c0,3.077,0.646,5.464,1.942,7.163c1.294,1.7,3.662,2.55,7.103,2.55
			c3.439,0,6.636-1.375,9.592-4.128c2.954-2.751,4.432-5.422,4.432-8.013v-15.177H148.385z"/>
	</g>
</g>
<g opacity="0.8">
	<g>
		<path fill="#003FDB" stroke="#003FDB" stroke-width="1.1722" stroke-miterlimit="10" d="M148.385,125.695v-7.285h22.097v40.066
			h-3.643l-3.157-7.771c-1.7,2.914-3.927,5.241-6.678,6.981c-2.752,1.739-5.748,2.61-8.984,2.61
			c-11.737,0-17.605-5.665-17.605-16.998V94.734c0-5.422,1.658-9.611,4.978-12.566c3.318-2.954,8.296-4.432,14.934-4.432
			c6.636,0,11.656,1.478,15.055,4.432c3.4,2.956,5.1,7.145,5.1,12.566v6.678h-8.499v-6.678c0-6.475-3.845-9.713-11.534-9.713
			c-7.691,0-11.534,3.238-11.534,9.713V143.3c0,3.077,0.646,5.464,1.942,7.163c1.294,1.7,3.662,2.55,7.103,2.55
			c3.439,0,6.636-1.375,9.592-4.128c2.954-2.751,4.432-5.422,4.432-8.013v-15.177H148.385z"/>
		<path fill="#003FDB" stroke="#003FDB" stroke-width="1.1722" stroke-miterlimit="10" d="M204.114,79.558h12.748l17.849,78.919
			h-8.5l-4.128-18.212h-23.19l-4.128,18.212h-8.499L204.114,79.558z M210.428,89.028l-9.956,43.952h19.912L210.428,89.028z"/>
		<path fill="#003FDB" stroke="#003FDB" stroke-width="1.1722" stroke-miterlimit="10" d="M257.293,158.477h-8.499V79.558h12.748
			l13.841,52.087l13.963-52.087h12.749v78.919h-8.499v-65.32l-14.206,53.179h-7.892l-14.205-53.179V158.477z"/>
		<path fill="#003FDB" stroke="#003FDB" stroke-width="1.1722" stroke-miterlimit="10" d="M356,158.477h-35.816V79.558h34.603v7.285
			h-26.104v27.925h21.247v7.285h-21.247v29.139H356V158.477z"/>
		<path fill="#003FDB" stroke="#003FDB" stroke-width="1.1722" stroke-miterlimit="10" d="M393.759,158.477h-19.547V79.558h19.547
			c6.314,0,11.109,1.499,14.388,4.492c3.278,2.996,4.918,7.164,4.918,12.506v44.923c0,5.424-1.62,9.612-4.857,12.566
			C404.969,157.001,400.152,158.477,393.759,158.477z M404.565,141.479V96.556c0-2.59-0.953-4.856-2.854-6.799
			c-1.902-1.942-4.553-2.914-7.953-2.914h-11.048v64.349h11.048c3.4,0,6.051-0.95,7.953-2.853
			C403.612,146.438,404.565,144.149,404.565,141.479z"/>
	</g>
</g>
</svg>
