<?xml version="1.0" encoding="utf-8"?>
<!-- Generator: Adobe Illustrator 16.2.0, SVG Export Plug-In . SVG Version: 6.00 Build 0)  -->
<!DOCTYPE svg PUBLIC "-//W3C//DTD SVG 1.1//EN" "http://www.w3.org/Graphics/SVG/1.1/DTD/svg11.dtd">
<svg version="1.1" xmlns="http://www.w3.org/2000/svg" xmlns:xlink="http://www.w3.org/1999/xlink" x="0px" y="0px" width="450px"
	 height="180px" viewBox="0 0 450 180" enable-background="new 0 0 450 180" xml:space="preserve">
<g id="Base" display="none">
	<rect x="-67.5" y="-58.5" display="inline" fill="#FFA449" stroke="#003FDB" stroke-miterlimit="10" width="559" height="273"/>
</g>
<g id="Atom">
	
		<ellipse opacity="0.3" fill="none" stroke="#000000" stroke-width="2.2979" stroke-miterlimit="10" cx="92.76" cy="90.357" rx="22.2" ry="82.606"/>
	<circle opacity="0.3" cx="92.33" cy="89.928" r="12.821"/>
	<circle opacity="0.8" fill="#003FDB" cx="33.594" cy="44.801" r="5.859"/>
</g>
<g id="GAMED">
	<g opacity="0.8">
		<g>
			<path fill="#003FDB" stroke="#003FDB" stroke-width="1.1722" stroke-miterlimit="10" d="M147.385,122.695v-7.285h22.097v40.066
				h-3.643l-3.157-7.771c-1.7,2.914-3.927,5.241-6.678,6.981c-2.752,1.739-5.748,2.61-8.984,2.61
				c-11.737,0-17.605-5.665-17.605-16.998V91.734c0-5.422,1.658-9.611,4.978-12.566c3.318-2.954,8.296-4.432,14.934-4.432
				c6.636,0,11.656,1.478,15.055,4.432c3.4,2.956,5.1,7.145,5.1,12.566v6.678h-8.499v-6.678c0-6.475-3.845-9.713-11.534-9.713
				c-7.691,0-11.534,3.238-11.534,9.713V140.3c0,3.077,0.646,5.464,1.942,7.163c1.294,1.7,3.662,2.55,7.103,2.55
				c3.439,0,6.636-1.375,9.592-4.128c2.954-2.751,4.432-5.422,4.432-8.013v-15.177H147.385z"/>
			<path fill="#003FDB" stroke="#003FDB" stroke-width="1.1722" stroke-miterlimit="10" d="M203.114,76.558h12.748l17.849,78.919
				h-8.5l-4.128-18.212h-23.19l-4.128,18.212h-8.499L203.114,76.558z M209.428,86.028l-9.956,43.952h19.912L209.428,86.028z"/>
			<path fill="#003FDB" stroke="#003FDB" stroke-width="1.1722" stroke-miterlimit="10" d="M256.292,155.477h-8.499V76.558h12.748
				l13.841,52.087l13.963-52.087h12.749v78.919h-8.499v-65.32l-14.206,53.179h-7.892l-14.205-53.179V155.477z"/>
			<path fill="#003FDB" stroke="#003FDB" stroke-width="1.1722" stroke-miterlimit="10" d="M355,155.477h-35.816V76.558h34.603
				v7.285h-26.104v27.925h21.247v7.285h-21.247v29.139H355V155.477z"/>
			<path fill="#003FDB" stroke="#003FDB" stroke-width="1.1722" stroke-miterlimit="10" d="M392.759,155.477h-19.547V76.558h19.547
				c6.314,0,11.109,1.499,14.388,4.492c3.278,2.996,4.918,7.164,4.918,12.506v44.923c0,5.424-1.62,9.612-4.857,12.566
				C403.969,154.001,399.152,155.477,392.759,155.477z M403.565,138.479V93.556c0-2.59-0.953-4.856-2.854-6.799
				c-1.902-1.942-4.553-2.914-7.953-2.914h-11.048v64.349h11.048c3.4,0,6.051-0.95,7.953-2.853
				C402.612,143.438,403.565,141.149,403.565,138.479z"/>
		</g>
	</g>
	<g>
		<path opacity="0.3" d="M126,128.991c-13-4.569-28.523-11.626-43.724-20.402C63.251,97.604,46.504,85.297,35.158,73.934
			c-10.854-10.871-15.574-19.73-12.932-24.307c1.762-3.051,6.584-3.691,10.325-3.691c15.414,0,43.178,10.28,70.735,26.189
			c8.507,4.912,16.214,9.88,23.081,14.757c0.155-0.806,0.357-1.58,0.593-2.332c-7.104-5.03-14.741-9.92-22.527-14.416
			c-27.882-16.096-56.1-26.497-71.888-26.497c-6.32,0-10.465,1.628-12.32,4.84c-4.384,7.594,6.442,20.226,13.285,27.08
			c11.484,11.502,28.421,23.939,47.616,35.021C96.709,119.574,112,126.789,126,131.405V128.991z"/>
	</g>
	<g>
		<g opacity="0.3">
			<path d="M126,94.152c-7,4.774-14.353,9.633-22.673,14.437c-27.559,15.909-55.346,26.188-70.759,26.188
				c-3.74,0-8.579-0.641-10.341-3.691c-2.643-4.577,2.062-13.437,12.916-24.307c11.346-11.363,28.18-23.67,47.204-34.654
				C97.114,63.6,112,56.695,125,52.118v-2.416c-14,4.628-28.654,11.687-43.805,20.432c-19.194,11.083-36.145,23.52-47.629,35.021
				c-6.843,6.854-17.697,19.486-13.312,27.079c1.854,3.212,5.985,4.841,12.306,4.841c15.787,0,44.04-10.4,71.922-26.496
				c7.406-4.276,14.518-8.91,21.518-13.681V94.152z"/>
		</g>
		<g opacity="0.3">
			<path d="M144.084,46.813c3.277-0.573,6.266-0.877,8.889-0.877c3.74,0,8.569,0.641,10.331,3.691
				c2.39,4.139-1.409,12.033-10.485,21.767c0.974,0.081,1.912,0.199,2.82,0.35c8.604-9.446,12.786-17.843,9.656-23.266
				c-1.855-3.212-6.001-4.84-12.321-4.84c-3.086,0-6.653,0.403-10.595,1.163l0.505,0.487
				C143.342,45.794,143.733,46.303,144.084,46.813z"/>
		</g>
	</g>
</g>
<g id="science:">
	<g opacity="0.8">
		<path fill="#333333" d="M142.949,53.405c0,4.189-2.529,6.284-7.585,6.284c-5.057,0-7.585-2.094-7.585-6.284V49.59h3.142v3.995
			c0,1.077,0.374,1.915,1.122,2.513c0.748,0.599,1.855,0.898,3.321,0.898c1.465,0,2.573-0.299,3.321-0.898
			c0.748-0.598,1.122-1.414,1.122-2.446s-0.112-1.855-0.337-2.469c-0.224-0.613-0.681-1.264-1.369-1.952l-7.899-7.72
			c-0.928-0.927-1.564-1.833-1.907-2.715c-0.345-0.882-0.517-1.998-0.517-3.344c0-2.004,0.621-3.553,1.863-4.646
			c1.241-1.092,3.119-1.638,5.633-1.638c4.817,0,7.226,2.095,7.226,6.284v3.815h-3.142v-3.995c0-1.077-0.352-1.915-1.055-2.513
			c-0.703-0.598-1.758-0.898-3.164-0.898c-1.407,0-2.461,0.3-3.164,0.898c-0.704,0.599-1.055,1.421-1.055,2.468
			c0,1.048,0.104,1.871,0.314,2.469c0.209,0.599,0.673,1.227,1.392,1.885l8.034,7.72c0.868,0.958,1.466,1.878,1.795,2.76
			C142.784,50.944,142.949,52.059,142.949,53.405z"/>
		<path fill="#333333" d="M182.669,53.405v-2.468h3.142v2.468c0,2.005-0.614,3.554-1.84,4.646c-1.227,1.092-3.067,1.638-5.52,1.638
			c-2.454,0-4.309-0.546-5.565-1.638C171.628,56.959,171,55.41,171,53.405V35.453c0-2.004,0.613-3.553,1.84-4.646
			c1.227-1.092,3.066-1.638,5.521-1.638c2.453,0,4.309,0.546,5.565,1.638c1.256,1.093,1.885,2.641,1.885,4.646v4.264h-3.142v-4.264
			c0-2.394-1.421-3.591-4.264-3.591c-2.843,0-4.264,1.197-4.264,3.591v17.953c0,2.394,1.421,3.591,4.264,3.591
			C181.248,56.996,182.669,55.799,182.669,53.405z"/>
		<path fill="#333333" d="M217.451,59.016h-3.142V29.842h3.142V59.016z"/>
		<path fill="#333333" d="M258.068,53.405v-2.468h3.142v2.468c0,2.005-0.613,3.554-1.84,4.646c-1.228,1.092-3.067,1.638-5.521,1.638
			c-2.454,0-4.309-0.546-5.565-1.638s-1.885-2.641-1.885-4.646V35.453c0-2.004,0.612-3.553,1.84-4.646
			c1.227-1.092,3.066-1.638,5.521-1.638c2.453,0,4.309,0.546,5.565,1.638c1.257,1.093,1.885,2.641,1.885,4.646v9.874h-11.669v8.079
			c0,2.394,1.421,3.591,4.264,3.591C256.646,56.996,258.068,55.799,258.068,53.405z M249.541,35.453v7.181h8.527v-7.181
			c0-2.394-1.422-3.591-4.264-3.591C250.962,31.862,249.541,33.059,249.541,35.453z"/>
		<path fill="#333333" d="M293.301,59.016h-3.142V29.842h1.347l1.122,2.917c1.436-2.394,3.426-3.591,5.969-3.591
			c4.398,0,6.598,2.095,6.598,6.284v23.563h-3.142V35.453c0-1.137-0.247-2.02-0.74-2.648c-0.494-0.628-1.399-0.943-2.716-0.943
			s-2.528,0.509-3.635,1.526c-1.107,1.018-1.661,2.005-1.661,2.962V59.016z"/>
		<path fill="#333333" d="M345.363,53.405v-2.468h3.142v2.468c0,2.005-0.613,3.554-1.84,4.646c-1.228,1.092-3.067,1.638-5.521,1.638
			c-2.454,0-4.309-0.546-5.565-1.638s-1.885-2.641-1.885-4.646V35.453c0-2.004,0.612-3.553,1.84-4.646
			c1.227-1.092,3.066-1.638,5.521-1.638c2.453,0,4.309,0.546,5.565,1.638c1.257,1.093,1.885,2.641,1.885,4.646v4.264h-3.142v-4.264
			c0-2.394-1.422-3.591-4.264-3.591c-2.843,0-4.264,1.197-4.264,3.591v17.953c0,2.394,1.421,3.591,4.264,3.591
			C343.941,56.996,345.363,55.799,345.363,53.405z"/>
		<path fill="#333333" d="M388,53.405v-2.468h3.142v2.468c0,2.005-0.613,3.554-1.84,4.646c-1.228,1.092-3.067,1.638-5.521,1.638
			c-2.454,0-4.309-0.546-5.565-1.638s-1.885-2.641-1.885-4.646V35.453c0-2.004,0.612-3.553,1.84-4.646
			c1.227-1.092,3.066-1.638,5.521-1.638c2.453,0,4.309,0.546,5.565,1.638c1.257,1.093,1.885,2.641,1.885,4.646v9.874h-11.669v8.079
			c0,2.394,1.421,3.591,4.264,3.591C386.578,56.996,388,55.799,388,53.405z M379.473,35.453v7.181H388v-7.181
			c0-2.394-1.422-3.591-4.264-3.591C380.894,31.862,379.473,33.059,379.473,35.453z"/>
		<path fill="#333333" d="M413.134,41.063h-4.039v-4.937h4.039V41.063z M413.134,59.016h-4.039v-4.937h4.039V59.016z"/>
	</g>
</g>
</svg>
