<?xml version="1.0" encoding="utf-8"?>
<!-- Generator: Adobe Illustrator 16.2.0, SVG Export Plug-In . SVG Version: 6.00 Build 0)  -->
<!DOCTYPE svg PUBLIC "-//W3C//DTD SVG 1.1//EN" "http://www.w3.org/Graphics/SVG/1.1/DTD/svg11.dtd">
<svg version="1.1" id="Layer_1" xmlns="http://www.w3.org/2000/svg" xmlns:xlink="http://www.w3.org/1999/xlink" x="0px" y="0px"
	 width="400px" height="200px" viewBox="0 0 400 200" enable-background="new 0 0 400 200" xml:space="preserve">
<ellipse opacity="0.3" fill="none" stroke="#000000" stroke-width="2.2979" stroke-miterlimit="10" cx="75.76" cy="98.357" rx="22.2" ry="82.607"/>
<path opacity="0.3" fill="none" stroke="#000000" stroke-width="2.2979" stroke-miterlimit="10" d="M86.859,79.13
	c39.511,22.812,66.571,49.911,60.44,60.53c-6.133,10.618-43.13,0.733-82.64-22.076C25.148,94.771-1.91,67.672,4.221,57.053
	C10.351,46.435,47.349,56.32,86.859,79.13z"/>
<ellipse transform="matrix(-0.5 -0.866 0.866 -0.5 28.455 213.143)" opacity="0.3" fill="none" stroke="#000000" stroke-width="2.2979" stroke-miterlimit="10" cx="75.759" cy="98.357" rx="22.201" ry="82.608"/>
<circle opacity="0.3" cx="75.33" cy="97.928" r="12.821"/>
<circle fill="#003FDB" cx="16.594" cy="52.801" r="5.859"/>
<rect x="107" y="70" fill="#FFFFFF" width="54" height="90"/>
<g>
	<path stroke="#FFFFFF" stroke-width="4.5957" stroke-miterlimit="10" d="M121.82,44.118l-4.631,2.465
		c-0.731-1.478-1.636-2.216-2.714-2.216c-0.515,0-0.955,0.17-1.32,0.51c-0.366,0.34-0.548,0.775-0.548,1.306
		c0,0.929,1.079,1.849,3.237,2.761c2.971,1.277,4.972,2.454,6.001,3.532c1.029,1.078,1.544,2.529,1.544,4.353
		c0,2.338-0.863,4.295-2.589,5.87c-1.677,1.492-3.703,2.238-6.076,2.238c-4.068,0-6.948-1.983-8.641-5.952l4.781-2.216
		c0.664,1.162,1.17,1.901,1.519,2.216c0.68,0.631,1.494,0.946,2.44,0.946c1.893,0,2.839-0.863,2.839-2.59
		c0-0.996-0.731-1.925-2.191-2.789c-0.565-0.282-1.129-0.556-1.693-0.822c-0.565-0.265-1.138-0.539-1.718-0.822
		c-1.627-0.797-2.773-1.594-3.437-2.391c-0.847-1.012-1.27-2.316-1.27-3.909c0-2.108,0.722-3.852,2.167-5.229
		c1.478-1.378,3.27-2.067,5.379-2.067C118.001,39.312,120.309,40.914,121.82,44.118z"/>
	<path stroke="#FFFFFF" stroke-width="4.5957" stroke-miterlimit="10" d="M163.033,41.03v7.445c-1.278-1.56-2.424-2.631-3.437-3.212
		c-0.996-0.598-2.166-0.896-3.511-0.896c-2.109,0-3.86,0.739-5.254,2.216s-2.092,3.329-2.092,5.553c0,2.275,0.672,4.143,2.017,5.603
		c1.361,1.461,3.096,2.191,5.205,2.191c1.345,0,2.531-0.29,3.561-0.872c0.996-0.564,2.167-1.66,3.511-3.287v7.396
		c-2.274,1.179-4.549,1.768-6.823,1.768c-3.752,0-6.89-1.211-9.413-3.636c-2.524-2.44-3.785-5.47-3.785-9.089
		c0-3.619,1.278-6.673,3.835-9.164c2.556-2.49,5.694-3.735,9.413-3.735C158.65,39.312,160.908,39.884,163.033,41.03z"/>
	<path stroke="#FFFFFF" stroke-width="4.5957" stroke-miterlimit="10" d="M183.353,29.898c0-0.979,0.357-1.826,1.071-2.54
		c0.713-0.713,1.569-1.071,2.565-1.071c1.012,0,1.876,0.357,2.59,1.071c0.713,0.697,1.071,1.553,1.071,2.565
		c0,1.013-0.357,1.876-1.071,2.59c-0.697,0.714-1.553,1.071-2.565,1.071c-1.013,0-1.876-0.357-2.59-1.071
		C183.71,31.799,183.353,30.928,183.353,29.898z M189.803,39.984v24.254H184.2V39.984H189.803z"/>
	<path stroke="#FFFFFF" stroke-width="4.5957" stroke-miterlimit="10" d="M234.726,53.431h-17.382
		c0.149,1.992,0.797,3.578,1.942,4.756c1.146,1.162,2.615,1.743,4.408,1.743c1.395,0,2.548-0.332,3.461-0.996
		c0.896-0.664,1.918-1.893,3.063-3.686l4.731,2.64c-0.731,1.245-1.503,2.312-2.316,3.2s-1.685,1.619-2.614,2.191
		c-0.931,0.573-1.935,0.992-3.014,1.257c-1.079,0.265-2.249,0.398-3.511,0.398c-3.619,0-6.524-1.162-8.716-3.486
		c-2.191-2.341-3.287-5.445-3.287-9.313c0-3.835,1.062-6.939,3.188-9.313c2.142-2.341,4.98-3.511,8.517-3.511
		c3.569,0,6.391,1.137,8.467,3.412c2.058,2.258,3.088,5.387,3.088,9.388L234.726,53.431z M228.974,48.849
		c-0.781-2.988-2.665-4.482-5.653-4.482c-0.681,0-1.319,0.104-1.917,0.311c-0.598,0.208-1.142,0.507-1.631,0.896
		c-0.49,0.39-0.909,0.859-1.258,1.407c-0.349,0.548-0.614,1.17-0.797,1.868H228.974z"/>
	<path stroke="#FFFFFF" stroke-width="4.5957" stroke-miterlimit="10" d="M256.59,39.984h5.628v2.241
		c1.959-1.942,4.167-2.914,6.624-2.914c2.822,0,5.021,0.888,6.599,2.665c1.361,1.511,2.042,3.976,2.042,7.396v14.867h-5.628v-13.53
		c0-2.387-0.332-4.037-0.996-4.949c-0.647-0.928-1.826-1.393-3.536-1.393c-1.859,0-3.179,0.613-3.959,1.84
		c-0.764,1.21-1.146,3.324-1.146,6.342v11.689h-5.628V39.984z"/>
	<path stroke="#FFFFFF" stroke-width="4.5957" stroke-miterlimit="10" d="M319.169,41.03v7.445c-1.279-1.56-2.425-2.631-3.437-3.212
		c-0.996-0.598-2.167-0.896-3.512-0.896c-2.108,0-3.859,0.739-5.254,2.216s-2.092,3.329-2.092,5.553
		c0,2.275,0.672,4.143,2.017,5.603c1.361,1.461,3.097,2.191,5.205,2.191c1.345,0,2.531-0.29,3.561-0.872
		c0.996-0.564,2.167-1.66,3.512-3.287v7.396c-2.275,1.179-4.549,1.768-6.823,1.768c-3.752,0-6.89-1.211-9.413-3.636
		c-2.523-2.44-3.785-5.47-3.785-9.089c0-3.619,1.278-6.673,3.835-9.164s5.694-3.735,9.413-3.735
		C314.786,39.312,317.043,39.884,319.169,41.03z"/>
	<path stroke="#FFFFFF" stroke-width="4.5957" stroke-miterlimit="10" d="M362.423,53.431h-17.382
		c0.149,1.992,0.797,3.578,1.942,4.756c1.146,1.162,2.615,1.743,4.408,1.743c1.395,0,2.548-0.332,3.461-0.996
		c0.896-0.664,1.918-1.893,3.063-3.686l4.731,2.64c-0.731,1.245-1.503,2.312-2.316,3.2s-1.685,1.619-2.614,2.191
		c-0.931,0.573-1.935,0.992-3.014,1.257c-1.079,0.265-2.249,0.398-3.511,0.398c-3.619,0-6.524-1.162-8.716-3.486
		c-2.191-2.341-3.287-5.445-3.287-9.313c0-3.835,1.062-6.939,3.188-9.313c2.142-2.341,4.98-3.511,8.517-3.511
		c3.569,0,6.391,1.137,8.467,3.412c2.058,2.258,3.088,5.387,3.088,9.388L362.423,53.431z M356.671,48.849
		c-0.781-2.988-2.665-4.482-5.653-4.482c-0.681,0-1.319,0.104-1.917,0.311c-0.598,0.208-1.142,0.507-1.631,0.896
		c-0.49,0.39-0.909,0.859-1.258,1.407c-0.349,0.548-0.614,1.17-0.797,1.868H356.671z"/>
	<path stroke="#FFFFFF" stroke-width="4.5957" stroke-miterlimit="10" d="M385.158,42.723c0-0.913,0.341-1.71,1.021-2.391
		s1.494-1.021,2.44-1.021s1.76,0.34,2.44,1.021s1.021,1.494,1.021,2.44c0,0.963-0.34,1.785-1.021,2.465
		c-0.664,0.664-1.478,0.996-2.44,0.996s-1.785-0.34-2.466-1.021C385.49,44.549,385.158,43.719,385.158,42.723z M385.158,61.449
		c0-0.93,0.341-1.734,1.021-2.416c0.681-0.681,1.494-1.021,2.44-1.021s1.76,0.34,2.44,1.021c0.681,0.681,1.021,1.494,1.021,2.44
		c0,0.963-0.34,1.785-1.021,2.465c-0.664,0.664-1.478,0.996-2.44,0.996c-0.979,0-1.802-0.333-2.466-0.996
		S385.158,62.445,385.158,61.449z"/>
</g>
<g>
	<path fill="#003FDB" stroke="#FFFFFF" stroke-width="6.8936" stroke-miterlimit="10" d="M160.119,158.325l-2.619,9.408h-27.546
		v-8.826h-9.894l-16.489-25.315V82.476l2.619-9.408h53.929V158.325z M155.948,99.256h-19.205v29.486h-7.178V91.981h26.382V77.238
		h-45.49v45.957l14.417,22.133h11.868v8.826h19.205V99.256z"/>
	<path fill="#003FDB" stroke="#FFFFFF" stroke-width="6.8936" stroke-miterlimit="10" d="M212.592,149.499l-2.619,9.408h-54.025
		v-56.645l19.106-29.195h37.538V149.499z M208.422,145.328v-68.09h-31.111l-14.477,22.117v45.973h19.108v-28.808h7.274v28.808
		H208.422z M189.216,104.688h-7.274l7.274-13.967V104.688z"/>
	<path fill="#003FDB" stroke="#FFFFFF" stroke-width="6.8936" stroke-miterlimit="10" d="M291.448,149.499l-2.619,9.408h-80.505
		V82.476l2.618-9.408h37.052l14.551,14.355h28.903V149.499z M287.277,145.328V91.593h-26.443l-14.551-14.355h-31.072v68.09h19.204
		V93.824h7.178v51.504h19.205V108.18h7.178v37.148H287.277z"/>
	<path fill="#003FDB" stroke="#FFFFFF" stroke-width="6.8936" stroke-miterlimit="10" d="M343.825,149.499l-2.619,9.408h-53.929
		V82.476l2.618-9.408h53.93v24.927l-2.619,9.409h-13.579v13.288l-2.619,3.88h18.817V149.499z M339.654,145.328v-16.586h-26.383
		v-12.222h10.185v-11.833h-10.185V93.824h26.383V77.238h-45.49v68.09H339.654z"/>
	<path fill="#003FDB" stroke="#FFFFFF" stroke-width="6.8936" stroke-miterlimit="10" d="M396.298,132.719l-2.619,9.408
		l-16.974,16.78h-37.052V82.476l2.618-9.408h37.634l16.393,25.315V132.719z M392.127,130.978V99.618l-14.49-22.38H346.54v68.09
		h31.069L392.127,130.978z M372.922,128.742h-7.178V93.824h7.178V128.742z"/>
</g>
<g>
	<path d="M121.82,44.118l-4.631,2.465c-0.731-1.478-1.636-2.216-2.714-2.216c-0.515,0-0.955,0.17-1.32,0.51
		c-0.366,0.34-0.548,0.775-0.548,1.306c0,0.929,1.079,1.849,3.237,2.761c2.971,1.277,4.972,2.454,6.001,3.532
		c1.029,1.078,1.544,2.529,1.544,4.353c0,2.338-0.863,4.295-2.589,5.87c-1.677,1.492-3.703,2.238-6.076,2.238
		c-4.068,0-6.948-1.983-8.641-5.952l4.781-2.216c0.664,1.162,1.17,1.901,1.519,2.216c0.68,0.631,1.494,0.946,2.44,0.946
		c1.893,0,2.839-0.863,2.839-2.59c0-0.996-0.731-1.925-2.191-2.789c-0.565-0.282-1.129-0.556-1.693-0.822
		c-0.565-0.265-1.138-0.539-1.718-0.822c-1.627-0.797-2.773-1.594-3.437-2.391c-0.847-1.012-1.27-2.316-1.27-3.909
		c0-2.108,0.722-3.852,2.167-5.229c1.478-1.378,3.27-2.067,5.379-2.067C118.001,39.312,120.309,40.914,121.82,44.118z"/>
	<path d="M163.033,41.03v7.445c-1.278-1.56-2.424-2.631-3.437-3.212c-0.996-0.598-2.166-0.896-3.511-0.896
		c-2.109,0-3.86,0.739-5.254,2.216s-2.092,3.329-2.092,5.553c0,2.275,0.672,4.143,2.017,5.603c1.361,1.461,3.096,2.191,5.205,2.191
		c1.345,0,2.531-0.29,3.561-0.872c0.996-0.564,2.167-1.66,3.511-3.287v7.396c-2.274,1.179-4.549,1.768-6.823,1.768
		c-3.752,0-6.89-1.211-9.413-3.636c-2.524-2.44-3.785-5.47-3.785-9.089c0-3.619,1.278-6.673,3.835-9.164
		c2.556-2.49,5.694-3.735,9.413-3.735C158.65,39.312,160.908,39.884,163.033,41.03z"/>
	<path d="M183.353,29.898c0-0.979,0.357-1.826,1.071-2.54c0.713-0.713,1.569-1.071,2.565-1.071c1.012,0,1.876,0.357,2.59,1.071
		c0.713,0.697,1.071,1.553,1.071,2.565c0,1.013-0.357,1.876-1.071,2.59c-0.697,0.714-1.553,1.071-2.565,1.071
		c-1.013,0-1.876-0.357-2.59-1.071C183.71,31.799,183.353,30.928,183.353,29.898z M189.803,39.984v24.254H184.2V39.984H189.803z"/>
	<path d="M234.726,53.431h-17.382c0.149,1.992,0.797,3.578,1.942,4.756c1.146,1.162,2.615,1.743,4.408,1.743
		c1.395,0,2.548-0.332,3.461-0.996c0.896-0.664,1.918-1.893,3.063-3.686l4.731,2.64c-0.731,1.245-1.503,2.312-2.316,3.2
		s-1.685,1.619-2.614,2.191c-0.931,0.573-1.935,0.992-3.014,1.257c-1.079,0.265-2.249,0.398-3.511,0.398
		c-3.619,0-6.524-1.162-8.716-3.486c-2.191-2.341-3.287-5.445-3.287-9.313c0-3.835,1.062-6.939,3.188-9.313
		c2.142-2.341,4.98-3.511,8.517-3.511c3.569,0,6.391,1.137,8.467,3.412c2.058,2.258,3.088,5.387,3.088,9.388L234.726,53.431z
		 M228.974,48.849c-0.781-2.988-2.665-4.482-5.653-4.482c-0.681,0-1.319,0.104-1.917,0.311c-0.598,0.208-1.142,0.507-1.631,0.896
		c-0.49,0.39-0.909,0.859-1.258,1.407c-0.349,0.548-0.614,1.17-0.797,1.868H228.974z"/>
	<path d="M256.59,39.984h5.628v2.241c1.959-1.942,4.167-2.914,6.624-2.914c2.822,0,5.021,0.888,6.599,2.665
		c1.361,1.511,2.042,3.976,2.042,7.396v14.867h-5.628v-13.53c0-2.387-0.332-4.037-0.996-4.949c-0.647-0.928-1.826-1.393-3.536-1.393
		c-1.859,0-3.179,0.613-3.959,1.84c-0.764,1.21-1.146,3.324-1.146,6.342v11.689h-5.628V39.984z"/>
	<path d="M319.169,41.03v7.445c-1.279-1.56-2.425-2.631-3.437-3.212c-0.996-0.598-2.167-0.896-3.512-0.896
		c-2.108,0-3.859,0.739-5.254,2.216s-2.092,3.329-2.092,5.553c0,2.275,0.672,4.143,2.017,5.603c1.361,1.461,3.097,2.191,5.205,2.191
		c1.345,0,2.531-0.29,3.561-0.872c0.996-0.564,2.167-1.66,3.512-3.287v7.396c-2.275,1.179-4.549,1.768-6.823,1.768
		c-3.752,0-6.89-1.211-9.413-3.636c-2.523-2.44-3.785-5.47-3.785-9.089c0-3.619,1.278-6.673,3.835-9.164s5.694-3.735,9.413-3.735
		C314.786,39.312,317.043,39.884,319.169,41.03z"/>
	<path d="M362.423,53.431h-17.382c0.149,1.992,0.797,3.578,1.942,4.756c1.146,1.162,2.615,1.743,4.408,1.743
		c1.395,0,2.548-0.332,3.461-0.996c0.896-0.664,1.918-1.893,3.063-3.686l4.731,2.64c-0.731,1.245-1.503,2.312-2.316,3.2
		s-1.685,1.619-2.614,2.191c-0.931,0.573-1.935,0.992-3.014,1.257c-1.079,0.265-2.249,0.398-3.511,0.398
		c-3.619,0-6.524-1.162-8.716-3.486c-2.191-2.341-3.287-5.445-3.287-9.313c0-3.835,1.062-6.939,3.188-9.313
		c2.142-2.341,4.98-3.511,8.517-3.511c3.569,0,6.391,1.137,8.467,3.412c2.058,2.258,3.088,5.387,3.088,9.388L362.423,53.431z
		 M356.671,48.849c-0.781-2.988-2.665-4.482-5.653-4.482c-0.681,0-1.319,0.104-1.917,0.311c-0.598,0.208-1.142,0.507-1.631,0.896
		c-0.49,0.39-0.909,0.859-1.258,1.407c-0.349,0.548-0.614,1.17-0.797,1.868H356.671z"/>
	<path d="M385.158,42.723c0-0.913,0.341-1.71,1.021-2.391s1.494-1.021,2.44-1.021s1.76,0.34,2.44,1.021s1.021,1.494,1.021,2.44
		c0,0.963-0.34,1.785-1.021,2.465c-0.664,0.664-1.478,0.996-2.44,0.996s-1.785-0.34-2.466-1.021
		C385.49,44.549,385.158,43.719,385.158,42.723z M385.158,61.449c0-0.93,0.341-1.734,1.021-2.416
		c0.681-0.681,1.494-1.021,2.44-1.021s1.76,0.34,2.44,1.021c0.681,0.681,1.021,1.494,1.021,2.44c0,0.963-0.34,1.785-1.021,2.465
		c-0.664,0.664-1.478,0.996-2.44,0.996c-0.979,0-1.802-0.333-2.466-0.996S385.158,62.445,385.158,61.449z"/>
</g>
<g>
	<path fill="#003FDB" d="M160.119,158.325l-2.619,9.408h-27.546v-8.826h-9.894l-16.489-25.315V82.476l2.619-9.408h53.929V158.325z
		 M155.948,99.256h-19.205v29.486h-7.178V91.981h26.382V77.238h-45.49v45.957l14.417,22.133h11.868v8.826h19.205V99.256z"/>
	<path fill="#003FDB" d="M212.592,149.499l-2.619,9.408h-54.025v-56.645l19.106-29.195h37.538V149.499z M208.422,145.328v-68.09
		h-31.111l-14.477,22.117v45.973h19.108v-28.808h7.274v28.808H208.422z M189.216,104.688h-7.274l7.274-13.967V104.688z"/>
	<path fill="#003FDB" d="M291.448,149.499l-2.619,9.408h-80.505V82.476l2.618-9.408h37.052l14.551,14.355h28.903V149.499z
		 M287.277,145.328V91.593h-26.443l-14.551-14.355h-31.072v68.09h19.204V93.824h7.178v51.504h19.205V108.18h7.178v37.148H287.277z"
		/>
	<path fill="#003FDB" d="M343.825,149.499l-2.619,9.408h-53.929V82.476l2.618-9.408h53.93v24.927l-2.619,9.409h-13.579v13.288
		l-2.619,3.88h18.817V149.499z M339.654,145.328v-16.586h-26.383v-12.222h10.185v-11.833h-10.185V93.824h26.383V77.238h-45.49v68.09
		H339.654z"/>
	<path fill="#003FDB" d="M396.298,132.719l-2.619,9.408l-16.974,16.78h-37.052V82.476l2.618-9.408h37.634l16.393,25.315V132.719z
		 M392.127,130.978V99.618l-14.49-22.38H346.54v68.09h31.069L392.127,130.978z M372.922,128.742h-7.178V93.824h7.178V128.742z"/>
</g>
<g>
	<path d="M168.144,181.869c0.043-0.706,0.086-1.756,0.086-2.676v-12.524h1.862v6.509h0.043c0.664-1.156,1.862-1.905,3.532-1.905
		c2.569,0,4.389,2.141,4.367,5.287c0,3.704-2.333,5.545-4.646,5.545c-1.499,0-2.697-0.578-3.468-1.948h-0.064l-0.086,1.713H168.144z
		 M170.092,177.716c0,0.235,0.043,0.471,0.085,0.686c0.364,1.306,1.456,2.205,2.826,2.205c1.969,0,3.147-1.606,3.147-3.982
		c0-2.076-1.07-3.854-3.083-3.854c-1.284,0-2.483,0.878-2.869,2.312c-0.042,0.214-0.107,0.471-0.107,0.771V177.716z"/>
	<path d="M181.456,177.031c0.043,2.547,1.67,3.597,3.554,3.597c1.349,0,2.162-0.236,2.869-0.536l0.321,1.35
		c-0.664,0.299-1.798,0.642-3.447,0.642c-3.19,0-5.095-2.098-5.095-5.224c0-3.125,1.841-5.587,4.86-5.587
		c3.382,0,4.281,2.976,4.281,4.881c0,0.385-0.042,0.685-0.064,0.878H181.456z M186.979,175.683c0.021-1.199-0.493-3.062-2.612-3.062
		c-1.905,0-2.74,1.755-2.89,3.062H186.979z"/>
	<path d="M198.515,181.483c-0.493,0.257-1.584,0.6-2.976,0.6c-3.125,0-5.159-2.119-5.159-5.287c0-3.19,2.184-5.502,5.566-5.502
		c1.113,0,2.098,0.278,2.612,0.535l-0.428,1.455c-0.449-0.257-1.156-0.492-2.184-0.492c-2.376,0-3.661,1.756-3.661,3.918
		c0,2.397,1.542,3.875,3.597,3.875c1.07,0,1.777-0.278,2.312-0.514L198.515,181.483z"/>
	<path d="M206.454,181.869l-0.15-1.306h-0.063c-0.578,0.813-1.691,1.541-3.169,1.541c-2.098,0-3.168-1.477-3.168-2.976
		c0-2.505,2.227-3.875,6.229-3.854v-0.214c0-0.856-0.235-2.397-2.354-2.397c-0.964,0-1.97,0.299-2.698,0.771l-0.428-1.242
		c0.856-0.557,2.098-0.92,3.404-0.92c3.168,0,3.938,2.162,3.938,4.238v3.875c0,0.899,0.043,1.777,0.172,2.483H206.454z
		 M206.176,176.581c-2.056-0.043-4.389,0.321-4.389,2.334c0,1.22,0.813,1.798,1.776,1.798c1.349,0,2.205-0.856,2.505-1.733
		c0.064-0.193,0.107-0.407,0.107-0.6V176.581z"/>
	<path d="M219.702,179.043c0,1.07,0.021,2.013,0.085,2.826h-1.67l-0.106-1.691h-0.043c-0.492,0.835-1.584,1.927-3.426,1.927
		c-1.627,0-3.574-0.899-3.574-4.538v-6.059h1.884v5.737c0,1.97,0.599,3.297,2.312,3.297c1.264,0,2.141-0.878,2.483-1.713
		c0.107-0.278,0.172-0.621,0.172-0.963v-6.358h1.884V179.043z"/>
	<path d="M222.566,179.942c0.557,0.364,1.542,0.749,2.483,0.749c1.37,0,2.013-0.685,2.013-1.541c0-0.899-0.535-1.392-1.927-1.905
		c-1.862-0.664-2.74-1.691-2.74-2.933c0-1.67,1.349-3.04,3.575-3.04c1.049,0,1.97,0.3,2.548,0.642l-0.472,1.37
		c-0.406-0.257-1.156-0.599-2.119-0.599c-1.113,0-1.734,0.642-1.734,1.412c0,0.856,0.621,1.242,1.97,1.756
		c1.799,0.685,2.719,1.584,2.719,3.126c0,1.819-1.413,3.104-3.875,3.104c-1.135,0-2.184-0.278-2.911-0.706L222.566,179.942z"/>
	<path d="M232.347,177.031c0.043,2.547,1.67,3.597,3.554,3.597c1.35,0,2.163-0.236,2.869-0.536l0.321,1.35
		c-0.664,0.299-1.799,0.642-3.447,0.642c-3.189,0-5.095-2.098-5.095-5.224c0-3.125,1.841-5.587,4.859-5.587
		c3.383,0,4.282,2.976,4.282,4.881c0,0.385-0.043,0.685-0.064,0.878H232.347z M237.87,175.683c0.021-1.199-0.492-3.062-2.611-3.062
		c-1.905,0-2.74,1.755-2.891,3.062H237.87z"/>
	<path d="M246.364,179.6c0.835,0.514,2.056,0.942,3.34,0.942c1.905,0,3.019-1.006,3.019-2.462c0-1.349-0.771-2.119-2.719-2.869
		c-2.355-0.835-3.811-2.055-3.811-4.089c0-2.248,1.862-3.917,4.667-3.917c1.477,0,2.547,0.342,3.189,0.706l-0.514,1.52
		c-0.471-0.257-1.435-0.685-2.74-0.685c-1.97,0-2.719,1.178-2.719,2.162c0,1.349,0.878,2.013,2.868,2.783
		c2.44,0.941,3.683,2.119,3.683,4.238c0,2.227-1.648,4.153-5.053,4.153c-1.392,0-2.911-0.406-3.682-0.92L246.364,179.6z"/>
	<path d="M267.255,181.398c-0.685,0.342-2.055,0.685-3.811,0.685c-4.067,0-7.129-2.568-7.129-7.3c0-4.518,3.062-7.578,7.536-7.578
		c1.798,0,2.933,0.385,3.425,0.642l-0.449,1.521c-0.707-0.343-1.713-0.6-2.912-0.6c-3.382,0-5.63,2.162-5.63,5.951
		c0,3.532,2.034,5.802,5.545,5.802c1.135,0,2.29-0.235,3.04-0.6L267.255,181.398z"/>
	<path d="M271.447,167.44v14.429h-1.862V167.44H271.447z"/>
	<path d="M282.171,175.104h-5.609v5.202h6.251v1.562h-8.113V167.44h7.793v1.562h-5.931v4.56h5.609V175.104z"/>
	<path d="M285.229,181.869V167.44h2.034l4.624,7.3c1.07,1.691,1.905,3.211,2.59,4.688l0.043-0.021
		c-0.171-1.927-0.214-3.683-0.214-5.93v-6.037h1.756v14.429h-1.885l-4.581-7.321c-1.006-1.605-1.97-3.254-2.697-4.817l-0.064,0.021
		c0.107,1.82,0.15,3.554,0.15,5.951v6.166H285.229z"/>
	<path d="M309.394,181.398c-0.685,0.342-2.055,0.685-3.811,0.685c-4.067,0-7.129-2.568-7.129-7.3c0-4.518,3.062-7.578,7.536-7.578
		c1.798,0,2.933,0.385,3.425,0.642l-0.449,1.521c-0.707-0.343-1.713-0.6-2.912-0.6c-3.382,0-5.63,2.162-5.63,5.951
		c0,3.532,2.034,5.802,5.545,5.802c1.135,0,2.29-0.235,3.04-0.6L309.394,181.398z"/>
	<path d="M319.194,175.104h-5.609v5.202h6.251v1.562h-8.113V167.44h7.793v1.562h-5.931v4.56h5.609V175.104z"/>
	<path d="M320.883,184.502c0.471-1.263,1.049-3.554,1.284-5.116l2.098-0.214c-0.492,1.819-1.434,4.196-2.033,5.202L320.883,184.502z
		"/>
	<path d="M330.983,181.869c0.042-0.706,0.085-1.756,0.085-2.676v-12.524h1.863v6.509h0.042c0.664-1.156,1.863-1.905,3.532-1.905
		c2.569,0,4.389,2.141,4.368,5.287c0,3.704-2.334,5.545-4.646,5.545c-1.498,0-2.697-0.578-3.468-1.948h-0.064l-0.085,1.713H330.983z
		 M332.932,177.716c0,0.235,0.042,0.471,0.085,0.686c0.364,1.306,1.456,2.205,2.826,2.205c1.97,0,3.146-1.606,3.146-3.982
		c0-2.076-1.07-3.854-3.082-3.854c-1.285,0-2.483,0.878-2.869,2.312c-0.043,0.214-0.106,0.471-0.106,0.771V177.716z"/>
	<path d="M345.345,168.596c0.021,0.643-0.45,1.156-1.199,1.156c-0.664,0-1.135-0.514-1.135-1.156c0-0.663,0.492-1.177,1.178-1.177
		C344.895,167.419,345.345,167.933,345.345,168.596z M343.246,181.869v-10.361h1.884v10.361H343.246z"/>
	<path d="M350.523,168.532v2.976h2.697v1.435h-2.697v5.587c0,1.285,0.364,2.013,1.413,2.013c0.492,0,0.856-0.064,1.092-0.129
		l0.086,1.413c-0.364,0.15-0.942,0.257-1.67,0.257c-0.878,0-1.585-0.278-2.034-0.792c-0.535-0.557-0.728-1.477-0.728-2.697v-5.651
		h-1.605v-1.435h1.605v-2.483L350.523,168.532z"/>
	<path d="M362.595,181.483c-0.492,0.257-1.584,0.6-2.976,0.6c-3.125,0-5.159-2.119-5.159-5.287c0-3.19,2.184-5.502,5.566-5.502
		c1.113,0,2.098,0.278,2.611,0.535l-0.428,1.455c-0.45-0.257-1.156-0.492-2.184-0.492c-2.377,0-3.661,1.756-3.661,3.918
		c0,2.397,1.541,3.875,3.597,3.875c1.07,0,1.776-0.278,2.312-0.514L362.595,181.483z"/>
	<path d="M364.797,166.669h1.884v6.466h0.043c0.3-0.535,0.771-1.006,1.349-1.327c0.557-0.321,1.221-0.535,1.927-0.535
		c1.392,0,3.618,0.856,3.618,4.431v6.166h-1.884v-5.951c0-1.67-0.621-3.083-2.397-3.083c-1.221,0-2.184,0.856-2.526,1.884
		c-0.107,0.257-0.129,0.535-0.129,0.899v6.251h-1.884V166.669z"/>
	<path d="M377.723,177.031c0.043,2.547,1.67,3.597,3.555,3.597c1.349,0,2.162-0.236,2.868-0.536l0.321,1.35
		c-0.664,0.299-1.799,0.642-3.447,0.642c-3.189,0-5.095-2.098-5.095-5.224c0-3.125,1.841-5.587,4.859-5.587
		c3.383,0,4.282,2.976,4.282,4.881c0,0.385-0.043,0.685-0.064,0.878H377.723z M383.246,175.683c0.021-1.199-0.492-3.062-2.611-3.062
		c-1.905,0-2.74,1.755-2.891,3.062H383.246z"/>
	<path d="M387.139,179.942c0.557,0.364,1.542,0.749,2.483,0.749c1.37,0,2.013-0.685,2.013-1.541c0-0.899-0.535-1.392-1.927-1.905
		c-1.862-0.664-2.74-1.691-2.74-2.933c0-1.67,1.349-3.04,3.575-3.04c1.049,0,1.97,0.3,2.548,0.642l-0.472,1.37
		c-0.406-0.257-1.156-0.599-2.119-0.599c-1.113,0-1.734,0.642-1.734,1.412c0,0.856,0.621,1.242,1.97,1.756
		c1.799,0.685,2.719,1.584,2.719,3.126c0,1.819-1.413,3.104-3.875,3.104c-1.135,0-2.184-0.278-2.911-0.706L387.139,179.942z"/>
</g>
</svg>
