<?xml version="1.0" encoding="utf-8"?>
<!-- Generator: Adobe Illustrator 16.2.0, SVG Export Plug-In . SVG Version: 6.00 Build 0)  -->
<!DOCTYPE svg PUBLIC "-//W3C//DTD SVG 1.1//EN" "http://www.w3.org/Graphics/SVG/1.1/DTD/svg11.dtd">
<svg version="1.1" id="Layer_1" xmlns="http://www.w3.org/2000/svg" xmlns:xlink="http://www.w3.org/1999/xlink" x="0px" y="0px"
	 width="450px" height="180px" viewBox="0 0 450 180" enable-background="new 0 0 450 180" xml:space="preserve">
<ellipse opacity="0.3" fill="none" stroke="#000000" stroke-width="2.2979" stroke-miterlimit="10" cx="78.76" cy="89.357" rx="22.2" ry="82.607"/>
<path opacity="0.3" fill="none" stroke="#000000" stroke-width="2.2979" stroke-miterlimit="10" d="M89.859,70.13
	c39.511,22.812,66.571,49.911,60.44,60.53c-6.133,10.618-43.13,0.733-82.64-22.076C28.148,85.771,1.09,58.672,7.221,48.053
	C13.351,37.435,50.349,47.32,89.859,70.13z"/>
<ellipse transform="matrix(-0.5 -0.866 0.866 -0.5 40.7493 202.2414)" opacity="0.3" fill="none" stroke="#000000" stroke-width="2.2979" stroke-miterlimit="10" cx="78.759" cy="89.357" rx="22.201" ry="82.608"/>
<circle opacity="0.3" cx="78.33" cy="88.928" r="12.821"/>
<circle fill="#003FDB" cx="19.594" cy="43.801" r="5.859"/>
<rect x="110" y="61" fill="#FFFFFF" width="54" height="90"/>
<g>
	<path stroke="#FFFFFF" stroke-width="4.5957" stroke-miterlimit="10" d="M124.82,35.118l-4.631,2.465
		c-0.731-1.478-1.636-2.216-2.714-2.216c-0.515,0-0.955,0.17-1.32,0.51c-0.366,0.34-0.548,0.775-0.548,1.306
		c0,0.929,1.079,1.849,3.237,2.761c2.971,1.277,4.972,2.454,6.001,3.532c1.029,1.078,1.544,2.529,1.544,4.353
		c0,2.338-0.863,4.295-2.589,5.87c-1.677,1.492-3.703,2.238-6.076,2.238c-4.068,0-6.948-1.983-8.641-5.952l4.781-2.216
		c0.664,1.162,1.17,1.901,1.519,2.216c0.68,0.631,1.494,0.946,2.44,0.946c1.893,0,2.839-0.863,2.839-2.59
		c0-0.996-0.731-1.925-2.191-2.789c-0.565-0.282-1.129-0.556-1.693-0.822c-0.565-0.265-1.138-0.539-1.718-0.822
		c-1.627-0.797-2.773-1.594-3.437-2.391c-0.847-1.012-1.27-2.316-1.27-3.909c0-2.108,0.722-3.852,2.167-5.229
		c1.478-1.378,3.27-2.067,5.379-2.067C121.001,30.312,123.309,31.914,124.82,35.118z"/>
	<path stroke="#FFFFFF" stroke-width="4.5957" stroke-miterlimit="10" d="M166.033,32.03v7.445c-1.278-1.56-2.424-2.631-3.437-3.212
		c-0.996-0.598-2.166-0.896-3.511-0.896c-2.109,0-3.86,0.739-5.254,2.216s-2.092,3.329-2.092,5.553c0,2.275,0.672,4.143,2.017,5.603
		c1.361,1.461,3.096,2.191,5.205,2.191c1.345,0,2.531-0.29,3.561-0.872c0.996-0.564,2.167-1.66,3.511-3.287v7.396
		c-2.274,1.179-4.549,1.768-6.823,1.768c-3.752,0-6.89-1.211-9.413-3.636c-2.524-2.44-3.785-5.47-3.785-9.089
		c0-3.619,1.278-6.673,3.835-9.164c2.556-2.49,5.694-3.735,9.413-3.735C161.65,30.312,163.908,30.884,166.033,32.03z"/>
	<path stroke="#FFFFFF" stroke-width="4.5957" stroke-miterlimit="10" d="M186.353,20.898c0-0.979,0.357-1.826,1.071-2.54
		c0.713-0.713,1.569-1.071,2.565-1.071c1.012,0,1.876,0.357,2.59,1.071c0.713,0.697,1.071,1.553,1.071,2.565
		c0,1.013-0.357,1.876-1.071,2.59c-0.697,0.714-1.553,1.071-2.565,1.071c-1.013,0-1.876-0.357-2.59-1.071
		C186.71,22.799,186.353,21.928,186.353,20.898z M192.803,30.984v24.254H187.2V30.984H192.803z"/>
	<path stroke="#FFFFFF" stroke-width="4.5957" stroke-miterlimit="10" d="M237.726,44.431h-17.382
		c0.149,1.992,0.797,3.578,1.942,4.756c1.146,1.162,2.615,1.743,4.408,1.743c1.395,0,2.548-0.332,3.461-0.996
		c0.896-0.664,1.918-1.893,3.063-3.686l4.731,2.64c-0.731,1.245-1.503,2.312-2.316,3.2s-1.685,1.619-2.614,2.191
		c-0.931,0.573-1.935,0.992-3.014,1.257c-1.079,0.265-2.249,0.398-3.511,0.398c-3.619,0-6.524-1.162-8.716-3.486
		c-2.191-2.341-3.287-5.445-3.287-9.313c0-3.835,1.062-6.939,3.188-9.313c2.142-2.341,4.98-3.511,8.517-3.511
		c3.569,0,6.391,1.137,8.467,3.412c2.058,2.258,3.088,5.387,3.088,9.388L237.726,44.431z M231.974,39.849
		c-0.781-2.988-2.665-4.482-5.653-4.482c-0.681,0-1.319,0.104-1.917,0.311c-0.598,0.208-1.142,0.507-1.631,0.896
		c-0.49,0.39-0.909,0.859-1.258,1.407c-0.349,0.548-0.614,1.17-0.797,1.868H231.974z"/>
	<path stroke="#FFFFFF" stroke-width="4.5957" stroke-miterlimit="10" d="M259.59,30.984h5.628v2.241
		c1.959-1.942,4.167-2.914,6.624-2.914c2.822,0,5.021,0.888,6.599,2.665c1.361,1.511,2.042,3.976,2.042,7.396v14.867h-5.628v-13.53
		c0-2.387-0.332-4.037-0.996-4.949c-0.647-0.928-1.826-1.393-3.536-1.393c-1.859,0-3.179,0.613-3.959,1.84
		c-0.764,1.21-1.146,3.324-1.146,6.342v11.689h-5.628V30.984z"/>
	<path stroke="#FFFFFF" stroke-width="4.5957" stroke-miterlimit="10" d="M322.169,32.03v7.445c-1.279-1.56-2.425-2.631-3.437-3.212
		c-0.996-0.598-2.167-0.896-3.512-0.896c-2.108,0-3.859,0.739-5.254,2.216s-2.092,3.329-2.092,5.553
		c0,2.275,0.672,4.143,2.017,5.603c1.361,1.461,3.097,2.191,5.205,2.191c1.345,0,2.531-0.29,3.561-0.872
		c0.996-0.564,2.167-1.66,3.512-3.287v7.396c-2.275,1.179-4.549,1.768-6.823,1.768c-3.752,0-6.89-1.211-9.413-3.636
		c-2.523-2.44-3.785-5.47-3.785-9.089c0-3.619,1.278-6.673,3.835-9.164s5.694-3.735,9.413-3.735
		C317.786,30.312,320.043,30.884,322.169,32.03z"/>
	<path stroke="#FFFFFF" stroke-width="4.5957" stroke-miterlimit="10" d="M365.423,44.431h-17.382
		c0.149,1.992,0.797,3.578,1.942,4.756c1.146,1.162,2.615,1.743,4.408,1.743c1.395,0,2.548-0.332,3.461-0.996
		c0.896-0.664,1.918-1.893,3.063-3.686l4.731,2.64c-0.731,1.245-1.503,2.312-2.316,3.2s-1.685,1.619-2.614,2.191
		c-0.931,0.573-1.935,0.992-3.014,1.257c-1.079,0.265-2.249,0.398-3.511,0.398c-3.619,0-6.524-1.162-8.716-3.486
		c-2.191-2.341-3.287-5.445-3.287-9.313c0-3.835,1.062-6.939,3.188-9.313c2.142-2.341,4.98-3.511,8.517-3.511
		c3.569,0,6.391,1.137,8.467,3.412c2.058,2.258,3.088,5.387,3.088,9.388L365.423,44.431z M359.671,39.849
		c-0.781-2.988-2.665-4.482-5.653-4.482c-0.681,0-1.319,0.104-1.917,0.311c-0.598,0.208-1.142,0.507-1.631,0.896
		c-0.49,0.39-0.909,0.859-1.258,1.407c-0.349,0.548-0.614,1.17-0.797,1.868H359.671z"/>
	<path stroke="#FFFFFF" stroke-width="4.5957" stroke-miterlimit="10" d="M388.158,33.723c0-0.913,0.341-1.71,1.021-2.391
		s1.494-1.021,2.44-1.021s1.76,0.34,2.44,1.021s1.021,1.494,1.021,2.44c0,0.963-0.34,1.785-1.021,2.465
		c-0.664,0.664-1.478,0.996-2.44,0.996s-1.785-0.34-2.466-1.021C388.49,35.549,388.158,34.719,388.158,33.723z M388.158,52.449
		c0-0.93,0.341-1.734,1.021-2.416c0.681-0.681,1.494-1.021,2.44-1.021s1.76,0.34,2.44,1.021c0.681,0.681,1.021,1.494,1.021,2.44
		c0,0.963-0.34,1.785-1.021,2.465c-0.664,0.664-1.478,0.996-2.44,0.996c-0.979,0-1.802-0.333-2.466-0.996
		S388.158,53.445,388.158,52.449z"/>
</g>
<g>
	<path fill="#003FDB" stroke="#FFFFFF" stroke-width="6.8936" stroke-miterlimit="10" d="M163.119,149.325l-2.619,9.408h-27.546
		v-8.826h-9.894l-16.489-25.315V73.476l2.619-9.408h53.929V149.325z M158.948,90.256h-19.205v29.486h-7.178V82.981h26.382V68.238
		h-45.49v45.957l14.417,22.133h11.868v8.826h19.205V90.256z"/>
	<path fill="#003FDB" stroke="#FFFFFF" stroke-width="6.8936" stroke-miterlimit="10" d="M215.592,140.499l-2.619,9.408h-54.025
		V93.263l19.106-29.195h37.538V140.499z M211.422,136.328v-68.09h-31.111l-14.477,22.117v45.973h19.108v-28.808h7.274v28.808
		H211.422z M192.216,95.688h-7.274l7.274-13.967V95.688z"/>
	<path fill="#003FDB" stroke="#FFFFFF" stroke-width="6.8936" stroke-miterlimit="10" d="M294.448,140.499l-2.619,9.408h-80.505
		V73.476l2.618-9.408h37.052l14.551,14.355h28.903V140.499z M290.277,136.328V82.593h-26.443l-14.551-14.355h-31.072v68.09h19.204
		V84.824h7.178v51.504h19.205V99.18h7.178v37.148H290.277z"/>
	<path fill="#003FDB" stroke="#FFFFFF" stroke-width="6.8936" stroke-miterlimit="10" d="M346.825,140.499l-2.619,9.408h-53.929
		V73.476l2.618-9.408h53.93v24.927l-2.619,9.409h-13.579v13.288l-2.619,3.88h18.817V140.499z M342.654,136.328v-16.586h-26.383
		v-12.222h10.185V95.688h-10.185V84.824h26.383V68.238h-45.49v68.09H342.654z"/>
	<path fill="#003FDB" stroke="#FFFFFF" stroke-width="6.8936" stroke-miterlimit="10" d="M399.298,123.719l-2.619,9.408
		l-16.974,16.78h-37.052V73.476l2.618-9.408h37.634l16.393,25.315V123.719z M395.127,121.978V90.618l-14.49-22.38H349.54v68.09
		h31.069L395.127,121.978z M375.922,119.742h-7.178V84.824h7.178V119.742z"/>
</g>
<g>
	<path d="M124.82,35.118l-4.631,2.465c-0.731-1.478-1.636-2.216-2.714-2.216c-0.515,0-0.955,0.17-1.32,0.51
		c-0.366,0.34-0.548,0.775-0.548,1.306c0,0.929,1.079,1.849,3.237,2.761c2.971,1.277,4.972,2.454,6.001,3.532
		c1.029,1.078,1.544,2.529,1.544,4.353c0,2.338-0.863,4.295-2.589,5.87c-1.677,1.492-3.703,2.238-6.076,2.238
		c-4.068,0-6.948-1.983-8.641-5.952l4.781-2.216c0.664,1.162,1.17,1.901,1.519,2.216c0.68,0.631,1.494,0.946,2.44,0.946
		c1.893,0,2.839-0.863,2.839-2.59c0-0.996-0.731-1.925-2.191-2.789c-0.565-0.282-1.129-0.556-1.693-0.822
		c-0.565-0.265-1.138-0.539-1.718-0.822c-1.627-0.797-2.773-1.594-3.437-2.391c-0.847-1.012-1.27-2.316-1.27-3.909
		c0-2.108,0.722-3.852,2.167-5.229c1.478-1.378,3.27-2.067,5.379-2.067C121.001,30.312,123.309,31.914,124.82,35.118z"/>
	<path d="M166.033,32.03v7.445c-1.278-1.56-2.424-2.631-3.437-3.212c-0.996-0.598-2.166-0.896-3.511-0.896
		c-2.109,0-3.86,0.739-5.254,2.216s-2.092,3.329-2.092,5.553c0,2.275,0.672,4.143,2.017,5.603c1.361,1.461,3.096,2.191,5.205,2.191
		c1.345,0,2.531-0.29,3.561-0.872c0.996-0.564,2.167-1.66,3.511-3.287v7.396c-2.274,1.179-4.549,1.768-6.823,1.768
		c-3.752,0-6.89-1.211-9.413-3.636c-2.524-2.44-3.785-5.47-3.785-9.089c0-3.619,1.278-6.673,3.835-9.164
		c2.556-2.49,5.694-3.735,9.413-3.735C161.65,30.312,163.908,30.884,166.033,32.03z"/>
	<path d="M186.353,20.898c0-0.979,0.357-1.826,1.071-2.54c0.713-0.713,1.569-1.071,2.565-1.071c1.012,0,1.876,0.357,2.59,1.071
		c0.713,0.697,1.071,1.553,1.071,2.565c0,1.013-0.357,1.876-1.071,2.59c-0.697,0.714-1.553,1.071-2.565,1.071
		c-1.013,0-1.876-0.357-2.59-1.071C186.71,22.799,186.353,21.928,186.353,20.898z M192.803,30.984v24.254H187.2V30.984H192.803z"/>
	<path d="M237.726,44.431h-17.382c0.149,1.992,0.797,3.578,1.942,4.756c1.146,1.162,2.615,1.743,4.408,1.743
		c1.395,0,2.548-0.332,3.461-0.996c0.896-0.664,1.918-1.893,3.063-3.686l4.731,2.64c-0.731,1.245-1.503,2.312-2.316,3.2
		s-1.685,1.619-2.614,2.191c-0.931,0.573-1.935,0.992-3.014,1.257c-1.079,0.265-2.249,0.398-3.511,0.398
		c-3.619,0-6.524-1.162-8.716-3.486c-2.191-2.341-3.287-5.445-3.287-9.313c0-3.835,1.062-6.939,3.188-9.313
		c2.142-2.341,4.98-3.511,8.517-3.511c3.569,0,6.391,1.137,8.467,3.412c2.058,2.258,3.088,5.387,3.088,9.388L237.726,44.431z
		 M231.974,39.849c-0.781-2.988-2.665-4.482-5.653-4.482c-0.681,0-1.319,0.104-1.917,0.311c-0.598,0.208-1.142,0.507-1.631,0.896
		c-0.49,0.39-0.909,0.859-1.258,1.407c-0.349,0.548-0.614,1.17-0.797,1.868H231.974z"/>
	<path d="M259.59,30.984h5.628v2.241c1.959-1.942,4.167-2.914,6.624-2.914c2.822,0,5.021,0.888,6.599,2.665
		c1.361,1.511,2.042,3.976,2.042,7.396v14.867h-5.628v-13.53c0-2.387-0.332-4.037-0.996-4.949c-0.647-0.928-1.826-1.393-3.536-1.393
		c-1.859,0-3.179,0.613-3.959,1.84c-0.764,1.21-1.146,3.324-1.146,6.342v11.689h-5.628V30.984z"/>
	<path d="M322.169,32.03v7.445c-1.279-1.56-2.425-2.631-3.437-3.212c-0.996-0.598-2.167-0.896-3.512-0.896
		c-2.108,0-3.859,0.739-5.254,2.216s-2.092,3.329-2.092,5.553c0,2.275,0.672,4.143,2.017,5.603c1.361,1.461,3.097,2.191,5.205,2.191
		c1.345,0,2.531-0.29,3.561-0.872c0.996-0.564,2.167-1.66,3.512-3.287v7.396c-2.275,1.179-4.549,1.768-6.823,1.768
		c-3.752,0-6.89-1.211-9.413-3.636c-2.523-2.44-3.785-5.47-3.785-9.089c0-3.619,1.278-6.673,3.835-9.164s5.694-3.735,9.413-3.735
		C317.786,30.312,320.043,30.884,322.169,32.03z"/>
	<path d="M365.423,44.431h-17.382c0.149,1.992,0.797,3.578,1.942,4.756c1.146,1.162,2.615,1.743,4.408,1.743
		c1.395,0,2.548-0.332,3.461-0.996c0.896-0.664,1.918-1.893,3.063-3.686l4.731,2.64c-0.731,1.245-1.503,2.312-2.316,3.2
		s-1.685,1.619-2.614,2.191c-0.931,0.573-1.935,0.992-3.014,1.257c-1.079,0.265-2.249,0.398-3.511,0.398
		c-3.619,0-6.524-1.162-8.716-3.486c-2.191-2.341-3.287-5.445-3.287-9.313c0-3.835,1.062-6.939,3.188-9.313
		c2.142-2.341,4.98-3.511,8.517-3.511c3.569,0,6.391,1.137,8.467,3.412c2.058,2.258,3.088,5.387,3.088,9.388L365.423,44.431z
		 M359.671,39.849c-0.781-2.988-2.665-4.482-5.653-4.482c-0.681,0-1.319,0.104-1.917,0.311c-0.598,0.208-1.142,0.507-1.631,0.896
		c-0.49,0.39-0.909,0.859-1.258,1.407c-0.349,0.548-0.614,1.17-0.797,1.868H359.671z"/>
	<path d="M388.158,33.723c0-0.913,0.341-1.71,1.021-2.391s1.494-1.021,2.44-1.021s1.76,0.34,2.44,1.021s1.021,1.494,1.021,2.44
		c0,0.963-0.34,1.785-1.021,2.465c-0.664,0.664-1.478,0.996-2.44,0.996s-1.785-0.34-2.466-1.021
		C388.49,35.549,388.158,34.719,388.158,33.723z M388.158,52.449c0-0.93,0.341-1.734,1.021-2.416
		c0.681-0.681,1.494-1.021,2.44-1.021s1.76,0.34,2.44,1.021c0.681,0.681,1.021,1.494,1.021,2.44c0,0.963-0.34,1.785-1.021,2.465
		c-0.664,0.664-1.478,0.996-2.44,0.996c-0.979,0-1.802-0.333-2.466-0.996S388.158,53.445,388.158,52.449z"/>
</g>
<g>
	<path fill="#003FDB" d="M163.119,149.325l-2.619,9.408h-27.546v-8.826h-9.894l-16.489-25.315V73.476l2.619-9.408h53.929V149.325z
		 M158.948,90.256h-19.205v29.486h-7.178V82.981h26.382V68.238h-45.49v45.957l14.417,22.133h11.868v8.826h19.205V90.256z"/>
	<path fill="#003FDB" d="M215.592,140.499l-2.619,9.408h-54.025V93.263l19.106-29.195h37.538V140.499z M211.422,136.328v-68.09
		h-31.111l-14.477,22.117v45.973h19.108v-28.808h7.274v28.808H211.422z M192.216,95.688h-7.274l7.274-13.967V95.688z"/>
	<path fill="#003FDB" d="M294.448,140.499l-2.619,9.408h-80.505V73.476l2.618-9.408h37.052l14.551,14.355h28.903V140.499z
		 M290.277,136.328V82.593h-26.443l-14.551-14.355h-31.072v68.09h19.204V84.824h7.178v51.504h19.205V99.18h7.178v37.148H290.277z"/>
	<path fill="#003FDB" d="M346.825,140.499l-2.619,9.408h-53.929V73.476l2.618-9.408h53.93v24.927l-2.619,9.409h-13.579v13.288
		l-2.619,3.88h18.817V140.499z M342.654,136.328v-16.586h-26.383v-12.222h10.185V95.688h-10.185V84.824h26.383V68.238h-45.49v68.09
		H342.654z"/>
	<path fill="#003FDB" d="M399.298,123.719l-2.619,9.408l-16.974,16.78h-37.052V73.476l2.618-9.408h37.634l16.393,25.315V123.719z
		 M395.127,121.978V90.618l-14.49-22.38H349.54v68.09h31.069L395.127,121.978z M375.922,119.742h-7.178V84.824h7.178V119.742z"/>
</g>
</svg>
