<?xml version="1.0" encoding="utf-8"?>
<!-- Generator: Adobe Illustrator 16.2.0, SVG Export Plug-In . SVG Version: 6.00 Build 0)  -->
<!DOCTYPE svg PUBLIC "-//W3C//DTD SVG 1.1//EN" "http://www.w3.org/Graphics/SVG/1.1/DTD/svg11.dtd">
<svg version="1.1" id="Layer_1" xmlns="http://www.w3.org/2000/svg" xmlns:xlink="http://www.w3.org/1999/xlink" x="0px" y="0px"
	 width="1300px" height="180px" viewBox="0 0 1300 180" enable-background="new 0 0 1300 180" xml:space="preserve">
<ellipse opacity="0.5" fill="none" stroke="#000000" stroke-width="5" stroke-miterlimit="10" cx="88.76" cy="89.357" rx="22.2" ry="82.607"/>
<path opacity="0.5" fill="none" stroke="#000000" stroke-width="5" stroke-miterlimit="10" d="M99.859,70.13
	c39.511,22.812,66.571,49.911,60.44,60.53c-6.133,10.618-43.13,0.733-82.64-22.076C38.148,85.771,11.09,58.672,17.221,48.053
	C23.351,37.435,60.349,47.32,99.859,70.13z"/>
<ellipse transform="matrix(-0.5 -0.866 0.866 -0.5 55.749 210.9018)" opacity="0.5" fill="none" stroke="#000000" stroke-width="5" stroke-miterlimit="10" cx="88.759" cy="89.357" rx="22.201" ry="82.608"/>
<circle opacity="0.5" cx="88.33" cy="88.928" r="12.821"/>
<circle fill="#003FDB" stroke="#003FDB" stroke-width="4" stroke-miterlimit="10" cx="29.594" cy="43.801" r="5.859"/>
<g opacity="0.4">
	<path fill="#333333" d="M195.39,112.107l19.849,0.542c0.36,5.295,3.186,8.842,8.48,10.646c1.805,0.723,3.849,1.083,6.135,1.083
		c2.284,0,4.512-0.931,6.677-2.797c2.165-1.864,3.248-4.359,3.248-7.488c0-3.97-0.964-6.916-2.887-8.842
		c-2.408-2.405-4.633-3.998-6.677-4.782c-2.047-0.781-3.91-1.381-5.594-1.804c-1.687-0.42-2.828-0.691-3.429-0.812
		c-4.451-0.84-6.919-1.322-7.397-1.444c-4.213-0.84-8.301-2.887-12.271-6.135c-8.061-7.697-12.09-16.962-12.09-27.789
		c0-8.78,3.127-17.021,9.383-24.721c4.089-4.931,8.96-8.599,14.616-11.007c5.171-1.923,10.765-2.887,16.781-2.887
		c8.419,0,16.178,1.624,23.277,4.872c6.135,3.129,10.646,7.7,13.533,13.713c1.923,3.97,2.887,7.85,2.887,11.639
		c0,3.79-0.302,7.249-0.902,10.375h-0.18c-5.295,0.843-10.227,1.263-14.797,1.263c-4.573,0-8.661-0.479-12.271-1.443
		c0.24-0.84,0.361-1.683,0.361-2.526c0-2.887-1.354-5.292-4.06-7.218c-2.707-1.923-5.024-2.887-6.947-2.887
		c-8.782,0-12.753,4.331-11.909,12.992c1.443,4.212,5.351,6.797,11.729,7.759c6.375,0.722,12.271,2.769,17.684,6.135
		c5.413,3.369,9.924,7.641,13.533,12.812c4.57,5.896,6.856,12.513,6.856,19.849c0,7.339-1.325,13.655-3.97,18.947
		c-2.769,7.1-7.218,12.332-13.353,15.698c-6.135,3.369-12.812,5.053-20.029,5.053c-7.578,0-14.796-1.472-21.653-4.421
		c-6.856-2.946-12.301-7.156-16.33-12.631c-4.031-5.473-6.045-11.396-6.045-17.774c0-0.722,0-1.443,0-2.166v-1.083
		C188.352,112.35,190.938,112.107,195.39,112.107z"/>
	<path fill="#333333" d="M337.938,98.574h8.119c4.932,0,8.12,0.302,9.563,0.902c1.201,4.573,1.805,8.903,1.805,12.992
		c0,12.873-4.812,23.277-14.436,31.217c-6.496,5.413-14.015,8.179-22.555,8.301c-2.526,0.36-5.295,0.541-8.301,0.541
		c-3.009,0-6.798-0.482-11.368-1.443c-4.573-0.965-9.112-3.457-13.623-7.488c-4.512-4.029-7.068-9.231-7.669-15.608
		c-0.482-10.224-0.722-22.164-0.722-35.818c0-13.652,0-23.756,0-30.314c0-6.555,0-10.795,0-12.721c0-1.923,0.722-4.629,2.165-8.12
		c2.165-6.375,5.473-11.607,9.925-15.699c2.404-1.804,5.472-3.186,9.202-4.15c4.57-1.444,8.48-2.166,11.729-2.166
		c10.224,0,18.284,1.867,24.18,5.594c14.675,9.383,22.015,21.233,22.015,35.547c0,4.452-0.723,9.084-2.166,13.894
		c-2.769,0.604-6.256,0.902-10.466,0.902c-4.212,0-9.504-0.542-15.879-1.624c-0.242-1.322-0.423-3.366-0.541-6.135
		c-0.121-2.766-0.302-4.991-0.541-6.677c-0.723-5.052-2.408-8.359-5.053-9.924c-1.443-0.84-2.828-1.263-4.15-1.263
		c-1.325,0-3.279,0.211-5.864,0.632c-2.588,0.423-4.421,1.173-5.504,2.255c-0.36,0.243-0.662,0.843-0.901,1.805
		c-1.083,2.887-1.624,10.948-1.624,24.179c0,13.234,0.239,22.496,0.722,27.788c0.961,9.383,4.39,14.918,10.285,16.601
		c0.722,0.122,1.381,0.181,1.984,0.181c8.059,0,12.271-5.351,12.631-16.059c0.119-4.209,0.299-6.976,0.542-8.301
		C332.523,98.515,334.689,98.574,337.938,98.574z"/>
	<path fill="#333333" d="M370.415,22.246l6.496,0.361c9.983,0.361,16.601,0.542,19.849,0.542h4.331v0.722l-1.264,86.071
		c0,9.504,0.361,22.556,1.083,39.156c-0.361,1.322-3.97,1.985-10.826,1.985l-18.586-0.542c-1.805,0-2.949,0.06-3.429,0.181
		c0.601-7.818,0.902-18.104,0.902-30.855l-0.902-62.253c0-15.397,0.479-27.067,1.443-35.006v-0.361
		C369.753,22.246,370.055,22.246,370.415,22.246z"/>
	<path fill="#333333" d="M444.216,124.558l39.697,1.083c2.766,0,5.292-0.06,7.578-0.181v0.36c0.24,2.888,0.361,6.496,0.361,10.827
		c0,4.33-0.604,8.602-1.805,12.812L438.802,150c-8.3,0-15.879-0.299-22.735-0.902l-0.902-84.628c0-13.592,0.361-26.525,1.083-38.795
		c20.328-1.083,37.831-1.624,52.509-1.624c14.675,0,22.073,0.18,22.194,0.541c0.361,2.526,0.541,5.233,0.541,8.12l-0.541,17.503
		v0.181c-5.295,1.204-12.271,1.804-20.932,1.804h-9.383c-6.738,0-12.392,0.121-16.962,0.361h-0.541l-0.181,0.181l-0.541,15.698
		c0,3.13,0.299,4.993,0.902,5.594c6.496,0.361,13.894,0.542,22.194,0.542v0.181c0.479,0.361,0.722,2.887,0.722,7.579l-0.361,17.503
		c-2.525,0.722-6.586,1.083-12.18,1.083s-8.813,0.302-9.653,0.902c-0.482,2.526-0.722,5.684-0.722,9.473
		c0,3.789,0.239,8.151,0.722,13.082L444.216,124.558z"/>
	<path fill="#333333" d="M577.02,131.956l0.181,14.436V150c-1.805,0.601-3.79,0.902-5.955,0.902L554.645,150
		c-11.069-23.818-18.346-40.479-21.834-49.983l-1.804-5.413c-1.204-3.609-1.985-5.414-2.346-5.414c-0.844,0-1.264,9.445-1.264,28.33
		c0,18.887,0.06,29.714,0.181,32.48c-2.287,0.601-4.935,0.902-7.939,0.902l-17.322-1.083v-12.631l-0.542-65.14
		c0-19.127,0.542-35.246,1.624-48.359c2.044-0.479,4.48-0.722,7.308-0.722c2.825,0,6.164,0.181,10.015,0.542
		c3.849,0.361,5.774,0.784,5.774,1.263c1.201,3.129,2.735,6.496,4.602,10.104c1.863,3.609,3.338,6.708,4.421,9.293
		c1.083,2.588,3.88,8.391,8.391,17.413c4.511,9.022,6.885,13.533,7.127,13.533c0.841-0.601,1.264-3.908,1.264-9.924l-0.541-26.165
		c0-2.766,0.118-8.12,0.36-16.06c4.088-0.722,8.419-1.083,12.992-1.083c4.57,0,8.54,0.361,11.909,1.083v58.103
		c0.118,6.738,0.181,17.023,0.181,30.855L577.02,131.956z"/>
	<path fill="#333333" d="M649.556,98.574h8.119c4.932,0,8.12,0.302,9.563,0.902c1.201,4.573,1.805,8.903,1.805,12.992
		c0,12.873-4.812,23.277-14.436,31.217c-6.496,5.413-14.015,8.179-22.555,8.301c-2.526,0.36-5.295,0.541-8.301,0.541
		c-3.009,0-6.798-0.482-11.368-1.443c-4.573-0.965-9.112-3.457-13.623-7.488c-4.512-4.029-7.068-9.231-7.669-15.608
		c-0.482-10.224-0.722-22.164-0.722-35.818c0-13.652,0-23.756,0-30.314c0-6.555,0-10.795,0-12.721c0-1.923,0.722-4.629,2.165-8.12
		c2.165-6.375,5.473-11.607,9.925-15.699c2.404-1.804,5.472-3.186,9.202-4.15c4.57-1.444,8.48-2.166,11.729-2.166
		c10.224,0,18.284,1.867,24.18,5.594c14.675,9.383,22.015,21.233,22.015,35.547c0,4.452-0.723,9.084-2.166,13.894
		c-2.769,0.604-6.256,0.902-10.466,0.902c-4.212,0-9.504-0.542-15.879-1.624c-0.242-1.322-0.423-3.366-0.541-6.135
		c-0.121-2.766-0.302-4.991-0.541-6.677c-0.723-5.052-2.408-8.359-5.053-9.924c-1.443-0.84-2.828-1.263-4.15-1.263
		c-1.325,0-3.279,0.211-5.864,0.632c-2.588,0.423-4.421,1.173-5.504,2.255c-0.36,0.243-0.662,0.843-0.901,1.805
		c-1.083,2.887-1.624,10.948-1.624,24.179c0,13.234,0.239,22.496,0.722,27.788c0.961,9.383,4.39,14.918,10.285,16.601
		c0.722,0.122,1.381,0.181,1.984,0.181c8.059,0,12.271-5.351,12.631-16.059c0.119-4.209,0.299-6.976,0.542-8.301
		C644.142,98.515,646.308,98.574,649.556,98.574z"/>
	<path fill="#333333" d="M708.92,124.558l39.697,1.083c2.766,0,5.292-0.06,7.578-0.181v0.36c0.24,2.888,0.361,6.496,0.361,10.827
		c0,4.33-0.604,8.602-1.805,12.812L703.506,150c-8.3,0-15.879-0.299-22.735-0.902l-0.902-84.628c0-13.592,0.361-26.525,1.083-38.795
		c20.328-1.083,37.831-1.624,52.509-1.624c14.675,0,22.073,0.18,22.194,0.541c0.361,2.526,0.541,5.233,0.541,8.12l-0.541,17.503
		v0.181c-5.295,1.204-12.271,1.804-20.932,1.804h-9.383c-6.738,0-12.392,0.121-16.962,0.361h-0.541l-0.181,0.181l-0.541,15.698
		c0,3.13,0.299,4.993,0.902,5.594c6.496,0.361,13.894,0.542,22.194,0.542v0.181c0.479,0.361,0.722,2.887,0.722,7.579l-0.361,17.503
		c-2.525,0.722-6.586,1.083-12.18,1.083s-8.813,0.302-9.653,0.902c-0.482,2.526-0.722,5.684-0.722,9.473
		c0,3.789,0.239,8.151,0.722,13.082L708.92,124.558z"/>
	<path fill="#333333" d="M767.021,89.19c-0.361-2.044-0.542-5.233-0.542-9.563l0.361-11.368c2.283-0.961,6.225-1.444,11.818-1.444
		s9.172,0.361,10.736,1.083l-0.36,4.511c-0.482,9.265-0.722,14.796-0.722,16.601v0.361h-0.361l-20.39-0.181H767.021z
		 M767.021,149.819c-0.361-2.044-0.542-5.232-0.542-9.563l0.361-11.368c2.283-0.961,6.225-1.443,11.818-1.443
		s9.172,0.361,10.736,1.083l-0.36,4.511c-0.482,9.265-0.722,14.797-0.722,16.601V150h-0.361l-20.39-0.181H767.021z"/>
	<path fill="#003FDB" d="M887.553,107.055h-7.037c-2.165,0-3.49-0.119-3.97-0.361c-0.242-2.526-0.361-5.594-0.361-9.203
		s-0.121-6.857-0.36-9.744v-0.181c0-0.118,0.059-0.18,0.181-0.18c0.118,0,0.239-0.059,0.36-0.181c1.805-1.083,4.3-1.652,7.488-1.714
		c3.187-0.06,6.104-0.09,8.752-0.09c2.645,0,6.704,0.18,12.18,0.542c5.473,0.361,8.328,0.541,8.571,0.541h0.36l0.181,0.181
		c0.962,8.3,1.443,15.879,1.443,22.736s-0.481,12.873-1.443,18.044c-1.083,10.466-6.798,17.624-17.142,21.473
		c-9.022,2.526-16.632,3.79-22.826,3.79c-6.197,0-11.459-0.934-15.789-2.797c-4.331-1.864-7.821-4.48-10.466-7.85
		c-4.212-5.532-6.979-14.134-8.301-25.803c-1.325-13.353-1.984-23.035-1.984-29.052c0-15.997,0.722-28.479,2.165-37.442
		c1.443-8.96,4.932-15.366,10.466-19.217c5.653-4.81,14.013-7.218,25.082-7.218c11.065,0,20.328,2.859,27.788,8.571
		c7.457,5.715,11.188,14.046,11.188,24.991c0,2.647-0.181,5.115-0.542,7.398c-0.242,0.361-3.369,0.572-9.383,0.631
		c-6.017,0.062-10.466-0.09-13.353-0.451c-3.009-9.983-7.1-14.977-12.271-14.977c-1.082-0.119-2.137-0.181-3.157-0.181
		c-1.023,0-2.287,0.062-3.789,0.181c-1.506,0.121-2.707,0.631-3.609,1.534s-1.957,3.4-3.157,7.488
		c-1.805,6.377-2.707,14.887-2.707,25.533c0,10.646,0.33,19.398,0.992,26.254c0.66,6.857,2.555,11.548,5.685,14.075
		c1.804,1.204,3.997,1.805,6.586,1.805c2.585,0,5.503-0.601,8.751-1.805c3.006-1.322,4.872-3.487,5.594-6.496
		c0.361-1.443,0.632-3.428,0.812-5.955c0.181-2.526-0.031-4.15-0.632-4.872C889.416,107.055,888.636,107.055,887.553,107.055z"/>
	<path fill="#003FDB" d="M946.378,23.689c1.683-0.239,2.824-0.299,3.428-0.18c0.601,0.121,2.166,0.18,4.691,0.18
		c2.526,0,7.218-0.299,14.075-0.902l14.796,63.877l13.533,63.155V150c-3.008,0.601-6.496,0.902-10.466,0.902
		s-8.543-0.541-13.714-1.624h-0.18c-0.844-2.284-2.166-7.128-3.97-14.525c-1.805-7.398-3.311-12.36-4.512-14.887
		c-0.481-0.361-1.624-0.542-3.428-0.542l-7.76,0.361c-0.964,2.286-2.165,7.158-3.608,14.616c-1.443,7.46-2.887,12.631-4.331,15.518
		c-1.082,0.24-2.165,0.361-3.248,0.361l-22.555-0.361c-0.122,0-0.243-0.059-0.361-0.181c0.118-0.36,1.322-7.155,3.609-20.39
		c2.283-13.231,5.594-29.863,9.924-49.893C936.634,59.327,941.325,40.772,946.378,23.689z M951.61,98.393c4.449,0,8.9,0,13.353,0
		c-2.887-25.141-5.174-37.712-6.856-37.712c-0.482,0-0.965,0.902-1.443,2.707C956.181,65.192,954.497,76.861,951.61,98.393z"/>
	<path fill="#003FDB" d="M1078.641,150.181c-2.887-0.361-6.437-0.542-10.646-0.542L1054.822,150
		c-0.121-2.165-0.333-12.42-0.632-30.766c-0.302-18.343-0.934-31.487-1.895-39.427c-0.843,1.325-2.047,4.271-3.609,8.842
		c-4.33,11.669-6.918,17.503-7.759,17.503c-0.843,0-1.866-1.232-3.067-3.699c-1.204-2.464-2.137-4.601-2.797-6.406
		c-0.662-1.804-1.325-3.578-1.985-5.323c-0.662-1.743-1.234-3.367-1.714-4.872c-0.482-1.503-1.023-3.096-1.624-4.782
		c-0.604,7.579-0.902,16.902-0.902,27.969c0,11.069,0.479,24.541,1.444,40.419c-3.37,0.601-7.461,0.902-12.271,0.902L1005.02,150
		c-0.242,0-0.482-0.42-0.722-1.263c-0.242-0.841-0.36-12.42-0.36-34.736c0-22.313,0.118-51.576,0.36-87.786
		c0.479-0.722,3.248-1.083,8.301-1.083l13.172,0.18c1.562,0,2.586,0,3.067,0h0.181c1.684,1.805,3.817,6.378,6.406,13.714
		c2.585,7.339,4.421,11.85,5.503,13.533c0.361,0.361,0.69,0.572,0.992,0.632c0.299,0.062,0.723-0.691,1.264-2.256
		c0.541-1.562,1.173-3.547,1.895-5.955c0.722-2.405,1.503-4.931,2.346-7.579c2.165-6.614,3.908-10.765,5.232-12.451
		c0.962,0.122,1.985,0.181,3.068,0.181l23.638-0.902c-0.121,3.248-0.181,7.28-0.181,12.09l0.361,38.254
		c0,7.579-0.121,13.595-0.361,18.044L1078.641,150.181z"/>
	<path fill="#003FDB" d="M1123.028,124.558l39.697,1.083c2.766,0,5.292-0.06,7.578-0.181v0.36c0.24,2.888,0.361,6.496,0.361,10.827
		c0,4.33-0.604,8.602-1.805,12.812L1117.614,150c-8.3,0-15.879-0.299-22.735-0.902l-0.902-84.628
		c0-13.592,0.361-26.525,1.083-38.795c20.328-1.083,37.831-1.624,52.509-1.624c14.675,0,22.073,0.18,22.194,0.541
		c0.361,2.526,0.541,5.233,0.541,8.12l-0.541,17.503v0.181c-5.295,1.204-12.271,1.804-20.932,1.804h-9.383
		c-6.738,0-12.392,0.121-16.962,0.361h-0.541l-0.181,0.181l-0.541,15.698c0,3.13,0.299,4.993,0.902,5.594
		c6.496,0.361,13.894,0.542,22.194,0.542v0.181c0.479,0.361,0.722,2.887,0.722,7.579l-0.361,17.503
		c-2.525,0.722-6.586,1.083-12.18,1.083s-8.813,0.302-9.653,0.902c-0.482,2.526-0.722,5.684-0.722,9.473
		c0,3.789,0.239,8.151,0.722,13.082L1123.028,124.558z"/>
	<path fill="#003FDB" d="M1203.684,23.329l16.781,0.181c1.684,0,3.127,0,4.331,0c3.849,0.964,7.548,2.828,11.097,5.594
		c3.547,2.769,6.406,5.955,8.571,9.563c4.932,7.7,8.54,16.542,10.827,26.525c0.84,2.526,1.381,6.315,1.624,11.368
		c-0.122,1.805-0.243,4.602-0.361,8.391c-0.121,3.79-0.242,6.767-0.361,8.932c-0.36,6.738-0.752,11.218-1.173,13.443
		c-0.423,2.228-0.662,3.338-0.722,3.338c-0.062,0-0.09,0.062-0.09,0.18c-3.97,11.43-11.61,24.18-22.916,38.254
		c-10.587,0.361-26.407,0.541-47.457,0.541l-0.181,0.181c-2.047-14.675-3.067-35.246-3.067-61.711l0.361-45.291
		c0-6.615-0.062-12.208-0.181-16.781l0.541-0.722C1186.962,23.991,1194.419,23.329,1203.684,23.329z M1206.571,76.018v19.127
		c0,5.896,0.059,10.827,0.18,14.796c1.201,0.964,3.006,1.444,5.414,1.444c4.209,0,7.578-0.479,10.104-1.444
		c1.923-1.201,3.789-3.126,5.594-5.774c3.366-5.171,5.053-10.525,5.053-16.06c0-3.97-0.604-7.877-1.805-11.729
		c-2.408-7.818-5.955-12.51-10.646-14.074c-2.407-0.361-4.753-0.542-7.037-0.542c-2.286,0-4.452,0.243-6.496,0.722h-0.541v0.722
		C1206.509,66.094,1206.571,70.365,1206.571,76.018z"/>
</g>
<g>
	<path fill="#333333" d="M196.291,110.172l20.751,0.361c0,1.325,0.181,2.526,0.542,3.609h3.067c0,3.008,0.659,5.083,1.984,6.225
		c1.322,1.145,3.308,1.715,5.955,1.715c2.645,0,4.872-0.723,6.677-2.166c1.804-1.444,2.706-3.158,2.706-5.143
		c0-1.985-0.181-3.519-0.541-4.601c-0.361-1.083-0.992-1.985-1.895-2.707s-1.687-1.322-2.346-1.805
		c-0.663-0.479-1.745-0.93-3.248-1.353c-1.506-0.42-2.589-0.722-3.248-0.902c-0.663-0.181-1.895-0.42-3.699-0.722
		c-1.805-0.299-2.887-0.51-3.248-0.632l-2.707-0.541c-5.655-1.201-11.249-4.57-16.781-10.105
		c-8.421-8.058-12.631-17.684-12.631-28.871s4.089-20.779,12.271-28.78c8.179-7.999,18.343-12,30.495-12
		c12.148,0,22.674,3.4,31.577,10.195c8.901,6.798,13.353,15.91,13.353,27.337c0,3.008-0.36,6.437-1.082,10.285H272.8
		c-5.295,0.843-10.497,1.263-15.608,1.263c-5.115,0-9.775-0.601-13.984-1.805c0.118-0.361,0.18-1.263,0.18-2.707
		c-1.686-0.24-2.948-0.542-3.789-0.902c0.118-0.361,0.181-1.142,0.181-2.346c0-4.209-2.286-6.315-6.856-6.315
		c-2.408,0-4.452,0.722-6.136,2.165c-1.686,1.444-2.526,3.099-2.526,4.962c0,1.866,0.119,3.129,0.361,3.789
		c0.239,0.663,0.66,1.145,1.263,1.444c0.601,0.302,1.083,0.513,1.444,0.631c0.84,0.361,2.103,0.542,3.789,0.542
		c11.306,1.686,21.352,7.068,30.134,16.149c8.779,9.084,13.173,19.249,13.173,30.495c0,11.25-3.852,20.571-11.549,27.968
		c-7.7,7.398-17.322,11.098-28.871,11.098c-11.548,0-22.496-3.941-32.841-11.819c-10.347-7.877-15.518-17.351-15.518-28.419
		l0.181-2.346v-2.526C189.073,110.415,192.562,110.172,196.291,110.172z M215.238,112.338l-18.225-0.361
		c-3.37,0-6.496,0.181-9.384,0.542v3.067c0,10.587,4.54,19.068,13.624,25.443c9.081,6.377,19.036,9.563,29.863,9.563
		c10.826,0,19.849-3.397,27.066-10.195c7.218-6.795,10.826-15.698,10.826-26.706c0-11.007-3.789-20.39-11.367-28.149
		c-7.579-7.759-16.482-12.239-26.706-13.443c-8.061-0.84-12.09-4.39-12.09-10.646c0-3.248,1.021-5.743,3.067-7.488
		c2.044-1.743,4.63-2.617,7.76-2.617c3.126,0,5.954,0.964,8.48,2.887c2.526,1.926,3.789,4.452,3.789,7.579
		c0,1.083-0.062,1.805-0.181,2.166c3.97,1.083,7.968,1.624,12,1.624c4.029,0,9.05-0.479,15.067-1.444h0.18
		c0.601-3.366,0.902-6.194,0.902-8.48c0-10.706-3.82-18.735-11.458-24.089c-7.641-5.351-17.173-8.03-28.601-8.03
		c-11.43,0-21.021,3.79-28.78,11.368s-11.639,16.843-11.639,27.788c0,6.978,2.135,13.956,6.406,20.931
		c4.269,6.979,10.254,11.128,17.954,12.451c0.6,0.122,2.013,0.392,4.24,0.812c2.225,0.423,3.758,0.753,4.601,0.993
		c0.841,0.242,2.225,0.631,4.15,1.173c1.923,0.541,3.339,1.054,4.24,1.534c0.902,0.482,2.014,1.173,3.339,2.075
		c1.322,0.902,2.346,1.835,3.067,2.797c1.562,2.408,2.346,5.233,2.346,8.481c0,3.248-1.083,5.715-3.248,7.397
		c-2.165,1.687-4.903,2.526-8.21,2.526c-3.311,0-6.257-0.992-8.842-2.977C216.891,118.924,215.478,116.068,215.238,112.338z"/>
	<path fill="#333333" d="M277.128,52.972l-0.181-1.985c0-3.97,0.781-7.579,2.346-10.827c5.532-15.518,17.08-23.277,34.646-23.277
		c12.749,0,24.207,4.812,34.374,14.436c10.164,9.625,15.248,20.511,15.248,32.66c0,4.691-0.965,9.685-2.888,14.977
		c-3.49,0.843-7.578,1.263-12.27,1.263c-4.692,0-10.348-0.66-16.962-1.985l-0.361-2.887c-0.481-0.118-0.874-0.208-1.173-0.271
		c-0.302-0.059-0.604-0.149-0.902-0.271c-0.302-0.119-0.513-0.24-0.631-0.361c-0.122-0.119-0.243-0.33-0.361-0.632
		c-0.121-0.299-0.211-0.542-0.271-0.722c-0.062-0.181-0.121-0.542-0.181-1.083c-0.062-0.542-0.121-0.993-0.181-1.354
		c-0.062-0.361-0.121-0.961-0.18-1.804c-0.062-0.84-0.091-1.562-0.091-2.166c0-0.601-0.031-1.714-0.09-3.338
		c-0.062-1.624-0.181-2.797-0.361-3.519s-0.451-1.562-0.812-2.526c-0.604-1.923-2.558-2.887-5.864-2.887
		c-3.311,0-5.746,0.784-7.309,2.346c-0.36,0.361-0.753,4.212-1.173,11.548c-0.423,7.339-0.631,13.054-0.631,17.142v16.06
		c0,5.295,0.18,8.661,0.541,10.104c0.36,1.444,0.722,2.887,1.082,4.331c0.723,2.769,2.586,4.331,5.594,4.692
		c3.006,0,5.293-0.75,6.857-2.256c1.562-1.502,2.495-3.186,2.797-5.052c0.299-1.864,0.632-4.629,0.992-8.3
		c0.361-3.668,0.781-6.646,1.264-8.932c2.525,0.361,4.99,0.542,7.397,0.542l8.481-0.181c4.57,0,8.238,0.361,11.007,1.083
		c0.118,0.361,0.239,0.874,0.36,1.534c0.119,0.663,0.299,1.173,0.542,1.534l2.706,0.542c1.684,4.691,2.526,9.504,2.526,14.435
		c0,12.752-4.271,22.948-12.812,30.585c-8.543,7.638-19.608,11.458-33.201,11.458c-9.744,0-18.495-2.707-26.255-8.12
		c-7.759-5.413-12.12-12.631-13.082-21.653c-0.604-12.027-0.902-22.646-0.902-31.848C276.767,86.805,276.886,72.46,277.128,52.972z
		 M346.237,98.263l-9.563,0.18c-1.325,0-3.067-0.118-5.232-0.361c-0.482,1.686-0.843,4.271-1.083,7.759
		c-0.242,3.49-0.541,6.256-0.902,8.3c-0.36,2.047-1.505,3.941-3.428,5.684c-1.926,1.745-4.512,2.616-7.76,2.616
		s-5.805-0.961-7.669-2.887c-1.866-1.923-3.157-4.872-3.879-8.842c-0.965-5.292-1.443-12.569-1.443-21.834
		c0-9.262,0.18-16.719,0.541-22.375c0.601-9.022,1.263-13.894,1.984-14.616c1.923-1.923,4.661-2.887,8.211-2.887
		c3.547,0,6.104,0.482,7.668,1.444c1.562,0.964,2.676,2.436,3.339,4.421c0.659,1.985,1.11,3.851,1.354,5.594
		c0.239,1.745,0.42,3.941,0.541,6.586c0.118,2.647,0.299,4.632,0.541,5.955c5.292,1.204,10.133,1.805,14.526,1.805
		c4.39,0,8.328-0.361,11.818-1.083c1.562-4.209,2.346-8.661,2.346-13.353c0-11.427-4.421-21.23-13.263-29.412
		c-8.842-8.179-19.157-12.271-30.945-12.271c-16.844,0-27.851,7.339-33.021,22.014c-1.443,3.491-2.165,6.288-2.165,8.391
		c0,2.106,0.059,3.338,0.181,3.699c-0.243,19.488-0.361,33.833-0.361,43.036s0.299,19.82,0.902,31.849
		c0.722,8.182,4.39,14.316,11.007,18.405c6.614,4.088,14.255,6.135,22.916,6.135c12.871,0,23.458-3.668,31.759-11.007
		c8.3-7.337,12.45-17.08,12.45-29.232c0-4.57-0.662-8.841-1.985-12.811C353.334,98.565,350.207,98.263,346.237,98.263z"/>
	<path fill="#333333" d="M371.137,20.131l21.293,0.902h10.466v3.609h3.608v2.526l-1.263,87.515c0,13.234,0.36,26.046,1.082,38.435
		c-1.926,1.923-6.315,2.887-13.172,2.887l-15.699-0.36c-2.647,0-5.232,0.299-7.759,0.901c0-0.481,0.028-1.203,0.091-2.165
		c0.059-0.964,0.09-1.686,0.09-2.165c-2.047,0.239-3.311,0.479-3.789,0.722c0.84-12.389,1.263-23.697,1.263-33.923l-1.263-62.253
		c0-11.788,0.601-23.878,1.804-36.269C369.572,20.252,370.655,20.131,371.137,20.131z M399.827,109.451l1.264-85.891v-0.722h-8.481
		l-22.375-0.902h-0.722v0.361c-1.082,9.744-1.624,21.174-1.624,34.284l1.264,63.516c0,10.104-0.361,20.21-1.083,30.314
		c1.684-0.242,3.067-0.36,4.15-0.36l18.044,0.722c5.774,0,9.321-0.663,10.646-1.985
		C400.188,135.795,399.827,122.685,399.827,109.451z"/>
	<path fill="#333333" d="M493.296,125.33l0.181,1.623c1.443,0,2.585-0.059,3.429-0.18v2.165c0.239,3.608,0.36,7.339,0.36,11.188
		c0,3.852-0.722,8.661-2.165,14.436l-47.276,0.541c-10.708,0-20.691-0.36-29.953-1.082v-3.429l-3.609-0.181l-1.083-79.937
		c0-15.157,0.479-30.793,1.444-46.915c22.493-1.083,43.546-1.624,63.155-1.624c9.501,0,14.494,0.722,14.977,2.166
		c0,1.204,0.601,2.075,1.804,2.616c1.201,0.542,1.805,0.874,1.805,0.993c0.479,2.769,0.722,5.895,0.722,9.383l-0.722,18.044
		c-6.135,1.443-13.894,2.166-23.277,2.166h-6.495l-7.038-0.181c-3.608,0-7.339,0.181-11.188,0.542l-0.541,12.992v1.624l3.248,0.181
		l7.037-0.181c0.601,0,3.609,0.181,9.022,0.542c0,2.286,0.541,3.428,1.624,3.428l1.984,0.181c0.601,3.129,0.902,6.797,0.902,11.007
		l-0.36,17.142c-3.369,0.964-7.731,1.475-13.082,1.534c-5.354,0.062-8.332,0.152-8.933,0.271c-0.36,1.804-0.541,4.542-0.541,8.21
		c0,3.671,0.06,6.288,0.181,7.849c14.436,0.722,24.478,1.083,30.134,1.083c5.653,0,10.403-0.118,14.255-0.361V125.33z
		 M442.23,149.689l47.817-0.541c1.201-4.691,1.805-8.901,1.805-12.631c0-3.728-0.121-7.398-0.361-11.008v-0.36
		c-1.804,0.121-4.393,0.181-7.759,0.181l-39.517-1.083l-0.181-0.181c-0.482-3.006-0.722-6.885-0.722-11.639
		c0-4.75,0.239-8.391,0.722-10.917c0.722-0.601,3.938-0.902,9.653-0.902c5.712,0,9.772-0.361,12.18-1.083l0.181-15.699
		c0-4.209-0.181-7.336-0.541-9.383v-0.181c-8.301,0-15.698-0.181-22.194-0.542l-0.181-0.18c-0.482-1.805-0.722-4.088-0.722-6.857
		l0.541-14.255c1.443-0.361,5.712-0.542,12.812-0.542h14.255c8.78,0,15.758-0.601,20.932-1.804v-0.181l0.541-17.142
		c0-2.766-0.18-5.594-0.541-8.481c0-0.361-6.888-0.541-20.661-0.541c-13.775,0-31.789,0.541-54.042,1.624
		c-0.722,11.669-1.083,26.105-1.083,43.306l0.902,80.117C423.163,149.391,431.883,149.689,442.23,149.689z"/>
	<path fill="#333333" d="M582.433,142.472l0.181,7.218l-0.181,5.053c-0.242,0-0.722,0.118-1.443,0.36
		c-2.047,0.601-4.091,0.902-6.135,0.902l-17.684-0.902c-0.722-1.204-1.264-2.407-1.624-3.608h-1.985
		c-1.804-3.97-4.271-9.262-7.397-15.879c-6.979-14.676-11.489-24.961-13.533-30.856c0,27.309,0.118,43.969,0.36,49.983
		c-2.526,0.84-5.774,1.263-9.744,1.263l-19.127-1.083v-3.608h-3.608v-14.436l-0.542-65.14c0-18.884,0.601-35.485,1.805-49.802
		c2.888-0.722,5.864-1.083,8.932-1.083c3.068,0,6.705,0.333,10.917,0.992c4.21,0.663,6.435,1.475,6.677,2.436
		c0.239,1.204,0.902,2.075,1.984,2.617c1.083,0.541,1.624,0.874,1.624,0.992c3.248,7.821,9.442,21.414,18.586,40.78v-3.789
		l-0.541-26.165c0-0.601,0-1.322,0-2.165l0.36-11.549v-3.97c4.21-0.84,8.812-1.263,13.805-1.263c4.99,0,9.893,0.482,14.706,1.443
		v3.067c1.443,0.361,2.645,0.542,3.608,0.542v59.546l0.181,30.855l-0.181,10.285V142.472z M554.645,149.689l16.601,0.902
		c2.165,0,4.15-0.302,5.955-0.902v-3.608l-0.181-14.436l0.181-20.03V96.098c0-6.857-0.062-11.968-0.181-15.337V22.657
		c-3.369-0.722-7.339-1.083-11.909-1.083c-4.573,0-8.904,0.361-12.992,1.083c-0.242,7.939-0.36,13.294-0.36,16.06l0.541,26.165
		c0,6.017-0.423,9.324-1.264,9.924c-0.242,0-2.616-4.511-7.127-13.533c-4.511-9.022-7.189-14.554-8.03-16.601
		c-0.843-2.044-1.895-4.299-3.157-6.767c-1.264-2.464-1.895-3.758-1.895-3.879l-1.985-4.15c-0.36-0.722-1.145-2.526-2.346-5.413
		c0-0.479-1.926-0.902-5.774-1.263c-3.851-0.361-7.189-0.542-10.015-0.542c-2.827,0-5.264,0.243-7.308,0.722
		c-1.082,13.113-1.624,29.232-1.624,48.359l0.542,65.14v12.631l17.322,1.083c3.005,0,5.652-0.302,7.939-0.902
		c-0.121-1.322-0.181-3.608-0.181-6.856v-8.12c0-30.554,0.42-45.833,1.264-45.833c0.36,0,1.142,1.805,2.346,5.414l1.804,5.413
		c3.006,8.061,6.976,17.444,11.909,28.149C549.651,138.564,552.958,145.841,554.645,149.689z"/>
	<path fill="#333333" d="M588.746,52.972l-0.181-1.985c0-3.97,0.781-7.579,2.346-10.827c5.532-15.518,17.08-23.277,34.646-23.277
		c12.749,0,24.207,4.812,34.374,14.436c10.164,9.625,15.248,20.511,15.248,32.66c0,4.691-0.965,9.685-2.888,14.977
		c-3.49,0.843-7.578,1.263-12.27,1.263c-4.692,0-10.348-0.66-16.962-1.985l-0.361-2.887c-0.481-0.118-0.874-0.208-1.173-0.271
		c-0.302-0.059-0.604-0.149-0.902-0.271c-0.302-0.119-0.513-0.24-0.631-0.361c-0.122-0.119-0.243-0.33-0.361-0.632
		c-0.121-0.299-0.211-0.542-0.271-0.722c-0.062-0.181-0.121-0.542-0.181-1.083c-0.062-0.542-0.121-0.993-0.181-1.354
		c-0.062-0.361-0.121-0.961-0.18-1.804c-0.062-0.84-0.091-1.562-0.091-2.166c0-0.601-0.031-1.714-0.09-3.338
		c-0.062-1.624-0.181-2.797-0.361-3.519s-0.451-1.562-0.812-2.526c-0.604-1.923-2.558-2.887-5.864-2.887
		c-3.311,0-5.746,0.784-7.309,2.346c-0.36,0.361-0.753,4.212-1.173,11.548c-0.423,7.339-0.631,13.054-0.631,17.142v16.06
		c0,5.295,0.18,8.661,0.541,10.104c0.36,1.444,0.722,2.887,1.082,4.331c0.723,2.769,2.586,4.331,5.594,4.692
		c3.006,0,5.293-0.75,6.857-2.256c1.562-1.502,2.495-3.186,2.797-5.052c0.299-1.864,0.632-4.629,0.992-8.3
		c0.361-3.668,0.781-6.646,1.264-8.932c2.525,0.361,4.99,0.542,7.397,0.542l8.481-0.181c4.57,0,8.238,0.361,11.007,1.083
		c0.118,0.361,0.239,0.874,0.36,1.534c0.119,0.663,0.299,1.173,0.542,1.534l2.706,0.542c1.684,4.691,2.526,9.504,2.526,14.435
		c0,12.752-4.271,22.948-12.812,30.585c-8.543,7.638-19.608,11.458-33.201,11.458c-9.744,0-18.495-2.707-26.255-8.12
		c-7.759-5.413-12.12-12.631-13.082-21.653c-0.604-12.027-0.902-22.646-0.902-31.848C588.385,86.805,588.504,72.46,588.746,52.972z
		 M657.855,98.263l-9.563,0.18c-1.325,0-3.067-0.118-5.232-0.361c-0.482,1.686-0.843,4.271-1.083,7.759
		c-0.242,3.49-0.541,6.256-0.902,8.3c-0.36,2.047-1.505,3.941-3.428,5.684c-1.926,1.745-4.512,2.616-7.76,2.616
		s-5.805-0.961-7.669-2.887c-1.866-1.923-3.157-4.872-3.879-8.842c-0.965-5.292-1.443-12.569-1.443-21.834
		c0-9.262,0.18-16.719,0.541-22.375c0.601-9.022,1.263-13.894,1.984-14.616c1.923-1.923,4.661-2.887,8.211-2.887
		c3.547,0,6.104,0.482,7.668,1.444c1.562,0.964,2.676,2.436,3.339,4.421c0.659,1.985,1.11,3.851,1.354,5.594
		c0.239,1.745,0.42,3.941,0.541,6.586c0.118,2.647,0.299,4.632,0.541,5.955c5.292,1.204,10.133,1.805,14.526,1.805
		c4.39,0,8.328-0.361,11.818-1.083c1.562-4.209,2.346-8.661,2.346-13.353c0-11.427-4.421-21.23-13.263-29.412
		c-8.842-8.179-19.157-12.271-30.945-12.271c-16.844,0-27.851,7.339-33.021,22.014c-1.443,3.491-2.165,6.288-2.165,8.391
		c0,2.106,0.059,3.338,0.181,3.699c-0.243,19.488-0.361,33.833-0.361,43.036s0.299,19.82,0.902,31.849
		c0.722,8.182,4.39,14.316,11.007,18.405c6.614,4.088,14.255,6.135,22.916,6.135c12.871,0,23.458-3.668,31.759-11.007
		c8.3-7.337,12.45-17.08,12.45-29.232c0-4.57-0.662-8.841-1.985-12.811C664.952,98.565,661.825,98.263,657.855,98.263z"/>
	<path fill="#333333" d="M758,125.33l0.181,1.623c1.443,0,2.585-0.059,3.429-0.18v2.165c0.239,3.608,0.36,7.339,0.36,11.188
		c0,3.852-0.722,8.661-2.165,14.436l-47.276,0.541c-10.708,0-20.691-0.36-29.953-1.082v-3.429l-3.609-0.181l-1.083-79.937
		c0-15.157,0.479-30.793,1.444-46.915c22.493-1.083,43.546-1.624,63.155-1.624c9.501,0,14.494,0.722,14.977,2.166
		c0,1.204,0.601,2.075,1.804,2.616c1.201,0.542,1.805,0.874,1.805,0.993c0.479,2.769,0.722,5.895,0.722,9.383l-0.722,18.044
		c-6.135,1.443-13.894,2.166-23.277,2.166h-6.495l-7.038-0.181c-3.608,0-7.339,0.181-11.188,0.542l-0.541,12.992v1.624l3.248,0.181
		l7.037-0.181c0.601,0,3.609,0.181,9.022,0.542c0,2.286,0.541,3.428,1.624,3.428l1.984,0.181c0.601,3.129,0.902,6.797,0.902,11.007
		l-0.36,17.142c-3.369,0.964-7.731,1.475-13.082,1.534c-5.354,0.062-8.332,0.152-8.933,0.271c-0.36,1.804-0.541,4.542-0.541,8.21
		c0,3.671,0.06,6.288,0.181,7.849c14.436,0.722,24.478,1.083,30.134,1.083c5.653,0,10.403-0.118,14.255-0.361V125.33z
		 M706.935,149.689l47.817-0.541c1.201-4.691,1.805-8.901,1.805-12.631c0-3.728-0.121-7.398-0.361-11.008v-0.36
		c-1.804,0.121-4.393,0.181-7.759,0.181l-39.517-1.083l-0.181-0.181c-0.482-3.006-0.722-6.885-0.722-11.639
		c0-4.75,0.239-8.391,0.722-10.917c0.722-0.601,3.938-0.902,9.653-0.902c5.712,0,9.772-0.361,12.18-1.083l0.181-15.699
		c0-4.209-0.181-7.336-0.541-9.383v-0.181c-8.301,0-15.698-0.181-22.194-0.542l-0.181-0.18c-0.482-1.805-0.722-4.088-0.722-6.857
		l0.541-14.255c1.443-0.361,5.712-0.542,12.812-0.542h14.255c8.78,0,15.758-0.601,20.932-1.804v-0.181l0.541-17.142
		c0-2.766-0.18-5.594-0.541-8.481c0-0.361-6.888-0.541-20.661-0.541c-13.775,0-31.789,0.541-54.042,1.624
		c-0.722,11.669-1.083,26.105-1.083,43.306l0.902,80.117C687.867,149.391,696.587,149.689,706.935,149.689z"/>
	<path fill="#333333" d="M792.643,69.753c1.322,0,1.985,1.263,1.985,3.79c0,6.738-0.482,13.713-1.443,20.931l-24.18-0.18
		c-0.361-1.083-0.541-2.284-0.541-3.609h-3.067c-0.482-3.005-0.723-6.676-0.723-11.007l0.361-12.811
		c3.366-1.444,7.729-2.166,13.082-2.166c5.352,0,9.532,0.722,12.541,2.166l0.36,2.526L792.643,69.753z M792.643,130.382
		c1.322,0,1.985,1.264,1.985,3.789c0,6.739-0.482,13.714-1.443,20.932l-24.18-0.181c-0.361-1.082-0.541-2.286-0.541-3.608h-3.067
		c-0.482-3.006-0.723-6.677-0.723-11.007l0.361-12.812c3.366-1.443,7.729-2.165,13.082-2.165c5.352,0,9.532,0.722,12.541,2.165
		l0.36,2.526L792.643,130.382z M766.84,67.949l-0.361,12.631c0,4.212,0.181,6.978,0.542,8.3h0.541l20.39,0.181h0.361V88.7
		c0-1.805,0.239-7.336,0.722-16.601l0.36-4.511c-1.564-0.722-5.204-1.083-10.916-1.083C772.764,66.505,768.884,66.987,766.84,67.949
		z M766.84,128.577l-0.361,12.632c0,4.212,0.181,6.978,0.542,8.3l0.541,0.181h20.751v-0.361c0-1.804,0.239-7.336,0.722-16.601
		l0.36-4.511c-1.686-0.722-5.354-1.083-11.007-1.083C772.732,127.134,768.884,127.616,766.84,128.577z"/>
	<path fill="#003FDB" d="M874.02,96.458l0.181-4.331c0-2.284-0.062-4.57-0.181-6.857h0.541c0.361,0,0.542,0.122,0.542,0.361
		c1.562-1.562,6.555-2.346,14.977-2.346l23.277,1.083l2.165,0.18c0,0.604,0.118,1.745,0.361,3.429l3.247,0.18
		c1.083,12.152,1.624,21.202,1.624,27.157s-0.481,11.16-1.443,15.609c-1.926,18.044-16.121,27.066-42.584,27.066
		c-11.909,0-21.445-4.271-28.601-12.812c-7.158-8.54-10.736-19.065-10.736-31.578c-1.204-10.104-1.805-21.32-1.805-33.652
		c0-12.33,0.42-20.96,1.264-25.894c3.366-21.893,16.299-32.841,38.795-32.841c12.271,0,22.646,3.671,31.126,11.007
		c8.481,7.339,12.722,16.843,12.722,28.51v3.067c0,2.769-0.302,4.331-0.902,4.691c-0.604,0.361-1.145,0.663-1.624,0.902
		c-0.722,0.482-1.805,0.722-3.248,0.722h-6.856c-6.017,0-10.646-0.239-13.895-0.722c-0.121-0.118-0.242-0.569-0.36-1.353
		c-0.121-0.781-0.393-1.292-0.812-1.534c-0.423-0.239-1.234-0.479-2.436-0.722c-1.687-5.532-3.189-8.661-4.512-9.383
		c-2.407-1.322-4.33-1.985-5.773-1.985h-3.248c-0.604,0-1.023,0.062-1.264,0.18c-0.242,0.122-0.513,0.243-0.812,0.361
		c-0.302,0.122-0.514,0.271-0.632,0.451c-0.121,0.181-0.302,0.423-0.541,0.722c-0.242,0.302-0.423,0.632-0.542,0.993
		c-0.481,1.443-0.843,2.467-1.082,3.067c-2.287,7.579-3.429,18.648-3.429,33.202v10.646c0,8.904,1.201,15.338,3.609,19.308
		l1.984,0.541c0.479,0.121,1.742,0.181,3.789,0.181c2.045,0,4.061-0.451,6.045-1.354c1.985-0.902,3.339-1.984,4.061-3.248
		s1.381-3.699,1.984-7.308h-3.428c-3.009,0-5.354-0.299-7.038-0.902c-0.121-1.443-0.423-2.314-0.902-2.616
		c-0.481-0.299-0.992-0.51-1.533-0.632c-0.541-0.118-0.934-0.239-1.173-0.361C874.318,103.437,874.02,99.707,874.02,96.458z
		 M889.718,85.091c-7.099,0-11.729,0.722-13.894,2.165v0.181c0.239,1.325,0.36,3.73,0.36,7.218v5.052
		c0,3.248,0.119,5.476,0.361,6.677c0.36,0.242,1.562,0.361,3.608,0.361l7.218-0.181c0.479,0,1.021,0,1.624,0
		c1.083,0,1.624,1.083,1.624,3.248c0,6.617-1.384,10.948-4.15,12.992c-2.769,2.047-5.864,3.067-9.292,3.067
		c-3.429,0-5.927-0.451-7.489-1.354c-1.564-0.902-2.827-2.314-3.789-4.24c-0.964-1.923-1.745-3.668-2.346-5.233
		c-1.083-3.367-1.624-8.78-1.624-16.24l0.181-9.022c0-8.78,0.479-16.99,1.443-24.63c0.962-7.638,2.225-12.239,3.789-13.804
		c1.562-1.562,3.79-2.346,6.677-2.346l4.511,0.181c5.292,0,9.384,4.993,12.271,14.977c3.728,0.482,8.359,0.722,13.895,0.722
		c5.531,0,8.48-0.299,8.841-0.902c0.361-2.166,0.542-4.449,0.542-6.857c0-10.827-3.609-19.217-10.827-25.172
		s-16.451-8.932-27.697-8.932c-11.25,0-19.759,2.408-25.533,7.218c-4.331,3.008-7.398,7.52-9.202,13.533
		c-1.805,6.256-2.828,11.729-3.068,16.42c-0.36,6.496-0.541,11.069-0.541,13.714l0.181,10.466v10.104
		c0,10.708,0.722,19.37,2.165,25.983c1.443,6.618,2.735,11.039,3.88,13.264c1.142,2.227,2.616,4.691,4.421,7.397
		c1.805,2.707,3.907,4.782,6.315,6.226c5.652,3.487,11.969,5.232,18.946,5.232c25.262,0,38.854-8.48,40.78-25.442
		c0.962-4.449,1.443-9.952,1.443-16.51c0-6.555-0.481-14.644-1.443-24.27l-0.541-0.181L889.718,85.091z"/>
	<path fill="#003FDB" d="M970.918,24.462l2.706-0.361c0,0.361,5.053,22.194,15.157,65.501l13.895,65.14
		c-4.812,0.84-9.324,1.263-13.533,1.263c-4.212,0-8.963-0.604-14.255-1.805c-0.121-0.481-0.271-0.874-0.451-1.173
		c-0.181-0.302-0.302-0.572-0.361-0.812c-0.062-0.242-0.18-0.423-0.36-0.541c-0.181-0.122-0.302-0.243-0.361-0.361
		c-0.062-0.121-0.181-0.212-0.36-0.271c-0.181-0.062-0.333-0.152-0.451-0.271c-0.361-0.122-0.784-0.181-1.264-0.181
		c-1.082-3.248-2.196-7.246-3.338-12c-1.145-4.75-2.075-8.269-2.797-10.556c-0.722-2.283-1.506-3.429-2.346-3.429l-5.053,0.181
		c-0.604,1.687-1.596,6.226-2.978,13.624c-1.384,7.397-3.098,12.901-5.143,16.51l-3.97,0.361c-0.36,0-5.715-0.121-16.059-0.361
		l-9.563-0.18l0.541-3.609h-4.15l2.526-13.353c8.3-47.276,16.962-85.95,25.983-116.025c1.201-0.24,2.946-0.361,5.233-0.361
		l2.526,0.181c3.487,0,9.262-0.361,17.322-1.083C970.495,22.657,970.797,23.982,970.918,24.462z M952.873,119.375l5.233-0.181h2.346
		c0.239,0,1.443,0.122,3.608,0.361c1.201,2.526,2.707,7.488,4.512,14.887c1.804,7.397,3.126,12.241,3.97,14.525h0.18
		c4.692,1.083,9.082,1.624,13.173,1.624c4.088,0,7.759-0.302,11.007-0.902v-0.181l-13.533-63.155
		c-1.082-4.57-6.017-25.863-14.796-63.877c-5.295,0.482-10.528,0.722-15.699,0.722h-3.789c-1.443,0-2.346,0.062-2.706,0.18
		c-5.053,17.083-9.744,35.609-14.075,55.577c-4.33,19.97-7.641,36.63-9.924,49.983c-2.287,13.353-3.491,20.15-3.609,20.39
		c0.118,0.122,0.239,0.181,0.361,0.181h4.33l18.586,0.361c1.201,0,2.165-0.121,2.887-0.361c1.562-2.766,3.037-7.908,4.421-15.428
		C950.736,126.564,951.909,121.661,952.873,119.375z M964.963,98.083l-9.021,0.181c-0.604,0-1.354-0.028-2.256-0.09
		c-0.902-0.059-1.596-0.09-2.075-0.09c0.479-3.248,0.992-7.156,1.534-11.729c0.541-4.57,0.992-8.12,1.353-10.646
		c0.361-2.526,0.722-5.17,1.083-7.939c0.84-4.931,1.684-7.398,2.526-7.398C959.55,60.37,961.834,72.942,964.963,98.083z
		 M960.452,75.708c-0.121,0.843-1.083,7.7-2.888,20.571h5.233c-0.361-3.248-0.812-7.187-1.354-11.819
		C960.903,79.83,960.57,76.912,960.452,75.708z"/>
	<path fill="#003FDB" d="M1084.595,41.243l0.361,38.073c0,8.662-0.121,14.255-0.361,16.781l-0.541,59.366
		c-3.369-0.482-7.218-0.722-11.548-0.722l-15.88,0.36c-0.121-0.843-0.18-2.105-0.18-3.789l-3.429,0.181
		c-0.361-6.375-0.572-16.06-0.632-29.052c-0.062-12.992-0.152-21.473-0.271-25.442c-0.843,2.047-1.384,3.49-1.624,4.331
		c-0.242,0.843-0.541,1.686-0.902,2.526c-0.36,0.843-0.662,1.534-0.902,2.075c-0.242,0.541-0.513,1.113-0.812,1.714
		c-0.302,0.604-0.572,1.114-0.812,1.534c-0.242,0.423-0.541,0.812-0.901,1.173c-0.604,0.603-1.204,0.902-1.805,0.902
		c-0.965,0-2.165-1.201-3.609-3.609c-1.804-0.118-3.97-3.186-6.495-9.203c-0.122,2.887-0.181,8.363-0.181,16.42
		c0,8.061,0.601,21.233,1.804,39.517c-4.691,0.722-9.685,1.083-14.977,1.083l-5.413,0.181c-6.378,0-9.563-1.385-9.563-4.15h-0.902
		c-0.964,0-1.714-0.604-2.256-1.805c-0.541-1.201-0.812-14.616-0.812-40.239c0-25.623,0.181-53.891,0.541-84.809
		c3.248-1.083,6.916-1.624,11.008-1.624l11.007,0.361c2.165,0,3.907-0.059,5.232-0.18c0.841,1.204,1.684,2.467,2.526,3.789
		l1.083-0.18c1.804,2.047,3.275,4.542,4.421,7.488c1.142,2.949,2.134,5.684,2.977,8.21c0.841,2.526,1.444,4.212,1.805,5.052
		c2.645-11.667,5.774-19.967,9.383-24.901c1.684,0.243,3.127,0.361,4.331,0.361l24.901-0.902l-0.181,3.609h3.789
		C1084.654,28.733,1084.595,33.907,1084.595,41.243z M1054.822,149.689l11.368-0.181h6.495c1.322,0,3.308,0.121,5.955,0.361
		l0.541-57.562c0.24-2.645,0.361-8.54,0.361-17.684l-0.361-36.991c0-6.135,0.06-10.706,0.181-13.714l-23.818,0.902
		c-1.687,0-2.647-0.059-2.888-0.181c-1.804,2.408-3.941,7.731-6.405,15.969c-2.467,8.241-3.88,12.301-4.24,12.18
		c-0.843,0-2.075-1.985-3.699-5.955s-3.338-8.3-5.143-12.992c-1.805-4.691-3.188-7.638-4.15-8.842h-0.181
		c-1.325,0.122-3.428,0.181-6.315,0.181l-6.496-0.181h-2.887c-3.97,0-6.919,0.302-8.842,0.902
		c-0.36,30.797-0.541,59.126-0.541,84.989c0,25.866,0.42,38.795,1.263,38.795l13.533,0.181c4.57,0,8.481-0.24,11.729-0.722
		c-1.083-16.479-1.624-29.773-1.624-39.878c0-10.104,0.36-19.606,1.082-28.51l0.542,1.804c0.239,0.604,0.749,2.047,1.533,4.331
		c0.781,2.287,1.534,4.362,2.256,6.226c0.722,1.866,1.503,3.879,2.346,6.045c2.044,4.452,3.547,6.676,4.511,6.676
		c0.841,0,2.766-4.06,5.774-12.18c3.006-8.12,4.872-12.839,5.594-14.165c0.961,7.939,1.593,21.083,1.895,39.427
		C1054.489,137.27,1054.701,147.524,1054.822,149.689z"/>
	<path fill="#003FDB" d="M1172.108,125.33l0.181,1.623c1.443,0,2.585-0.059,3.429-0.18v2.165c0.239,3.608,0.36,7.339,0.36,11.188
		c0,3.852-0.722,8.661-2.165,14.436l-47.276,0.541c-10.708,0-20.691-0.36-29.953-1.082v-3.429l-3.609-0.181l-1.083-79.937
		c0-15.157,0.479-30.793,1.444-46.915c22.493-1.083,43.546-1.624,63.155-1.624c9.501,0,14.494,0.722,14.977,2.166
		c0,1.204,0.601,2.075,1.804,2.616c1.201,0.542,1.805,0.874,1.805,0.993c0.479,2.769,0.722,5.895,0.722,9.383l-0.722,18.044
		c-6.135,1.443-13.894,2.166-23.277,2.166h-6.495l-7.038-0.181c-3.608,0-7.339,0.181-11.188,0.542l-0.541,12.992v1.624l3.248,0.181
		l7.037-0.181c0.601,0,3.609,0.181,9.022,0.542c0,2.286,0.541,3.428,1.624,3.428l1.984,0.181c0.601,3.129,0.902,6.797,0.902,11.007
		l-0.36,17.142c-3.369,0.964-7.731,1.475-13.082,1.534c-5.354,0.062-8.332,0.152-8.933,0.271c-0.36,1.804-0.541,4.542-0.541,8.21
		c0,3.671,0.06,6.288,0.181,7.849c14.436,0.722,24.478,1.083,30.134,1.083c5.653,0,10.403-0.118,14.255-0.361V125.33z
		 M1121.043,149.689l47.817-0.541c1.201-4.691,1.805-8.901,1.805-12.631c0-3.728-0.121-7.398-0.361-11.008v-0.36
		c-1.804,0.121-4.393,0.181-7.759,0.181l-39.517-1.083l-0.181-0.181c-0.482-3.006-0.722-6.885-0.722-11.639
		c0-4.75,0.239-8.391,0.722-10.917c0.722-0.601,3.938-0.902,9.653-0.902c5.712,0,9.772-0.361,12.18-1.083l0.181-15.699
		c0-4.209-0.181-7.336-0.541-9.383v-0.181c-8.301,0-15.698-0.181-22.194-0.542l-0.181-0.18c-0.482-1.805-0.722-4.088-0.722-6.857
		l0.541-14.255c1.443-0.361,5.712-0.542,12.812-0.542h14.255c8.78,0,15.758-0.601,20.932-1.804v-0.181l0.541-17.142
		c0-2.766-0.18-5.594-0.541-8.481c0-0.361-6.888-0.541-20.661-0.541c-13.775,0-31.789,0.541-54.042,1.624
		c-0.722,11.669-1.083,26.105-1.083,43.306l0.902,80.117C1101.976,149.391,1110.695,149.689,1121.043,149.689z"/>
	<path fill="#003FDB" d="M1185.099,151.133l-3.068,0.181c-2.165-15.758-3.248-35.908-3.248-60.449l0.361-47.637
		c0-7.818-0.031-12.75-0.09-14.796c-0.062-2.044-0.031-3.217,0.09-3.519c0.118-0.299,0.541-0.812,1.263-1.534
		c5.171-1.443,12.09-2.165,20.751-2.165l16.781,0.361c3.127,0,5.473-0.059,7.038-0.181c4.81,1.444,9.563,4.06,14.255,7.85
		c4.691,3.789,8.179,7.731,10.466,11.819h-0.181c5.171,7.821,8.9,16.843,11.188,27.066l-0.181-0.18
		c0.962,2.887,1.562,6.919,1.805,12.09c-0.121,2.165-0.243,5.715-0.361,10.646c-0.481,10.226-1.204,17.864-2.165,22.916
		c-4.452,12.631-12.45,26.164-23.999,40.6c-3.97,0.119-20.691,0.361-50.163,0.722L1185.099,151.133z M1224.796,23.199l-5.233,0.18
		l-17.863-0.361c-8.301,0-15.099,0.663-20.391,1.985c-0.36,0.361-0.541,0.604-0.541,0.722c0.118,3.851,0.181,9.625,0.181,17.322
		l-0.361,48.54c0,24.901,1.021,44.208,3.067,57.922l0.181-0.181c21.05,0,36.87-0.18,47.457-0.541
		c11.548-14.554,19.186-27.306,22.916-38.254l0.181-0.361c1.082-5.653,1.742-12.27,1.984-19.849c0.24-7.579,0.42-12.27,0.542-14.075
		c-0.723-13.471-4.872-26.102-12.451-37.893c-2.165-3.609-5.024-6.795-8.571-9.563C1232.344,26.026,1228.645,24.163,1224.796,23.199
		z M1206.391,96.819l0.36-22.916c0-2.766-0.121-6.434-0.36-11.007v-0.722h0.541c2.165-0.361,4.449-0.541,6.857-0.541
		c4.931,0,8.932,1.505,11.999,4.511c3.067,3.008,5.021,6.288,5.864,9.834c0.841,3.549,1.264,7.759,1.264,12.631
		s-1.687,9.956-5.053,15.248c-3.13,4.573-5.955,6.857-8.48,6.857h-0.361c-2.047,0.361-4.303,0.541-6.767,0.541
		c-2.467,0-4.303-0.541-5.504-1.624C1206.509,104.099,1206.391,99.828,1206.391,96.819z M1211.623,106.563l0.181,2.887h0.902
		c0.36,0,1.562-0.09,3.608-0.271c2.045-0.181,3.068-0.24,3.068-0.181c0,0.062,0.118,0.09,0.36,0.09c0.24,0,0.84-0.361,1.805-1.083
		h-0.181c1.805-1.083,3.487-2.825,5.053-5.232v0.18c3.127-4.691,4.691-10.074,4.691-16.149c0-6.073-1.805-12.239-5.413-18.496
		l-1.805-0.902c-2.887-0.24-4.962-0.361-6.226-0.361c-1.263,0-3.22,0.121-5.864,0.361c0.239,4.573,0.361,8.362,0.361,11.368
		L1211.623,106.563z"/>
</g>
<g>
</g>
<g>
</g>
<g>
</g>
<g>
</g>
<g>
</g>
<g>
</g>
<g>
</g>
<g>
</g>
<g>
</g>
<g>
</g>
<g>
</g>
<g>
</g>
<g>
</g>
<g>
</g>
<g>
</g>
</svg>
